%TF.GenerationSoftware,KiCad,Pcbnew,(5.1.10)-1*%
%TF.CreationDate,2021-11-12T17:46:38-08:00*%
%TF.ProjectId,mouse_proj,6d6f7573-655f-4707-926f-6a2e6b696361,rev?*%
%TF.SameCoordinates,Original*%
%TF.FileFunction,Copper,L2,Inr*%
%TF.FilePolarity,Positive*%
%FSLAX46Y46*%
G04 Gerber Fmt 4.6, Leading zero omitted, Abs format (unit mm)*
G04 Created by KiCad (PCBNEW (5.1.10)-1) date 2021-11-12 17:46:38*
%MOMM*%
%LPD*%
G01*
G04 APERTURE LIST*
%TA.AperFunction,ComponentPad*%
%ADD10C,2.000000*%
%TD*%
%TA.AperFunction,ComponentPad*%
%ADD11R,1.800000X1.800000*%
%TD*%
%TA.AperFunction,ComponentPad*%
%ADD12C,1.800000*%
%TD*%
%TA.AperFunction,ComponentPad*%
%ADD13C,1.450000*%
%TD*%
%TA.AperFunction,ComponentPad*%
%ADD14O,1.200000X1.900000*%
%TD*%
%TA.AperFunction,ComponentPad*%
%ADD15R,1.700000X1.700000*%
%TD*%
%TA.AperFunction,ComponentPad*%
%ADD16O,1.700000X1.700000*%
%TD*%
%TA.AperFunction,ComponentPad*%
%ADD17R,2.000000X3.200000*%
%TD*%
%TA.AperFunction,ComponentPad*%
%ADD18R,2.000000X2.000000*%
%TD*%
%TA.AperFunction,ComponentPad*%
%ADD19C,3.000000*%
%TD*%
%TA.AperFunction,ViaPad*%
%ADD20C,0.800000*%
%TD*%
%TA.AperFunction,Conductor*%
%ADD21C,0.254000*%
%TD*%
%TA.AperFunction,Conductor*%
%ADD22C,0.100000*%
%TD*%
G04 APERTURE END LIST*
D10*
%TO.N,NRST*%
%TO.C,SW2*%
X223500000Y-87500000D03*
%TO.N,GND*%
X223500000Y-92000000D03*
%TO.N,NRST*%
X217000000Y-87500000D03*
%TO.N,GND*%
X217000000Y-92000000D03*
%TD*%
D11*
%TO.N,Net-(D2-Pad1)*%
%TO.C,D2*%
X232000000Y-55750000D03*
D12*
%TO.N,GND*%
X229841000Y-55750000D03*
%TO.N,Net-(D2-Pad3)*%
X227682000Y-55750000D03*
%TO.N,Net-(D2-Pad4)*%
X225523000Y-55750000D03*
%TD*%
D13*
%TO.N,GND*%
%TO.C,J1*%
X219500000Y-55462500D03*
X214500000Y-55462500D03*
D14*
X220500000Y-52762500D03*
X213500000Y-52762500D03*
%TD*%
D15*
%TO.N,+3V3*%
%TO.C,J2*%
X241000000Y-85250000D03*
D16*
%TO.N,MOTION_TRACK*%
X241000000Y-87790000D03*
%TO.N,SPI1_MOSI*%
X241000000Y-90330000D03*
%TO.N,SPI1_MISO*%
X241000000Y-92870000D03*
%TO.N,SPI1_SCLK*%
X241000000Y-95410000D03*
%TO.N,SPI1_CSN*%
X241000000Y-97950000D03*
%TO.N,GND*%
X241000000Y-100490000D03*
%TD*%
D15*
%TO.N,MOUSELEFT*%
%TO.C,J4*%
X194000000Y-80250000D03*
D16*
%TO.N,MOUSERIGHT*%
X194000000Y-77710000D03*
%TO.N,+3V3*%
X194000000Y-75170000D03*
%TD*%
D15*
%TO.N,+3V3*%
%TO.C,J5*%
X194000000Y-62500000D03*
D16*
%TO.N,SWDIO*%
X196540000Y-62500000D03*
%TO.N,+3V3*%
X194000000Y-65040000D03*
%TO.N,SWCLK*%
X196540000Y-65040000D03*
%TO.N,GND*%
X194000000Y-67580000D03*
%TO.N,NRST*%
X196540000Y-67580000D03*
%TO.N,GND*%
X194000000Y-70120000D03*
%TO.N,SWO*%
X196540000Y-70120000D03*
%TD*%
D10*
%TO.N,N/C*%
%TO.C,SW3*%
X194500000Y-118500000D03*
X199500000Y-118500000D03*
D17*
X191400000Y-111500000D03*
X202600000Y-111500000D03*
D10*
%TO.N,Net-(R8-Pad2)*%
X194500000Y-104000000D03*
%TO.N,GND*%
X197000000Y-104000000D03*
D18*
%TO.N,Net-(R3-Pad1)*%
X199500000Y-104000000D03*
%TD*%
D19*
%TO.N,GND*%
%TO.C,TP1*%
X194000000Y-54000000D03*
%TD*%
%TO.N,+3V3*%
%TO.C,TP2*%
X240000000Y-54000000D03*
%TD*%
D15*
%TO.N,MOUSE05*%
%TO.C,J3*%
X219000000Y-108000000D03*
D16*
%TO.N,MOUSE00*%
X219000000Y-105460000D03*
%TO.N,MOUSE06*%
X221540000Y-108000000D03*
%TO.N,MOUSE01*%
X221540000Y-105460000D03*
%TO.N,MOUSE07*%
X224080000Y-108000000D03*
%TO.N,MOUSE02*%
X224080000Y-105460000D03*
%TO.N,MOUSE08*%
X226620000Y-108000000D03*
%TO.N,MOUSE03*%
X226620000Y-105460000D03*
%TO.N,MOUSE09*%
X229160000Y-108000000D03*
%TO.N,MOUSE04*%
X229160000Y-105460000D03*
%TO.N,MOUSE10*%
X231700000Y-108000000D03*
%TO.N,+3V3*%
X231700000Y-105460000D03*
%TD*%
D15*
%TO.N,MOUSE16*%
%TO.C,J6*%
X241040000Y-61500000D03*
D16*
%TO.N,MOUSE17*%
X238500000Y-61500000D03*
%TO.N,MOUSE18*%
X235960000Y-61500000D03*
%TO.N,MOUSE19*%
X233420000Y-61500000D03*
%TD*%
D15*
%TO.N,MOUSE11*%
%TO.C,J7*%
X241000000Y-79500000D03*
D16*
%TO.N,MOUSE12*%
X241000000Y-76960000D03*
%TO.N,MOUSE13*%
X241000000Y-74420000D03*
%TO.N,MOUSE14*%
X241000000Y-71880000D03*
%TO.N,MOUSE15*%
X241000000Y-69340000D03*
%TD*%
D20*
%TO.N,GND*%
X195000000Y-94800000D03*
X198000000Y-94800000D03*
X209800000Y-64000000D03*
X214800000Y-60400000D03*
X203600000Y-56500000D03*
X206250000Y-60019669D03*
X203600000Y-54000000D03*
X232000000Y-68000000D03*
X230500000Y-68000000D03*
X229000000Y-68000000D03*
X215500000Y-64000000D03*
X218000000Y-67500000D03*
X210000000Y-104500000D03*
X210250000Y-83000000D03*
X216500000Y-80750000D03*
X223500000Y-84500000D03*
X216750000Y-73500000D03*
X223250000Y-73750000D03*
X228000000Y-74250000D03*
X233500000Y-68000000D03*
X210750000Y-112850000D03*
X229750000Y-53750000D03*
%TO.N,+3V3*%
X229000000Y-64750000D03*
X230500000Y-64750000D03*
X232000000Y-64750000D03*
X206200000Y-112600000D03*
X201200000Y-100000000D03*
X191800000Y-100000000D03*
X201200000Y-61000000D03*
X211000000Y-66200000D03*
X212400000Y-66200000D03*
X214000000Y-66200000D03*
X217000000Y-67500000D03*
X206750000Y-73750000D03*
X212250000Y-77500000D03*
X216750000Y-74750000D03*
X224000000Y-74500000D03*
X233500000Y-64750000D03*
%TO.N,NRST*%
X217250000Y-72000000D03*
%TO.N,MOUSE13*%
X223250000Y-70500000D03*
%TO.N,MOUSE04*%
X220750000Y-72750000D03*
%TO.N,MOUSE14*%
X223250000Y-69250000D03*
%TO.N,MOUSE05*%
X221500000Y-74500000D03*
%TO.N,MOUSE15*%
X223250000Y-68000000D03*
%TO.N,MOUSE07*%
X224021845Y-79228155D03*
%TO.N,MOUSE08*%
X226250000Y-80500000D03*
%TO.N,SWO*%
X202500000Y-70000000D03*
%TD*%
D21*
%TO.N,GND*%
X243315001Y-119315000D02*
X200921832Y-119315000D01*
X200948918Y-119274463D01*
X201072168Y-118976912D01*
X201135000Y-118661033D01*
X201135000Y-118338967D01*
X201072168Y-118023088D01*
X200948918Y-117725537D01*
X200769987Y-117457748D01*
X200542252Y-117230013D01*
X200274463Y-117051082D01*
X199976912Y-116927832D01*
X199661033Y-116865000D01*
X199338967Y-116865000D01*
X199023088Y-116927832D01*
X198725537Y-117051082D01*
X198457748Y-117230013D01*
X198230013Y-117457748D01*
X198051082Y-117725537D01*
X197927832Y-118023088D01*
X197865000Y-118338967D01*
X197865000Y-118661033D01*
X197927832Y-118976912D01*
X198051082Y-119274463D01*
X198078168Y-119315000D01*
X195921832Y-119315000D01*
X195948918Y-119274463D01*
X196072168Y-118976912D01*
X196135000Y-118661033D01*
X196135000Y-118338967D01*
X196072168Y-118023088D01*
X195948918Y-117725537D01*
X195769987Y-117457748D01*
X195542252Y-117230013D01*
X195274463Y-117051082D01*
X194976912Y-116927832D01*
X194661033Y-116865000D01*
X194338967Y-116865000D01*
X194023088Y-116927832D01*
X193725537Y-117051082D01*
X193457748Y-117230013D01*
X193230013Y-117457748D01*
X193051082Y-117725537D01*
X192927832Y-118023088D01*
X192865000Y-118338967D01*
X192865000Y-118661033D01*
X192927832Y-118976912D01*
X193051082Y-119274463D01*
X193078168Y-119315000D01*
X190685000Y-119315000D01*
X190685000Y-116223137D01*
X205915000Y-116223137D01*
X205915000Y-116436863D01*
X205956696Y-116646483D01*
X206038485Y-116843940D01*
X206157225Y-117021647D01*
X206308353Y-117172775D01*
X206486060Y-117291515D01*
X206683517Y-117373304D01*
X206893137Y-117415000D01*
X207106863Y-117415000D01*
X207316483Y-117373304D01*
X207513940Y-117291515D01*
X207691647Y-117172775D01*
X207842775Y-117021647D01*
X207961515Y-116843940D01*
X208043304Y-116646483D01*
X208085000Y-116436863D01*
X208085000Y-116223137D01*
X208915000Y-116223137D01*
X208915000Y-116436863D01*
X208956696Y-116646483D01*
X209038485Y-116843940D01*
X209157225Y-117021647D01*
X209308353Y-117172775D01*
X209486060Y-117291515D01*
X209683517Y-117373304D01*
X209893137Y-117415000D01*
X210106863Y-117415000D01*
X210316483Y-117373304D01*
X210513940Y-117291515D01*
X210691647Y-117172775D01*
X210842775Y-117021647D01*
X210961515Y-116843940D01*
X211043304Y-116646483D01*
X211085000Y-116436863D01*
X211085000Y-116223137D01*
X211043304Y-116013517D01*
X210961515Y-115816060D01*
X210842775Y-115638353D01*
X210691647Y-115487225D01*
X210676180Y-115476890D01*
X227750048Y-115476890D01*
X227750048Y-115723110D01*
X227798083Y-115964598D01*
X227892307Y-116192074D01*
X228029099Y-116396798D01*
X228203202Y-116570901D01*
X228407926Y-116707693D01*
X228635402Y-116801917D01*
X228876890Y-116849952D01*
X229123110Y-116849952D01*
X229364598Y-116801917D01*
X229592074Y-116707693D01*
X229796798Y-116570901D01*
X229970901Y-116396798D01*
X230107693Y-116192074D01*
X230201917Y-115964598D01*
X230249952Y-115723110D01*
X230249952Y-115476890D01*
X230201917Y-115235402D01*
X230107693Y-115007926D01*
X229970901Y-114803202D01*
X229796798Y-114629099D01*
X229592074Y-114492307D01*
X229364598Y-114398083D01*
X229123110Y-114350048D01*
X228876890Y-114350048D01*
X228635402Y-114398083D01*
X228407926Y-114492307D01*
X228203202Y-114629099D01*
X228029099Y-114803202D01*
X227892307Y-115007926D01*
X227798083Y-115235402D01*
X227750048Y-115476890D01*
X210676180Y-115476890D01*
X210513940Y-115368485D01*
X210316483Y-115286696D01*
X210106863Y-115245000D01*
X209893137Y-115245000D01*
X209683517Y-115286696D01*
X209486060Y-115368485D01*
X209308353Y-115487225D01*
X209157225Y-115638353D01*
X209038485Y-115816060D01*
X208956696Y-116013517D01*
X208915000Y-116223137D01*
X208085000Y-116223137D01*
X208043304Y-116013517D01*
X207961515Y-115816060D01*
X207842775Y-115638353D01*
X207691647Y-115487225D01*
X207513940Y-115368485D01*
X207316483Y-115286696D01*
X207106863Y-115245000D01*
X206893137Y-115245000D01*
X206683517Y-115286696D01*
X206486060Y-115368485D01*
X206308353Y-115487225D01*
X206157225Y-115638353D01*
X206038485Y-115816060D01*
X205956696Y-116013517D01*
X205915000Y-116223137D01*
X190685000Y-116223137D01*
X190685000Y-113738072D01*
X192400000Y-113738072D01*
X192524482Y-113725812D01*
X192644180Y-113689502D01*
X192754494Y-113630537D01*
X192851185Y-113551185D01*
X192930537Y-113454494D01*
X192989502Y-113344180D01*
X193025812Y-113224482D01*
X193038072Y-113100000D01*
X193038072Y-109900000D01*
X200961928Y-109900000D01*
X200961928Y-113100000D01*
X200974188Y-113224482D01*
X201010498Y-113344180D01*
X201069463Y-113454494D01*
X201148815Y-113551185D01*
X201245506Y-113630537D01*
X201355820Y-113689502D01*
X201475518Y-113725812D01*
X201600000Y-113738072D01*
X203600000Y-113738072D01*
X203724482Y-113725812D01*
X203844180Y-113689502D01*
X203954494Y-113630537D01*
X204051185Y-113551185D01*
X204130537Y-113454494D01*
X204189502Y-113344180D01*
X204225812Y-113224482D01*
X204238072Y-113100000D01*
X204238072Y-112498061D01*
X205165000Y-112498061D01*
X205165000Y-112701939D01*
X205204774Y-112901898D01*
X205282795Y-113090256D01*
X205396063Y-113259774D01*
X205540226Y-113403937D01*
X205709744Y-113517205D01*
X205898102Y-113595226D01*
X206098061Y-113635000D01*
X206301939Y-113635000D01*
X206501898Y-113595226D01*
X206690256Y-113517205D01*
X206859774Y-113403937D01*
X207003937Y-113259774D01*
X207117205Y-113090256D01*
X207195226Y-112901898D01*
X207235000Y-112701939D01*
X207235000Y-112498061D01*
X207195226Y-112298102D01*
X207117205Y-112109744D01*
X207003937Y-111940226D01*
X206859774Y-111796063D01*
X206690256Y-111682795D01*
X206501898Y-111604774D01*
X206301939Y-111565000D01*
X206098061Y-111565000D01*
X205898102Y-111604774D01*
X205709744Y-111682795D01*
X205540226Y-111796063D01*
X205396063Y-111940226D01*
X205282795Y-112109744D01*
X205204774Y-112298102D01*
X205165000Y-112498061D01*
X204238072Y-112498061D01*
X204238072Y-109900000D01*
X204225812Y-109775518D01*
X204189502Y-109655820D01*
X204130537Y-109545506D01*
X204051185Y-109448815D01*
X203954494Y-109369463D01*
X203844180Y-109310498D01*
X203724482Y-109274188D01*
X203600000Y-109261928D01*
X201600000Y-109261928D01*
X201475518Y-109274188D01*
X201355820Y-109310498D01*
X201245506Y-109369463D01*
X201148815Y-109448815D01*
X201069463Y-109545506D01*
X201010498Y-109655820D01*
X200974188Y-109775518D01*
X200961928Y-109900000D01*
X193038072Y-109900000D01*
X193025812Y-109775518D01*
X192989502Y-109655820D01*
X192930537Y-109545506D01*
X192851185Y-109448815D01*
X192754494Y-109369463D01*
X192644180Y-109310498D01*
X192524482Y-109274188D01*
X192400000Y-109261928D01*
X190685000Y-109261928D01*
X190685000Y-107150000D01*
X217511928Y-107150000D01*
X217511928Y-108850000D01*
X217524188Y-108974482D01*
X217560498Y-109094180D01*
X217619463Y-109204494D01*
X217698815Y-109301185D01*
X217795506Y-109380537D01*
X217905820Y-109439502D01*
X218025518Y-109475812D01*
X218150000Y-109488072D01*
X219850000Y-109488072D01*
X219974482Y-109475812D01*
X220094180Y-109439502D01*
X220204494Y-109380537D01*
X220301185Y-109301185D01*
X220380537Y-109204494D01*
X220439502Y-109094180D01*
X220461513Y-109021620D01*
X220593368Y-109153475D01*
X220836589Y-109315990D01*
X221106842Y-109427932D01*
X221393740Y-109485000D01*
X221686260Y-109485000D01*
X221973158Y-109427932D01*
X222243411Y-109315990D01*
X222486632Y-109153475D01*
X222693475Y-108946632D01*
X222810000Y-108772240D01*
X222926525Y-108946632D01*
X223133368Y-109153475D01*
X223376589Y-109315990D01*
X223646842Y-109427932D01*
X223933740Y-109485000D01*
X224226260Y-109485000D01*
X224513158Y-109427932D01*
X224783411Y-109315990D01*
X225026632Y-109153475D01*
X225233475Y-108946632D01*
X225350000Y-108772240D01*
X225466525Y-108946632D01*
X225673368Y-109153475D01*
X225916589Y-109315990D01*
X226186842Y-109427932D01*
X226473740Y-109485000D01*
X226766260Y-109485000D01*
X227053158Y-109427932D01*
X227323411Y-109315990D01*
X227566632Y-109153475D01*
X227773475Y-108946632D01*
X227890000Y-108772240D01*
X228006525Y-108946632D01*
X228213368Y-109153475D01*
X228456589Y-109315990D01*
X228726842Y-109427932D01*
X229013740Y-109485000D01*
X229306260Y-109485000D01*
X229593158Y-109427932D01*
X229863411Y-109315990D01*
X230106632Y-109153475D01*
X230313475Y-108946632D01*
X230430000Y-108772240D01*
X230546525Y-108946632D01*
X230753368Y-109153475D01*
X230996589Y-109315990D01*
X231266842Y-109427932D01*
X231553740Y-109485000D01*
X231846260Y-109485000D01*
X232133158Y-109427932D01*
X232403411Y-109315990D01*
X232646632Y-109153475D01*
X232853475Y-108946632D01*
X233015990Y-108703411D01*
X233127932Y-108433158D01*
X233185000Y-108146260D01*
X233185000Y-107853740D01*
X233127932Y-107566842D01*
X233015990Y-107296589D01*
X232853475Y-107053368D01*
X232646632Y-106846525D01*
X232472240Y-106730000D01*
X232646632Y-106613475D01*
X232853475Y-106406632D01*
X233015990Y-106163411D01*
X233127932Y-105893158D01*
X233185000Y-105606260D01*
X233185000Y-105313740D01*
X233127932Y-105026842D01*
X233015990Y-104756589D01*
X232853475Y-104513368D01*
X232646632Y-104306525D01*
X232403411Y-104144010D01*
X232133158Y-104032068D01*
X231846260Y-103975000D01*
X231553740Y-103975000D01*
X231266842Y-104032068D01*
X230996589Y-104144010D01*
X230753368Y-104306525D01*
X230546525Y-104513368D01*
X230430000Y-104687760D01*
X230313475Y-104513368D01*
X230106632Y-104306525D01*
X229863411Y-104144010D01*
X229593158Y-104032068D01*
X229306260Y-103975000D01*
X229013740Y-103975000D01*
X228726842Y-104032068D01*
X228456589Y-104144010D01*
X228213368Y-104306525D01*
X228006525Y-104513368D01*
X227890000Y-104687760D01*
X227773475Y-104513368D01*
X227566632Y-104306525D01*
X227323411Y-104144010D01*
X227053158Y-104032068D01*
X226766260Y-103975000D01*
X226473740Y-103975000D01*
X226186842Y-104032068D01*
X225916589Y-104144010D01*
X225673368Y-104306525D01*
X225466525Y-104513368D01*
X225350000Y-104687760D01*
X225233475Y-104513368D01*
X225026632Y-104306525D01*
X224783411Y-104144010D01*
X224513158Y-104032068D01*
X224226260Y-103975000D01*
X223933740Y-103975000D01*
X223646842Y-104032068D01*
X223376589Y-104144010D01*
X223133368Y-104306525D01*
X222926525Y-104513368D01*
X222810000Y-104687760D01*
X222693475Y-104513368D01*
X222486632Y-104306525D01*
X222243411Y-104144010D01*
X221973158Y-104032068D01*
X221686260Y-103975000D01*
X221393740Y-103975000D01*
X221106842Y-104032068D01*
X220836589Y-104144010D01*
X220593368Y-104306525D01*
X220386525Y-104513368D01*
X220270000Y-104687760D01*
X220153475Y-104513368D01*
X219946632Y-104306525D01*
X219703411Y-104144010D01*
X219433158Y-104032068D01*
X219146260Y-103975000D01*
X218853740Y-103975000D01*
X218566842Y-104032068D01*
X218296589Y-104144010D01*
X218053368Y-104306525D01*
X217846525Y-104513368D01*
X217684010Y-104756589D01*
X217572068Y-105026842D01*
X217515000Y-105313740D01*
X217515000Y-105606260D01*
X217572068Y-105893158D01*
X217684010Y-106163411D01*
X217846525Y-106406632D01*
X217978380Y-106538487D01*
X217905820Y-106560498D01*
X217795506Y-106619463D01*
X217698815Y-106698815D01*
X217619463Y-106795506D01*
X217560498Y-106905820D01*
X217524188Y-107025518D01*
X217511928Y-107150000D01*
X190685000Y-107150000D01*
X190685000Y-103838967D01*
X192865000Y-103838967D01*
X192865000Y-104161033D01*
X192927832Y-104476912D01*
X193051082Y-104774463D01*
X193230013Y-105042252D01*
X193457748Y-105269987D01*
X193725537Y-105448918D01*
X194023088Y-105572168D01*
X194338967Y-105635000D01*
X194661033Y-105635000D01*
X194976912Y-105572168D01*
X195274463Y-105448918D01*
X195542252Y-105269987D01*
X195769987Y-105042252D01*
X195834925Y-104945065D01*
X195864587Y-104955808D01*
X196820395Y-104000000D01*
X195864587Y-103044192D01*
X195834925Y-103054935D01*
X195769987Y-102957748D01*
X195676826Y-102864587D01*
X196044192Y-102864587D01*
X197000000Y-103820395D01*
X197014143Y-103806253D01*
X197193748Y-103985858D01*
X197179605Y-104000000D01*
X197193748Y-104014143D01*
X197014143Y-104193748D01*
X197000000Y-104179605D01*
X196044192Y-105135413D01*
X196139956Y-105399814D01*
X196429571Y-105540704D01*
X196741108Y-105622384D01*
X197062595Y-105641718D01*
X197381675Y-105597961D01*
X197686088Y-105492795D01*
X197860044Y-105399814D01*
X197914024Y-105250777D01*
X197969463Y-105354494D01*
X198048815Y-105451185D01*
X198145506Y-105530537D01*
X198255820Y-105589502D01*
X198375518Y-105625812D01*
X198500000Y-105638072D01*
X200500000Y-105638072D01*
X200624482Y-105625812D01*
X200744180Y-105589502D01*
X200854494Y-105530537D01*
X200951185Y-105451185D01*
X201030537Y-105354494D01*
X201089502Y-105244180D01*
X201125812Y-105124482D01*
X201138072Y-105000000D01*
X201138072Y-103000000D01*
X201125812Y-102875518D01*
X201089502Y-102755820D01*
X201030537Y-102645506D01*
X200951185Y-102548815D01*
X200854494Y-102469463D01*
X200744180Y-102410498D01*
X200624482Y-102374188D01*
X200500000Y-102361928D01*
X198500000Y-102361928D01*
X198375518Y-102374188D01*
X198255820Y-102410498D01*
X198145506Y-102469463D01*
X198048815Y-102548815D01*
X197969463Y-102645506D01*
X197914024Y-102749223D01*
X197860044Y-102600186D01*
X197570429Y-102459296D01*
X197258892Y-102377616D01*
X196937405Y-102358282D01*
X196618325Y-102402039D01*
X196313912Y-102507205D01*
X196139956Y-102600186D01*
X196044192Y-102864587D01*
X195676826Y-102864587D01*
X195542252Y-102730013D01*
X195274463Y-102551082D01*
X194976912Y-102427832D01*
X194661033Y-102365000D01*
X194338967Y-102365000D01*
X194023088Y-102427832D01*
X193725537Y-102551082D01*
X193457748Y-102730013D01*
X193230013Y-102957748D01*
X193051082Y-103225537D01*
X192927832Y-103523088D01*
X192865000Y-103838967D01*
X190685000Y-103838967D01*
X190685000Y-99898061D01*
X190765000Y-99898061D01*
X190765000Y-100101939D01*
X190804774Y-100301898D01*
X190882795Y-100490256D01*
X190996063Y-100659774D01*
X191140226Y-100803937D01*
X191309744Y-100917205D01*
X191498102Y-100995226D01*
X191698061Y-101035000D01*
X191901939Y-101035000D01*
X192101898Y-100995226D01*
X192290256Y-100917205D01*
X192459774Y-100803937D01*
X192603937Y-100659774D01*
X192717205Y-100490256D01*
X192795226Y-100301898D01*
X192835000Y-100101939D01*
X192835000Y-99898061D01*
X200165000Y-99898061D01*
X200165000Y-100101939D01*
X200204774Y-100301898D01*
X200282795Y-100490256D01*
X200396063Y-100659774D01*
X200540226Y-100803937D01*
X200709744Y-100917205D01*
X200898102Y-100995226D01*
X201098061Y-101035000D01*
X201301939Y-101035000D01*
X201501898Y-100995226D01*
X201690256Y-100917205D01*
X201795490Y-100846890D01*
X239558524Y-100846890D01*
X239603175Y-100994099D01*
X239728359Y-101256920D01*
X239902412Y-101490269D01*
X240118645Y-101685178D01*
X240368748Y-101834157D01*
X240643109Y-101931481D01*
X240873000Y-101810814D01*
X240873000Y-100617000D01*
X241127000Y-100617000D01*
X241127000Y-101810814D01*
X241356891Y-101931481D01*
X241631252Y-101834157D01*
X241881355Y-101685178D01*
X242097588Y-101490269D01*
X242271641Y-101256920D01*
X242396825Y-100994099D01*
X242441476Y-100846890D01*
X242320155Y-100617000D01*
X241127000Y-100617000D01*
X240873000Y-100617000D01*
X239679845Y-100617000D01*
X239558524Y-100846890D01*
X201795490Y-100846890D01*
X201859774Y-100803937D01*
X202003937Y-100659774D01*
X202117205Y-100490256D01*
X202195226Y-100301898D01*
X202235000Y-100101939D01*
X202235000Y-99898061D01*
X202195226Y-99698102D01*
X202117205Y-99509744D01*
X202003937Y-99340226D01*
X201859774Y-99196063D01*
X201690256Y-99082795D01*
X201501898Y-99004774D01*
X201301939Y-98965000D01*
X201098061Y-98965000D01*
X200898102Y-99004774D01*
X200709744Y-99082795D01*
X200540226Y-99196063D01*
X200396063Y-99340226D01*
X200282795Y-99509744D01*
X200204774Y-99698102D01*
X200165000Y-99898061D01*
X192835000Y-99898061D01*
X192795226Y-99698102D01*
X192717205Y-99509744D01*
X192603937Y-99340226D01*
X192459774Y-99196063D01*
X192290256Y-99082795D01*
X192101898Y-99004774D01*
X191901939Y-98965000D01*
X191698061Y-98965000D01*
X191498102Y-99004774D01*
X191309744Y-99082795D01*
X191140226Y-99196063D01*
X190996063Y-99340226D01*
X190882795Y-99509744D01*
X190804774Y-99698102D01*
X190765000Y-99898061D01*
X190685000Y-99898061D01*
X190685000Y-93135413D01*
X216044192Y-93135413D01*
X216139956Y-93399814D01*
X216429571Y-93540704D01*
X216741108Y-93622384D01*
X217062595Y-93641718D01*
X217381675Y-93597961D01*
X217686088Y-93492795D01*
X217860044Y-93399814D01*
X217955808Y-93135413D01*
X222544192Y-93135413D01*
X222639956Y-93399814D01*
X222929571Y-93540704D01*
X223241108Y-93622384D01*
X223562595Y-93641718D01*
X223881675Y-93597961D01*
X224186088Y-93492795D01*
X224360044Y-93399814D01*
X224455808Y-93135413D01*
X223500000Y-92179605D01*
X222544192Y-93135413D01*
X217955808Y-93135413D01*
X217000000Y-92179605D01*
X216044192Y-93135413D01*
X190685000Y-93135413D01*
X190685000Y-92062595D01*
X215358282Y-92062595D01*
X215402039Y-92381675D01*
X215507205Y-92686088D01*
X215600186Y-92860044D01*
X215864587Y-92955808D01*
X216820395Y-92000000D01*
X217179605Y-92000000D01*
X218135413Y-92955808D01*
X218399814Y-92860044D01*
X218540704Y-92570429D01*
X218622384Y-92258892D01*
X218634189Y-92062595D01*
X221858282Y-92062595D01*
X221902039Y-92381675D01*
X222007205Y-92686088D01*
X222100186Y-92860044D01*
X222364587Y-92955808D01*
X223320395Y-92000000D01*
X223679605Y-92000000D01*
X224635413Y-92955808D01*
X224899814Y-92860044D01*
X225040704Y-92570429D01*
X225122384Y-92258892D01*
X225141718Y-91937405D01*
X225097961Y-91618325D01*
X224992795Y-91313912D01*
X224899814Y-91139956D01*
X224635413Y-91044192D01*
X223679605Y-92000000D01*
X223320395Y-92000000D01*
X222364587Y-91044192D01*
X222100186Y-91139956D01*
X221959296Y-91429571D01*
X221877616Y-91741108D01*
X221858282Y-92062595D01*
X218634189Y-92062595D01*
X218641718Y-91937405D01*
X218597961Y-91618325D01*
X218492795Y-91313912D01*
X218399814Y-91139956D01*
X218135413Y-91044192D01*
X217179605Y-92000000D01*
X216820395Y-92000000D01*
X215864587Y-91044192D01*
X215600186Y-91139956D01*
X215459296Y-91429571D01*
X215377616Y-91741108D01*
X215358282Y-92062595D01*
X190685000Y-92062595D01*
X190685000Y-90864587D01*
X216044192Y-90864587D01*
X217000000Y-91820395D01*
X217955808Y-90864587D01*
X222544192Y-90864587D01*
X223500000Y-91820395D01*
X224455808Y-90864587D01*
X224360044Y-90600186D01*
X224070429Y-90459296D01*
X223758892Y-90377616D01*
X223437405Y-90358282D01*
X223118325Y-90402039D01*
X222813912Y-90507205D01*
X222639956Y-90600186D01*
X222544192Y-90864587D01*
X217955808Y-90864587D01*
X217860044Y-90600186D01*
X217570429Y-90459296D01*
X217258892Y-90377616D01*
X216937405Y-90358282D01*
X216618325Y-90402039D01*
X216313912Y-90507205D01*
X216139956Y-90600186D01*
X216044192Y-90864587D01*
X190685000Y-90864587D01*
X190685000Y-87338967D01*
X215365000Y-87338967D01*
X215365000Y-87661033D01*
X215427832Y-87976912D01*
X215551082Y-88274463D01*
X215730013Y-88542252D01*
X215957748Y-88769987D01*
X216225537Y-88948918D01*
X216523088Y-89072168D01*
X216838967Y-89135000D01*
X217161033Y-89135000D01*
X217476912Y-89072168D01*
X217774463Y-88948918D01*
X218042252Y-88769987D01*
X218269987Y-88542252D01*
X218448918Y-88274463D01*
X218572168Y-87976912D01*
X218635000Y-87661033D01*
X218635000Y-87338967D01*
X221865000Y-87338967D01*
X221865000Y-87661033D01*
X221927832Y-87976912D01*
X222051082Y-88274463D01*
X222230013Y-88542252D01*
X222457748Y-88769987D01*
X222725537Y-88948918D01*
X223023088Y-89072168D01*
X223338967Y-89135000D01*
X223661033Y-89135000D01*
X223976912Y-89072168D01*
X224274463Y-88948918D01*
X224542252Y-88769987D01*
X224769987Y-88542252D01*
X224948918Y-88274463D01*
X225072168Y-87976912D01*
X225135000Y-87661033D01*
X225135000Y-87338967D01*
X225072168Y-87023088D01*
X224948918Y-86725537D01*
X224769987Y-86457748D01*
X224542252Y-86230013D01*
X224274463Y-86051082D01*
X223976912Y-85927832D01*
X223661033Y-85865000D01*
X223338967Y-85865000D01*
X223023088Y-85927832D01*
X222725537Y-86051082D01*
X222457748Y-86230013D01*
X222230013Y-86457748D01*
X222051082Y-86725537D01*
X221927832Y-87023088D01*
X221865000Y-87338967D01*
X218635000Y-87338967D01*
X218572168Y-87023088D01*
X218448918Y-86725537D01*
X218269987Y-86457748D01*
X218042252Y-86230013D01*
X217774463Y-86051082D01*
X217476912Y-85927832D01*
X217161033Y-85865000D01*
X216838967Y-85865000D01*
X216523088Y-85927832D01*
X216225537Y-86051082D01*
X215957748Y-86230013D01*
X215730013Y-86457748D01*
X215551082Y-86725537D01*
X215427832Y-87023088D01*
X215365000Y-87338967D01*
X190685000Y-87338967D01*
X190685000Y-84400000D01*
X239511928Y-84400000D01*
X239511928Y-86100000D01*
X239524188Y-86224482D01*
X239560498Y-86344180D01*
X239619463Y-86454494D01*
X239698815Y-86551185D01*
X239795506Y-86630537D01*
X239905820Y-86689502D01*
X239978380Y-86711513D01*
X239846525Y-86843368D01*
X239684010Y-87086589D01*
X239572068Y-87356842D01*
X239515000Y-87643740D01*
X239515000Y-87936260D01*
X239572068Y-88223158D01*
X239684010Y-88493411D01*
X239846525Y-88736632D01*
X240053368Y-88943475D01*
X240227760Y-89060000D01*
X240053368Y-89176525D01*
X239846525Y-89383368D01*
X239684010Y-89626589D01*
X239572068Y-89896842D01*
X239515000Y-90183740D01*
X239515000Y-90476260D01*
X239572068Y-90763158D01*
X239684010Y-91033411D01*
X239846525Y-91276632D01*
X240053368Y-91483475D01*
X240227760Y-91600000D01*
X240053368Y-91716525D01*
X239846525Y-91923368D01*
X239684010Y-92166589D01*
X239572068Y-92436842D01*
X239515000Y-92723740D01*
X239515000Y-93016260D01*
X239572068Y-93303158D01*
X239684010Y-93573411D01*
X239846525Y-93816632D01*
X240053368Y-94023475D01*
X240227760Y-94140000D01*
X240053368Y-94256525D01*
X239846525Y-94463368D01*
X239684010Y-94706589D01*
X239572068Y-94976842D01*
X239515000Y-95263740D01*
X239515000Y-95556260D01*
X239572068Y-95843158D01*
X239684010Y-96113411D01*
X239846525Y-96356632D01*
X240053368Y-96563475D01*
X240227760Y-96680000D01*
X240053368Y-96796525D01*
X239846525Y-97003368D01*
X239684010Y-97246589D01*
X239572068Y-97516842D01*
X239515000Y-97803740D01*
X239515000Y-98096260D01*
X239572068Y-98383158D01*
X239684010Y-98653411D01*
X239846525Y-98896632D01*
X240053368Y-99103475D01*
X240235534Y-99225195D01*
X240118645Y-99294822D01*
X239902412Y-99489731D01*
X239728359Y-99723080D01*
X239603175Y-99985901D01*
X239558524Y-100133110D01*
X239679845Y-100363000D01*
X240873000Y-100363000D01*
X240873000Y-100343000D01*
X241127000Y-100343000D01*
X241127000Y-100363000D01*
X242320155Y-100363000D01*
X242441476Y-100133110D01*
X242396825Y-99985901D01*
X242271641Y-99723080D01*
X242097588Y-99489731D01*
X241881355Y-99294822D01*
X241764466Y-99225195D01*
X241946632Y-99103475D01*
X242153475Y-98896632D01*
X242315990Y-98653411D01*
X242427932Y-98383158D01*
X242485000Y-98096260D01*
X242485000Y-97803740D01*
X242427932Y-97516842D01*
X242315990Y-97246589D01*
X242153475Y-97003368D01*
X241946632Y-96796525D01*
X241772240Y-96680000D01*
X241946632Y-96563475D01*
X242153475Y-96356632D01*
X242315990Y-96113411D01*
X242427932Y-95843158D01*
X242485000Y-95556260D01*
X242485000Y-95263740D01*
X242427932Y-94976842D01*
X242315990Y-94706589D01*
X242153475Y-94463368D01*
X241946632Y-94256525D01*
X241772240Y-94140000D01*
X241946632Y-94023475D01*
X242153475Y-93816632D01*
X242315990Y-93573411D01*
X242427932Y-93303158D01*
X242485000Y-93016260D01*
X242485000Y-92723740D01*
X242427932Y-92436842D01*
X242315990Y-92166589D01*
X242153475Y-91923368D01*
X241946632Y-91716525D01*
X241772240Y-91600000D01*
X241946632Y-91483475D01*
X242153475Y-91276632D01*
X242315990Y-91033411D01*
X242427932Y-90763158D01*
X242485000Y-90476260D01*
X242485000Y-90183740D01*
X242427932Y-89896842D01*
X242315990Y-89626589D01*
X242153475Y-89383368D01*
X241946632Y-89176525D01*
X241772240Y-89060000D01*
X241946632Y-88943475D01*
X242153475Y-88736632D01*
X242315990Y-88493411D01*
X242427932Y-88223158D01*
X242485000Y-87936260D01*
X242485000Y-87643740D01*
X242427932Y-87356842D01*
X242315990Y-87086589D01*
X242153475Y-86843368D01*
X242021620Y-86711513D01*
X242094180Y-86689502D01*
X242204494Y-86630537D01*
X242301185Y-86551185D01*
X242380537Y-86454494D01*
X242439502Y-86344180D01*
X242475812Y-86224482D01*
X242488072Y-86100000D01*
X242488072Y-84400000D01*
X242475812Y-84275518D01*
X242439502Y-84155820D01*
X242380537Y-84045506D01*
X242301185Y-83948815D01*
X242204494Y-83869463D01*
X242094180Y-83810498D01*
X241974482Y-83774188D01*
X241850000Y-83761928D01*
X240150000Y-83761928D01*
X240025518Y-83774188D01*
X239905820Y-83810498D01*
X239795506Y-83869463D01*
X239698815Y-83948815D01*
X239619463Y-84045506D01*
X239560498Y-84155820D01*
X239524188Y-84275518D01*
X239511928Y-84400000D01*
X190685000Y-84400000D01*
X190685000Y-79400000D01*
X192511928Y-79400000D01*
X192511928Y-81100000D01*
X192524188Y-81224482D01*
X192560498Y-81344180D01*
X192619463Y-81454494D01*
X192698815Y-81551185D01*
X192795506Y-81630537D01*
X192905820Y-81689502D01*
X193025518Y-81725812D01*
X193150000Y-81738072D01*
X194850000Y-81738072D01*
X194974482Y-81725812D01*
X195094180Y-81689502D01*
X195204494Y-81630537D01*
X195301185Y-81551185D01*
X195380537Y-81454494D01*
X195439502Y-81344180D01*
X195475812Y-81224482D01*
X195488072Y-81100000D01*
X195488072Y-80398061D01*
X225215000Y-80398061D01*
X225215000Y-80601939D01*
X225254774Y-80801898D01*
X225332795Y-80990256D01*
X225446063Y-81159774D01*
X225590226Y-81303937D01*
X225759744Y-81417205D01*
X225948102Y-81495226D01*
X226148061Y-81535000D01*
X226351939Y-81535000D01*
X226551898Y-81495226D01*
X226740256Y-81417205D01*
X226909774Y-81303937D01*
X227053937Y-81159774D01*
X227167205Y-80990256D01*
X227245226Y-80801898D01*
X227285000Y-80601939D01*
X227285000Y-80398061D01*
X227245226Y-80198102D01*
X227167205Y-80009744D01*
X227053937Y-79840226D01*
X226909774Y-79696063D01*
X226740256Y-79582795D01*
X226551898Y-79504774D01*
X226351939Y-79465000D01*
X226148061Y-79465000D01*
X225948102Y-79504774D01*
X225759744Y-79582795D01*
X225590226Y-79696063D01*
X225446063Y-79840226D01*
X225332795Y-80009744D01*
X225254774Y-80198102D01*
X225215000Y-80398061D01*
X195488072Y-80398061D01*
X195488072Y-79400000D01*
X195475812Y-79275518D01*
X195439502Y-79155820D01*
X195423679Y-79126216D01*
X222986845Y-79126216D01*
X222986845Y-79330094D01*
X223026619Y-79530053D01*
X223104640Y-79718411D01*
X223217908Y-79887929D01*
X223362071Y-80032092D01*
X223531589Y-80145360D01*
X223719947Y-80223381D01*
X223919906Y-80263155D01*
X224123784Y-80263155D01*
X224323743Y-80223381D01*
X224512101Y-80145360D01*
X224681619Y-80032092D01*
X224825782Y-79887929D01*
X224939050Y-79718411D01*
X225017071Y-79530053D01*
X225056845Y-79330094D01*
X225056845Y-79126216D01*
X225017071Y-78926257D01*
X224939050Y-78737899D01*
X224880318Y-78650000D01*
X239511928Y-78650000D01*
X239511928Y-80350000D01*
X239524188Y-80474482D01*
X239560498Y-80594180D01*
X239619463Y-80704494D01*
X239698815Y-80801185D01*
X239795506Y-80880537D01*
X239905820Y-80939502D01*
X240025518Y-80975812D01*
X240150000Y-80988072D01*
X241850000Y-80988072D01*
X241974482Y-80975812D01*
X242094180Y-80939502D01*
X242204494Y-80880537D01*
X242301185Y-80801185D01*
X242380537Y-80704494D01*
X242439502Y-80594180D01*
X242475812Y-80474482D01*
X242488072Y-80350000D01*
X242488072Y-78650000D01*
X242475812Y-78525518D01*
X242439502Y-78405820D01*
X242380537Y-78295506D01*
X242301185Y-78198815D01*
X242204494Y-78119463D01*
X242094180Y-78060498D01*
X242021620Y-78038487D01*
X242153475Y-77906632D01*
X242315990Y-77663411D01*
X242427932Y-77393158D01*
X242485000Y-77106260D01*
X242485000Y-76813740D01*
X242427932Y-76526842D01*
X242315990Y-76256589D01*
X242153475Y-76013368D01*
X241946632Y-75806525D01*
X241772240Y-75690000D01*
X241946632Y-75573475D01*
X242153475Y-75366632D01*
X242315990Y-75123411D01*
X242427932Y-74853158D01*
X242485000Y-74566260D01*
X242485000Y-74273740D01*
X242427932Y-73986842D01*
X242315990Y-73716589D01*
X242153475Y-73473368D01*
X241946632Y-73266525D01*
X241772240Y-73150000D01*
X241946632Y-73033475D01*
X242153475Y-72826632D01*
X242315990Y-72583411D01*
X242427932Y-72313158D01*
X242485000Y-72026260D01*
X242485000Y-71733740D01*
X242427932Y-71446842D01*
X242315990Y-71176589D01*
X242153475Y-70933368D01*
X241946632Y-70726525D01*
X241772240Y-70610000D01*
X241946632Y-70493475D01*
X242153475Y-70286632D01*
X242315990Y-70043411D01*
X242427932Y-69773158D01*
X242485000Y-69486260D01*
X242485000Y-69193740D01*
X242427932Y-68906842D01*
X242315990Y-68636589D01*
X242153475Y-68393368D01*
X241946632Y-68186525D01*
X241703411Y-68024010D01*
X241433158Y-67912068D01*
X241146260Y-67855000D01*
X240853740Y-67855000D01*
X240566842Y-67912068D01*
X240296589Y-68024010D01*
X240053368Y-68186525D01*
X239846525Y-68393368D01*
X239684010Y-68636589D01*
X239572068Y-68906842D01*
X239515000Y-69193740D01*
X239515000Y-69486260D01*
X239572068Y-69773158D01*
X239684010Y-70043411D01*
X239846525Y-70286632D01*
X240053368Y-70493475D01*
X240227760Y-70610000D01*
X240053368Y-70726525D01*
X239846525Y-70933368D01*
X239684010Y-71176589D01*
X239572068Y-71446842D01*
X239515000Y-71733740D01*
X239515000Y-72026260D01*
X239572068Y-72313158D01*
X239684010Y-72583411D01*
X239846525Y-72826632D01*
X240053368Y-73033475D01*
X240227760Y-73150000D01*
X240053368Y-73266525D01*
X239846525Y-73473368D01*
X239684010Y-73716589D01*
X239572068Y-73986842D01*
X239515000Y-74273740D01*
X239515000Y-74566260D01*
X239572068Y-74853158D01*
X239684010Y-75123411D01*
X239846525Y-75366632D01*
X240053368Y-75573475D01*
X240227760Y-75690000D01*
X240053368Y-75806525D01*
X239846525Y-76013368D01*
X239684010Y-76256589D01*
X239572068Y-76526842D01*
X239515000Y-76813740D01*
X239515000Y-77106260D01*
X239572068Y-77393158D01*
X239684010Y-77663411D01*
X239846525Y-77906632D01*
X239978380Y-78038487D01*
X239905820Y-78060498D01*
X239795506Y-78119463D01*
X239698815Y-78198815D01*
X239619463Y-78295506D01*
X239560498Y-78405820D01*
X239524188Y-78525518D01*
X239511928Y-78650000D01*
X224880318Y-78650000D01*
X224825782Y-78568381D01*
X224681619Y-78424218D01*
X224512101Y-78310950D01*
X224323743Y-78232929D01*
X224123784Y-78193155D01*
X223919906Y-78193155D01*
X223719947Y-78232929D01*
X223531589Y-78310950D01*
X223362071Y-78424218D01*
X223217908Y-78568381D01*
X223104640Y-78737899D01*
X223026619Y-78926257D01*
X222986845Y-79126216D01*
X195423679Y-79126216D01*
X195380537Y-79045506D01*
X195301185Y-78948815D01*
X195204494Y-78869463D01*
X195094180Y-78810498D01*
X195021620Y-78788487D01*
X195153475Y-78656632D01*
X195315990Y-78413411D01*
X195427932Y-78143158D01*
X195485000Y-77856260D01*
X195485000Y-77563740D01*
X195452045Y-77398061D01*
X211215000Y-77398061D01*
X211215000Y-77601939D01*
X211254774Y-77801898D01*
X211332795Y-77990256D01*
X211446063Y-78159774D01*
X211590226Y-78303937D01*
X211759744Y-78417205D01*
X211948102Y-78495226D01*
X212148061Y-78535000D01*
X212351939Y-78535000D01*
X212551898Y-78495226D01*
X212740256Y-78417205D01*
X212909774Y-78303937D01*
X213053937Y-78159774D01*
X213167205Y-77990256D01*
X213245226Y-77801898D01*
X213285000Y-77601939D01*
X213285000Y-77398061D01*
X213245226Y-77198102D01*
X213167205Y-77009744D01*
X213053937Y-76840226D01*
X212909774Y-76696063D01*
X212740256Y-76582795D01*
X212551898Y-76504774D01*
X212351939Y-76465000D01*
X212148061Y-76465000D01*
X211948102Y-76504774D01*
X211759744Y-76582795D01*
X211590226Y-76696063D01*
X211446063Y-76840226D01*
X211332795Y-77009744D01*
X211254774Y-77198102D01*
X211215000Y-77398061D01*
X195452045Y-77398061D01*
X195427932Y-77276842D01*
X195315990Y-77006589D01*
X195153475Y-76763368D01*
X194946632Y-76556525D01*
X194772240Y-76440000D01*
X194946632Y-76323475D01*
X195153475Y-76116632D01*
X195315990Y-75873411D01*
X195427932Y-75603158D01*
X195485000Y-75316260D01*
X195485000Y-75023740D01*
X195427932Y-74736842D01*
X195315990Y-74466589D01*
X195153475Y-74223368D01*
X194946632Y-74016525D01*
X194703411Y-73854010D01*
X194433158Y-73742068D01*
X194146260Y-73685000D01*
X193853740Y-73685000D01*
X193566842Y-73742068D01*
X193296589Y-73854010D01*
X193053368Y-74016525D01*
X192846525Y-74223368D01*
X192684010Y-74466589D01*
X192572068Y-74736842D01*
X192515000Y-75023740D01*
X192515000Y-75316260D01*
X192572068Y-75603158D01*
X192684010Y-75873411D01*
X192846525Y-76116632D01*
X193053368Y-76323475D01*
X193227760Y-76440000D01*
X193053368Y-76556525D01*
X192846525Y-76763368D01*
X192684010Y-77006589D01*
X192572068Y-77276842D01*
X192515000Y-77563740D01*
X192515000Y-77856260D01*
X192572068Y-78143158D01*
X192684010Y-78413411D01*
X192846525Y-78656632D01*
X192978380Y-78788487D01*
X192905820Y-78810498D01*
X192795506Y-78869463D01*
X192698815Y-78948815D01*
X192619463Y-79045506D01*
X192560498Y-79155820D01*
X192524188Y-79275518D01*
X192511928Y-79400000D01*
X190685000Y-79400000D01*
X190685000Y-73648061D01*
X205715000Y-73648061D01*
X205715000Y-73851939D01*
X205754774Y-74051898D01*
X205832795Y-74240256D01*
X205946063Y-74409774D01*
X206090226Y-74553937D01*
X206259744Y-74667205D01*
X206448102Y-74745226D01*
X206648061Y-74785000D01*
X206851939Y-74785000D01*
X207051898Y-74745226D01*
X207240256Y-74667205D01*
X207268907Y-74648061D01*
X215715000Y-74648061D01*
X215715000Y-74851939D01*
X215754774Y-75051898D01*
X215832795Y-75240256D01*
X215946063Y-75409774D01*
X216090226Y-75553937D01*
X216259744Y-75667205D01*
X216448102Y-75745226D01*
X216648061Y-75785000D01*
X216851939Y-75785000D01*
X217051898Y-75745226D01*
X217240256Y-75667205D01*
X217409774Y-75553937D01*
X217553937Y-75409774D01*
X217667205Y-75240256D01*
X217745226Y-75051898D01*
X217785000Y-74851939D01*
X217785000Y-74648061D01*
X217745226Y-74448102D01*
X217667205Y-74259744D01*
X217553937Y-74090226D01*
X217409774Y-73946063D01*
X217240256Y-73832795D01*
X217051898Y-73754774D01*
X216851939Y-73715000D01*
X216648061Y-73715000D01*
X216448102Y-73754774D01*
X216259744Y-73832795D01*
X216090226Y-73946063D01*
X215946063Y-74090226D01*
X215832795Y-74259744D01*
X215754774Y-74448102D01*
X215715000Y-74648061D01*
X207268907Y-74648061D01*
X207409774Y-74553937D01*
X207553937Y-74409774D01*
X207667205Y-74240256D01*
X207745226Y-74051898D01*
X207785000Y-73851939D01*
X207785000Y-73648061D01*
X207745226Y-73448102D01*
X207667205Y-73259744D01*
X207553937Y-73090226D01*
X207409774Y-72946063D01*
X207240256Y-72832795D01*
X207051898Y-72754774D01*
X206851939Y-72715000D01*
X206648061Y-72715000D01*
X206448102Y-72754774D01*
X206259744Y-72832795D01*
X206090226Y-72946063D01*
X205946063Y-73090226D01*
X205832795Y-73259744D01*
X205754774Y-73448102D01*
X205715000Y-73648061D01*
X190685000Y-73648061D01*
X190685000Y-71898061D01*
X216215000Y-71898061D01*
X216215000Y-72101939D01*
X216254774Y-72301898D01*
X216332795Y-72490256D01*
X216446063Y-72659774D01*
X216590226Y-72803937D01*
X216759744Y-72917205D01*
X216948102Y-72995226D01*
X217148061Y-73035000D01*
X217351939Y-73035000D01*
X217551898Y-72995226D01*
X217740256Y-72917205D01*
X217909774Y-72803937D01*
X218053937Y-72659774D01*
X218061763Y-72648061D01*
X219715000Y-72648061D01*
X219715000Y-72851939D01*
X219754774Y-73051898D01*
X219832795Y-73240256D01*
X219946063Y-73409774D01*
X220090226Y-73553937D01*
X220259744Y-73667205D01*
X220448102Y-73745226D01*
X220648061Y-73785000D01*
X220751289Y-73785000D01*
X220696063Y-73840226D01*
X220582795Y-74009744D01*
X220504774Y-74198102D01*
X220465000Y-74398061D01*
X220465000Y-74601939D01*
X220504774Y-74801898D01*
X220582795Y-74990256D01*
X220696063Y-75159774D01*
X220840226Y-75303937D01*
X221009744Y-75417205D01*
X221198102Y-75495226D01*
X221398061Y-75535000D01*
X221601939Y-75535000D01*
X221801898Y-75495226D01*
X221990256Y-75417205D01*
X222159774Y-75303937D01*
X222303937Y-75159774D01*
X222417205Y-74990256D01*
X222495226Y-74801898D01*
X222535000Y-74601939D01*
X222535000Y-74398061D01*
X222965000Y-74398061D01*
X222965000Y-74601939D01*
X223004774Y-74801898D01*
X223082795Y-74990256D01*
X223196063Y-75159774D01*
X223340226Y-75303937D01*
X223509744Y-75417205D01*
X223698102Y-75495226D01*
X223898061Y-75535000D01*
X224101939Y-75535000D01*
X224301898Y-75495226D01*
X224490256Y-75417205D01*
X224659774Y-75303937D01*
X224803937Y-75159774D01*
X224917205Y-74990256D01*
X224995226Y-74801898D01*
X225035000Y-74601939D01*
X225035000Y-74398061D01*
X224995226Y-74198102D01*
X224917205Y-74009744D01*
X224803937Y-73840226D01*
X224659774Y-73696063D01*
X224490256Y-73582795D01*
X224301898Y-73504774D01*
X224101939Y-73465000D01*
X223898061Y-73465000D01*
X223698102Y-73504774D01*
X223509744Y-73582795D01*
X223340226Y-73696063D01*
X223196063Y-73840226D01*
X223082795Y-74009744D01*
X223004774Y-74198102D01*
X222965000Y-74398061D01*
X222535000Y-74398061D01*
X222495226Y-74198102D01*
X222417205Y-74009744D01*
X222303937Y-73840226D01*
X222159774Y-73696063D01*
X221990256Y-73582795D01*
X221801898Y-73504774D01*
X221601939Y-73465000D01*
X221498711Y-73465000D01*
X221553937Y-73409774D01*
X221667205Y-73240256D01*
X221745226Y-73051898D01*
X221785000Y-72851939D01*
X221785000Y-72648061D01*
X221745226Y-72448102D01*
X221667205Y-72259744D01*
X221553937Y-72090226D01*
X221409774Y-71946063D01*
X221240256Y-71832795D01*
X221051898Y-71754774D01*
X220851939Y-71715000D01*
X220648061Y-71715000D01*
X220448102Y-71754774D01*
X220259744Y-71832795D01*
X220090226Y-71946063D01*
X219946063Y-72090226D01*
X219832795Y-72259744D01*
X219754774Y-72448102D01*
X219715000Y-72648061D01*
X218061763Y-72648061D01*
X218167205Y-72490256D01*
X218245226Y-72301898D01*
X218285000Y-72101939D01*
X218285000Y-71898061D01*
X218245226Y-71698102D01*
X218167205Y-71509744D01*
X218053937Y-71340226D01*
X217909774Y-71196063D01*
X217740256Y-71082795D01*
X217551898Y-71004774D01*
X217351939Y-70965000D01*
X217148061Y-70965000D01*
X216948102Y-71004774D01*
X216759744Y-71082795D01*
X216590226Y-71196063D01*
X216446063Y-71340226D01*
X216332795Y-71509744D01*
X216254774Y-71698102D01*
X216215000Y-71898061D01*
X190685000Y-71898061D01*
X190685000Y-70476890D01*
X192558524Y-70476890D01*
X192603175Y-70624099D01*
X192728359Y-70886920D01*
X192902412Y-71120269D01*
X193118645Y-71315178D01*
X193368748Y-71464157D01*
X193643109Y-71561481D01*
X193873000Y-71440814D01*
X193873000Y-70247000D01*
X192679845Y-70247000D01*
X192558524Y-70476890D01*
X190685000Y-70476890D01*
X190685000Y-67936890D01*
X192558524Y-67936890D01*
X192603175Y-68084099D01*
X192728359Y-68346920D01*
X192902412Y-68580269D01*
X193118645Y-68775178D01*
X193244255Y-68850000D01*
X193118645Y-68924822D01*
X192902412Y-69119731D01*
X192728359Y-69353080D01*
X192603175Y-69615901D01*
X192558524Y-69763110D01*
X192679845Y-69993000D01*
X193873000Y-69993000D01*
X193873000Y-67707000D01*
X192679845Y-67707000D01*
X192558524Y-67936890D01*
X190685000Y-67936890D01*
X190685000Y-61650000D01*
X192511928Y-61650000D01*
X192511928Y-63350000D01*
X192524188Y-63474482D01*
X192560498Y-63594180D01*
X192619463Y-63704494D01*
X192698815Y-63801185D01*
X192795506Y-63880537D01*
X192905820Y-63939502D01*
X192978380Y-63961513D01*
X192846525Y-64093368D01*
X192684010Y-64336589D01*
X192572068Y-64606842D01*
X192515000Y-64893740D01*
X192515000Y-65186260D01*
X192572068Y-65473158D01*
X192684010Y-65743411D01*
X192846525Y-65986632D01*
X193053368Y-66193475D01*
X193235534Y-66315195D01*
X193118645Y-66384822D01*
X192902412Y-66579731D01*
X192728359Y-66813080D01*
X192603175Y-67075901D01*
X192558524Y-67223110D01*
X192679845Y-67453000D01*
X193873000Y-67453000D01*
X193873000Y-67433000D01*
X194127000Y-67433000D01*
X194127000Y-67453000D01*
X194147000Y-67453000D01*
X194147000Y-67707000D01*
X194127000Y-67707000D01*
X194127000Y-69993000D01*
X194147000Y-69993000D01*
X194147000Y-70247000D01*
X194127000Y-70247000D01*
X194127000Y-71440814D01*
X194356891Y-71561481D01*
X194631252Y-71464157D01*
X194881355Y-71315178D01*
X195097588Y-71120269D01*
X195268900Y-70890594D01*
X195386525Y-71066632D01*
X195593368Y-71273475D01*
X195836589Y-71435990D01*
X196106842Y-71547932D01*
X196393740Y-71605000D01*
X196686260Y-71605000D01*
X196973158Y-71547932D01*
X197243411Y-71435990D01*
X197486632Y-71273475D01*
X197693475Y-71066632D01*
X197855990Y-70823411D01*
X197967932Y-70553158D01*
X198025000Y-70266260D01*
X198025000Y-69973740D01*
X198009947Y-69898061D01*
X201465000Y-69898061D01*
X201465000Y-70101939D01*
X201504774Y-70301898D01*
X201582795Y-70490256D01*
X201696063Y-70659774D01*
X201840226Y-70803937D01*
X202009744Y-70917205D01*
X202198102Y-70995226D01*
X202398061Y-71035000D01*
X202601939Y-71035000D01*
X202801898Y-70995226D01*
X202990256Y-70917205D01*
X203159774Y-70803937D01*
X203303937Y-70659774D01*
X203417205Y-70490256D01*
X203495226Y-70301898D01*
X203535000Y-70101939D01*
X203535000Y-69898061D01*
X203495226Y-69698102D01*
X203417205Y-69509744D01*
X203303937Y-69340226D01*
X203159774Y-69196063D01*
X202990256Y-69082795D01*
X202801898Y-69004774D01*
X202601939Y-68965000D01*
X202398061Y-68965000D01*
X202198102Y-69004774D01*
X202009744Y-69082795D01*
X201840226Y-69196063D01*
X201696063Y-69340226D01*
X201582795Y-69509744D01*
X201504774Y-69698102D01*
X201465000Y-69898061D01*
X198009947Y-69898061D01*
X197967932Y-69686842D01*
X197855990Y-69416589D01*
X197693475Y-69173368D01*
X197486632Y-68966525D01*
X197312240Y-68850000D01*
X197486632Y-68733475D01*
X197693475Y-68526632D01*
X197855990Y-68283411D01*
X197967932Y-68013158D01*
X198025000Y-67726260D01*
X198025000Y-67433740D01*
X198017903Y-67398061D01*
X215965000Y-67398061D01*
X215965000Y-67601939D01*
X216004774Y-67801898D01*
X216082795Y-67990256D01*
X216196063Y-68159774D01*
X216340226Y-68303937D01*
X216509744Y-68417205D01*
X216698102Y-68495226D01*
X216898061Y-68535000D01*
X217101939Y-68535000D01*
X217301898Y-68495226D01*
X217490256Y-68417205D01*
X217659774Y-68303937D01*
X217803937Y-68159774D01*
X217917205Y-67990256D01*
X217955393Y-67898061D01*
X222215000Y-67898061D01*
X222215000Y-68101939D01*
X222254774Y-68301898D01*
X222332795Y-68490256D01*
X222422828Y-68625000D01*
X222332795Y-68759744D01*
X222254774Y-68948102D01*
X222215000Y-69148061D01*
X222215000Y-69351939D01*
X222254774Y-69551898D01*
X222332795Y-69740256D01*
X222422828Y-69875000D01*
X222332795Y-70009744D01*
X222254774Y-70198102D01*
X222215000Y-70398061D01*
X222215000Y-70601939D01*
X222254774Y-70801898D01*
X222332795Y-70990256D01*
X222446063Y-71159774D01*
X222590226Y-71303937D01*
X222759744Y-71417205D01*
X222948102Y-71495226D01*
X223148061Y-71535000D01*
X223351939Y-71535000D01*
X223551898Y-71495226D01*
X223740256Y-71417205D01*
X223909774Y-71303937D01*
X224053937Y-71159774D01*
X224167205Y-70990256D01*
X224245226Y-70801898D01*
X224285000Y-70601939D01*
X224285000Y-70398061D01*
X224245226Y-70198102D01*
X224167205Y-70009744D01*
X224077172Y-69875000D01*
X224167205Y-69740256D01*
X224245226Y-69551898D01*
X224285000Y-69351939D01*
X224285000Y-69148061D01*
X224245226Y-68948102D01*
X224167205Y-68759744D01*
X224077172Y-68625000D01*
X224167205Y-68490256D01*
X224245226Y-68301898D01*
X224285000Y-68101939D01*
X224285000Y-67898061D01*
X224245226Y-67698102D01*
X224167205Y-67509744D01*
X224053937Y-67340226D01*
X223909774Y-67196063D01*
X223740256Y-67082795D01*
X223551898Y-67004774D01*
X223351939Y-66965000D01*
X223148061Y-66965000D01*
X222948102Y-67004774D01*
X222759744Y-67082795D01*
X222590226Y-67196063D01*
X222446063Y-67340226D01*
X222332795Y-67509744D01*
X222254774Y-67698102D01*
X222215000Y-67898061D01*
X217955393Y-67898061D01*
X217995226Y-67801898D01*
X218035000Y-67601939D01*
X218035000Y-67398061D01*
X217995226Y-67198102D01*
X217917205Y-67009744D01*
X217803937Y-66840226D01*
X217659774Y-66696063D01*
X217490256Y-66582795D01*
X217301898Y-66504774D01*
X217101939Y-66465000D01*
X216898061Y-66465000D01*
X216698102Y-66504774D01*
X216509744Y-66582795D01*
X216340226Y-66696063D01*
X216196063Y-66840226D01*
X216082795Y-67009744D01*
X216004774Y-67198102D01*
X215965000Y-67398061D01*
X198017903Y-67398061D01*
X197967932Y-67146842D01*
X197855990Y-66876589D01*
X197693475Y-66633368D01*
X197486632Y-66426525D01*
X197312240Y-66310000D01*
X197486632Y-66193475D01*
X197582046Y-66098061D01*
X209965000Y-66098061D01*
X209965000Y-66301939D01*
X210004774Y-66501898D01*
X210082795Y-66690256D01*
X210196063Y-66859774D01*
X210340226Y-67003937D01*
X210509744Y-67117205D01*
X210698102Y-67195226D01*
X210898061Y-67235000D01*
X211101939Y-67235000D01*
X211301898Y-67195226D01*
X211490256Y-67117205D01*
X211659774Y-67003937D01*
X211700000Y-66963711D01*
X211740226Y-67003937D01*
X211909744Y-67117205D01*
X212098102Y-67195226D01*
X212298061Y-67235000D01*
X212501939Y-67235000D01*
X212701898Y-67195226D01*
X212890256Y-67117205D01*
X213059774Y-67003937D01*
X213200000Y-66863711D01*
X213340226Y-67003937D01*
X213509744Y-67117205D01*
X213698102Y-67195226D01*
X213898061Y-67235000D01*
X214101939Y-67235000D01*
X214301898Y-67195226D01*
X214490256Y-67117205D01*
X214659774Y-67003937D01*
X214803937Y-66859774D01*
X214917205Y-66690256D01*
X214995226Y-66501898D01*
X215035000Y-66301939D01*
X215035000Y-66098061D01*
X214995226Y-65898102D01*
X214917205Y-65709744D01*
X214803937Y-65540226D01*
X214659774Y-65396063D01*
X214490256Y-65282795D01*
X214301898Y-65204774D01*
X214101939Y-65165000D01*
X213898061Y-65165000D01*
X213698102Y-65204774D01*
X213509744Y-65282795D01*
X213340226Y-65396063D01*
X213200000Y-65536289D01*
X213059774Y-65396063D01*
X212890256Y-65282795D01*
X212701898Y-65204774D01*
X212501939Y-65165000D01*
X212298061Y-65165000D01*
X212098102Y-65204774D01*
X211909744Y-65282795D01*
X211740226Y-65396063D01*
X211700000Y-65436289D01*
X211659774Y-65396063D01*
X211490256Y-65282795D01*
X211301898Y-65204774D01*
X211101939Y-65165000D01*
X210898061Y-65165000D01*
X210698102Y-65204774D01*
X210509744Y-65282795D01*
X210340226Y-65396063D01*
X210196063Y-65540226D01*
X210082795Y-65709744D01*
X210004774Y-65898102D01*
X209965000Y-66098061D01*
X197582046Y-66098061D01*
X197693475Y-65986632D01*
X197855990Y-65743411D01*
X197967932Y-65473158D01*
X198025000Y-65186260D01*
X198025000Y-64893740D01*
X197976132Y-64648061D01*
X227965000Y-64648061D01*
X227965000Y-64851939D01*
X228004774Y-65051898D01*
X228082795Y-65240256D01*
X228196063Y-65409774D01*
X228340226Y-65553937D01*
X228509744Y-65667205D01*
X228698102Y-65745226D01*
X228898061Y-65785000D01*
X229101939Y-65785000D01*
X229301898Y-65745226D01*
X229490256Y-65667205D01*
X229659774Y-65553937D01*
X229750000Y-65463711D01*
X229840226Y-65553937D01*
X230009744Y-65667205D01*
X230198102Y-65745226D01*
X230398061Y-65785000D01*
X230601939Y-65785000D01*
X230801898Y-65745226D01*
X230990256Y-65667205D01*
X231159774Y-65553937D01*
X231250000Y-65463711D01*
X231340226Y-65553937D01*
X231509744Y-65667205D01*
X231698102Y-65745226D01*
X231898061Y-65785000D01*
X232101939Y-65785000D01*
X232301898Y-65745226D01*
X232490256Y-65667205D01*
X232659774Y-65553937D01*
X232750000Y-65463711D01*
X232840226Y-65553937D01*
X233009744Y-65667205D01*
X233198102Y-65745226D01*
X233398061Y-65785000D01*
X233601939Y-65785000D01*
X233801898Y-65745226D01*
X233990256Y-65667205D01*
X234159774Y-65553937D01*
X234303937Y-65409774D01*
X234417205Y-65240256D01*
X234495226Y-65051898D01*
X234535000Y-64851939D01*
X234535000Y-64648061D01*
X234495226Y-64448102D01*
X234417205Y-64259744D01*
X234303937Y-64090226D01*
X234159774Y-63946063D01*
X233990256Y-63832795D01*
X233801898Y-63754774D01*
X233601939Y-63715000D01*
X233398061Y-63715000D01*
X233198102Y-63754774D01*
X233009744Y-63832795D01*
X232840226Y-63946063D01*
X232750000Y-64036289D01*
X232659774Y-63946063D01*
X232490256Y-63832795D01*
X232301898Y-63754774D01*
X232101939Y-63715000D01*
X231898061Y-63715000D01*
X231698102Y-63754774D01*
X231509744Y-63832795D01*
X231340226Y-63946063D01*
X231250000Y-64036289D01*
X231159774Y-63946063D01*
X230990256Y-63832795D01*
X230801898Y-63754774D01*
X230601939Y-63715000D01*
X230398061Y-63715000D01*
X230198102Y-63754774D01*
X230009744Y-63832795D01*
X229840226Y-63946063D01*
X229750000Y-64036289D01*
X229659774Y-63946063D01*
X229490256Y-63832795D01*
X229301898Y-63754774D01*
X229101939Y-63715000D01*
X228898061Y-63715000D01*
X228698102Y-63754774D01*
X228509744Y-63832795D01*
X228340226Y-63946063D01*
X228196063Y-64090226D01*
X228082795Y-64259744D01*
X228004774Y-64448102D01*
X227965000Y-64648061D01*
X197976132Y-64648061D01*
X197967932Y-64606842D01*
X197855990Y-64336589D01*
X197693475Y-64093368D01*
X197486632Y-63886525D01*
X197312240Y-63770000D01*
X197486632Y-63653475D01*
X197693475Y-63446632D01*
X197855990Y-63203411D01*
X197967932Y-62933158D01*
X198025000Y-62646260D01*
X198025000Y-62353740D01*
X197967932Y-62066842D01*
X197855990Y-61796589D01*
X197693475Y-61553368D01*
X197486632Y-61346525D01*
X197243411Y-61184010D01*
X196973158Y-61072068D01*
X196686260Y-61015000D01*
X196393740Y-61015000D01*
X196106842Y-61072068D01*
X195836589Y-61184010D01*
X195593368Y-61346525D01*
X195461513Y-61478380D01*
X195439502Y-61405820D01*
X195380537Y-61295506D01*
X195301185Y-61198815D01*
X195204494Y-61119463D01*
X195094180Y-61060498D01*
X194974482Y-61024188D01*
X194850000Y-61011928D01*
X193150000Y-61011928D01*
X193025518Y-61024188D01*
X192905820Y-61060498D01*
X192795506Y-61119463D01*
X192698815Y-61198815D01*
X192619463Y-61295506D01*
X192560498Y-61405820D01*
X192524188Y-61525518D01*
X192511928Y-61650000D01*
X190685000Y-61650000D01*
X190685000Y-60898061D01*
X200165000Y-60898061D01*
X200165000Y-61101939D01*
X200204774Y-61301898D01*
X200282795Y-61490256D01*
X200396063Y-61659774D01*
X200540226Y-61803937D01*
X200709744Y-61917205D01*
X200898102Y-61995226D01*
X201098061Y-62035000D01*
X201301939Y-62035000D01*
X201501898Y-61995226D01*
X201690256Y-61917205D01*
X201859774Y-61803937D01*
X202003937Y-61659774D01*
X202117205Y-61490256D01*
X202173752Y-61353740D01*
X231935000Y-61353740D01*
X231935000Y-61646260D01*
X231992068Y-61933158D01*
X232104010Y-62203411D01*
X232266525Y-62446632D01*
X232473368Y-62653475D01*
X232716589Y-62815990D01*
X232986842Y-62927932D01*
X233273740Y-62985000D01*
X233566260Y-62985000D01*
X233853158Y-62927932D01*
X234123411Y-62815990D01*
X234366632Y-62653475D01*
X234573475Y-62446632D01*
X234690000Y-62272240D01*
X234806525Y-62446632D01*
X235013368Y-62653475D01*
X235256589Y-62815990D01*
X235526842Y-62927932D01*
X235813740Y-62985000D01*
X236106260Y-62985000D01*
X236393158Y-62927932D01*
X236663411Y-62815990D01*
X236906632Y-62653475D01*
X237113475Y-62446632D01*
X237230000Y-62272240D01*
X237346525Y-62446632D01*
X237553368Y-62653475D01*
X237796589Y-62815990D01*
X238066842Y-62927932D01*
X238353740Y-62985000D01*
X238646260Y-62985000D01*
X238933158Y-62927932D01*
X239203411Y-62815990D01*
X239446632Y-62653475D01*
X239578487Y-62521620D01*
X239600498Y-62594180D01*
X239659463Y-62704494D01*
X239738815Y-62801185D01*
X239835506Y-62880537D01*
X239945820Y-62939502D01*
X240065518Y-62975812D01*
X240190000Y-62988072D01*
X241890000Y-62988072D01*
X242014482Y-62975812D01*
X242134180Y-62939502D01*
X242244494Y-62880537D01*
X242341185Y-62801185D01*
X242420537Y-62704494D01*
X242479502Y-62594180D01*
X242515812Y-62474482D01*
X242528072Y-62350000D01*
X242528072Y-60650000D01*
X242515812Y-60525518D01*
X242479502Y-60405820D01*
X242420537Y-60295506D01*
X242341185Y-60198815D01*
X242244494Y-60119463D01*
X242134180Y-60060498D01*
X242014482Y-60024188D01*
X241890000Y-60011928D01*
X240190000Y-60011928D01*
X240065518Y-60024188D01*
X239945820Y-60060498D01*
X239835506Y-60119463D01*
X239738815Y-60198815D01*
X239659463Y-60295506D01*
X239600498Y-60405820D01*
X239578487Y-60478380D01*
X239446632Y-60346525D01*
X239203411Y-60184010D01*
X238933158Y-60072068D01*
X238646260Y-60015000D01*
X238353740Y-60015000D01*
X238066842Y-60072068D01*
X237796589Y-60184010D01*
X237553368Y-60346525D01*
X237346525Y-60553368D01*
X237230000Y-60727760D01*
X237113475Y-60553368D01*
X236906632Y-60346525D01*
X236663411Y-60184010D01*
X236393158Y-60072068D01*
X236106260Y-60015000D01*
X235813740Y-60015000D01*
X235526842Y-60072068D01*
X235256589Y-60184010D01*
X235013368Y-60346525D01*
X234806525Y-60553368D01*
X234690000Y-60727760D01*
X234573475Y-60553368D01*
X234366632Y-60346525D01*
X234123411Y-60184010D01*
X233853158Y-60072068D01*
X233566260Y-60015000D01*
X233273740Y-60015000D01*
X232986842Y-60072068D01*
X232716589Y-60184010D01*
X232473368Y-60346525D01*
X232266525Y-60553368D01*
X232104010Y-60796589D01*
X231992068Y-61066842D01*
X231935000Y-61353740D01*
X202173752Y-61353740D01*
X202195226Y-61301898D01*
X202235000Y-61101939D01*
X202235000Y-60898061D01*
X202195226Y-60698102D01*
X202117205Y-60509744D01*
X202003937Y-60340226D01*
X201859774Y-60196063D01*
X201690256Y-60082795D01*
X201501898Y-60004774D01*
X201301939Y-59965000D01*
X201098061Y-59965000D01*
X200898102Y-60004774D01*
X200709744Y-60082795D01*
X200540226Y-60196063D01*
X200396063Y-60340226D01*
X200282795Y-60509744D01*
X200204774Y-60698102D01*
X200165000Y-60898061D01*
X190685000Y-60898061D01*
X190685000Y-56401633D01*
X213740472Y-56401633D01*
X213802965Y-56637950D01*
X214045678Y-56751350D01*
X214305849Y-56815219D01*
X214573482Y-56827104D01*
X214838291Y-56786548D01*
X215090100Y-56695109D01*
X215197035Y-56637950D01*
X215259528Y-56401633D01*
X218740472Y-56401633D01*
X218802965Y-56637950D01*
X219045678Y-56751350D01*
X219305849Y-56815219D01*
X219573482Y-56827104D01*
X219838291Y-56786548D01*
X220090100Y-56695109D01*
X220197035Y-56637950D01*
X220259528Y-56401633D01*
X219500000Y-55642105D01*
X218740472Y-56401633D01*
X215259528Y-56401633D01*
X214500000Y-55642105D01*
X213740472Y-56401633D01*
X190685000Y-56401633D01*
X190685000Y-55491653D01*
X192687952Y-55491653D01*
X192843962Y-55807214D01*
X193218745Y-55998020D01*
X193623551Y-56112044D01*
X194042824Y-56144902D01*
X194460451Y-56095334D01*
X194860383Y-55965243D01*
X195156038Y-55807214D01*
X195290132Y-55535982D01*
X213135396Y-55535982D01*
X213175952Y-55800791D01*
X213267391Y-56052600D01*
X213324550Y-56159535D01*
X213560867Y-56222028D01*
X214320395Y-55462500D01*
X214679605Y-55462500D01*
X215439133Y-56222028D01*
X215675450Y-56159535D01*
X215788850Y-55916822D01*
X215852719Y-55656651D01*
X215858077Y-55535982D01*
X218135396Y-55535982D01*
X218175952Y-55800791D01*
X218267391Y-56052600D01*
X218324550Y-56159535D01*
X218560867Y-56222028D01*
X219320395Y-55462500D01*
X219679605Y-55462500D01*
X220439133Y-56222028D01*
X220675450Y-56159535D01*
X220788850Y-55916822D01*
X220852719Y-55656651D01*
X220855287Y-55598816D01*
X223988000Y-55598816D01*
X223988000Y-55901184D01*
X224046989Y-56197743D01*
X224162701Y-56477095D01*
X224330688Y-56728505D01*
X224544495Y-56942312D01*
X224795905Y-57110299D01*
X225075257Y-57226011D01*
X225371816Y-57285000D01*
X225674184Y-57285000D01*
X225970743Y-57226011D01*
X226250095Y-57110299D01*
X226501505Y-56942312D01*
X226602500Y-56841317D01*
X226703495Y-56942312D01*
X226954905Y-57110299D01*
X227234257Y-57226011D01*
X227530816Y-57285000D01*
X227833184Y-57285000D01*
X228129743Y-57226011D01*
X228409095Y-57110299D01*
X228660505Y-56942312D01*
X228756683Y-56846135D01*
X228840578Y-56930030D01*
X228956526Y-56814082D01*
X229040208Y-57068261D01*
X229312775Y-57199158D01*
X229605642Y-57274365D01*
X229907553Y-57290991D01*
X230206907Y-57248397D01*
X230492199Y-57148222D01*
X230627892Y-57075691D01*
X230648815Y-57101185D01*
X230745506Y-57180537D01*
X230855820Y-57239502D01*
X230975518Y-57275812D01*
X231100000Y-57288072D01*
X232900000Y-57288072D01*
X233024482Y-57275812D01*
X233144180Y-57239502D01*
X233254494Y-57180537D01*
X233351185Y-57101185D01*
X233430537Y-57004494D01*
X233489502Y-56894180D01*
X233525812Y-56774482D01*
X233538072Y-56650000D01*
X233538072Y-54850000D01*
X233525812Y-54725518D01*
X233489502Y-54605820D01*
X233430537Y-54495506D01*
X233351185Y-54398815D01*
X233254494Y-54319463D01*
X233144180Y-54260498D01*
X233024482Y-54224188D01*
X232900000Y-54211928D01*
X231100000Y-54211928D01*
X230975518Y-54224188D01*
X230855820Y-54260498D01*
X230745506Y-54319463D01*
X230648815Y-54398815D01*
X230627448Y-54424851D01*
X230369225Y-54300842D01*
X230076358Y-54225635D01*
X229774447Y-54209009D01*
X229475093Y-54251603D01*
X229189801Y-54351778D01*
X229040208Y-54431739D01*
X228956526Y-54685918D01*
X228840578Y-54569970D01*
X228756683Y-54653866D01*
X228660505Y-54557688D01*
X228409095Y-54389701D01*
X228129743Y-54273989D01*
X227833184Y-54215000D01*
X227530816Y-54215000D01*
X227234257Y-54273989D01*
X226954905Y-54389701D01*
X226703495Y-54557688D01*
X226602500Y-54658683D01*
X226501505Y-54557688D01*
X226250095Y-54389701D01*
X225970743Y-54273989D01*
X225674184Y-54215000D01*
X225371816Y-54215000D01*
X225075257Y-54273989D01*
X224795905Y-54389701D01*
X224544495Y-54557688D01*
X224330688Y-54771495D01*
X224162701Y-55022905D01*
X224046989Y-55302257D01*
X223988000Y-55598816D01*
X220855287Y-55598816D01*
X220864604Y-55389018D01*
X220824048Y-55124209D01*
X220732609Y-54872400D01*
X220675450Y-54765465D01*
X220439133Y-54702972D01*
X219679605Y-55462500D01*
X219320395Y-55462500D01*
X218560867Y-54702972D01*
X218324550Y-54765465D01*
X218211150Y-55008178D01*
X218147281Y-55268349D01*
X218135396Y-55535982D01*
X215858077Y-55535982D01*
X215864604Y-55389018D01*
X215824048Y-55124209D01*
X215732609Y-54872400D01*
X215675450Y-54765465D01*
X215439133Y-54702972D01*
X214679605Y-55462500D01*
X214320395Y-55462500D01*
X213560867Y-54702972D01*
X213324550Y-54765465D01*
X213211150Y-55008178D01*
X213147281Y-55268349D01*
X213135396Y-55535982D01*
X195290132Y-55535982D01*
X195312048Y-55491653D01*
X194000000Y-54179605D01*
X192687952Y-55491653D01*
X190685000Y-55491653D01*
X190685000Y-54042824D01*
X191855098Y-54042824D01*
X191904666Y-54460451D01*
X192034757Y-54860383D01*
X192192786Y-55156038D01*
X192508347Y-55312048D01*
X193820395Y-54000000D01*
X194179605Y-54000000D01*
X195491653Y-55312048D01*
X195807214Y-55156038D01*
X195998020Y-54781255D01*
X196112044Y-54376449D01*
X196144902Y-53957176D01*
X196095334Y-53539549D01*
X196074953Y-53476890D01*
X198550048Y-53476890D01*
X198550048Y-53723110D01*
X198598083Y-53964598D01*
X198692307Y-54192074D01*
X198829099Y-54396798D01*
X199003202Y-54570901D01*
X199207926Y-54707693D01*
X199435402Y-54801917D01*
X199676890Y-54849952D01*
X199923110Y-54849952D01*
X200164598Y-54801917D01*
X200392074Y-54707693D01*
X200596798Y-54570901D01*
X200770901Y-54396798D01*
X200907693Y-54192074D01*
X201001917Y-53964598D01*
X201049952Y-53723110D01*
X201049952Y-53476890D01*
X201001917Y-53235402D01*
X200907693Y-53007926D01*
X200828564Y-52889500D01*
X212265000Y-52889500D01*
X212265000Y-53239500D01*
X212313507Y-53477996D01*
X212407610Y-53702446D01*
X212543693Y-53904225D01*
X212716526Y-54075578D01*
X212919467Y-54209921D01*
X213144718Y-54302091D01*
X213182391Y-54305962D01*
X213373000Y-54181231D01*
X213373000Y-52889500D01*
X213627000Y-52889500D01*
X213627000Y-54181231D01*
X213800862Y-54295003D01*
X213740472Y-54523367D01*
X214500000Y-55282895D01*
X215259528Y-54523367D01*
X218740472Y-54523367D01*
X219500000Y-55282895D01*
X220259528Y-54523367D01*
X220199138Y-54295003D01*
X220373000Y-54181231D01*
X220373000Y-52889500D01*
X220627000Y-52889500D01*
X220627000Y-54181231D01*
X220817609Y-54305962D01*
X220855282Y-54302091D01*
X221080533Y-54209921D01*
X221283474Y-54075578D01*
X221456307Y-53904225D01*
X221592390Y-53702446D01*
X221686493Y-53477996D01*
X221727395Y-53276890D01*
X234526048Y-53276890D01*
X234526048Y-53523110D01*
X234574083Y-53764598D01*
X234668307Y-53992074D01*
X234805099Y-54196798D01*
X234979202Y-54370901D01*
X235183926Y-54507693D01*
X235411402Y-54601917D01*
X235652890Y-54649952D01*
X235899110Y-54649952D01*
X236140598Y-54601917D01*
X236368074Y-54507693D01*
X236572798Y-54370901D01*
X236746901Y-54196798D01*
X236883693Y-53992074D01*
X236967510Y-53789721D01*
X237865000Y-53789721D01*
X237865000Y-54210279D01*
X237947047Y-54622756D01*
X238107988Y-55011302D01*
X238341637Y-55360983D01*
X238639017Y-55658363D01*
X238988698Y-55892012D01*
X239377244Y-56052953D01*
X239789721Y-56135000D01*
X240210279Y-56135000D01*
X240622756Y-56052953D01*
X241011302Y-55892012D01*
X241360983Y-55658363D01*
X241658363Y-55360983D01*
X241892012Y-55011302D01*
X242052953Y-54622756D01*
X242135000Y-54210279D01*
X242135000Y-53789721D01*
X242052953Y-53377244D01*
X241892012Y-52988698D01*
X241658363Y-52639017D01*
X241360983Y-52341637D01*
X241011302Y-52107988D01*
X240622756Y-51947047D01*
X240210279Y-51865000D01*
X239789721Y-51865000D01*
X239377244Y-51947047D01*
X238988698Y-52107988D01*
X238639017Y-52341637D01*
X238341637Y-52639017D01*
X238107988Y-52988698D01*
X237947047Y-53377244D01*
X237865000Y-53789721D01*
X236967510Y-53789721D01*
X236977917Y-53764598D01*
X237025952Y-53523110D01*
X237025952Y-53276890D01*
X236977917Y-53035402D01*
X236883693Y-52807926D01*
X236746901Y-52603202D01*
X236572798Y-52429099D01*
X236368074Y-52292307D01*
X236140598Y-52198083D01*
X235899110Y-52150048D01*
X235652890Y-52150048D01*
X235411402Y-52198083D01*
X235183926Y-52292307D01*
X234979202Y-52429099D01*
X234805099Y-52603202D01*
X234668307Y-52807926D01*
X234574083Y-53035402D01*
X234526048Y-53276890D01*
X221727395Y-53276890D01*
X221735000Y-53239500D01*
X221735000Y-52889500D01*
X220627000Y-52889500D01*
X220373000Y-52889500D01*
X219265000Y-52889500D01*
X219265000Y-53239500D01*
X219313507Y-53477996D01*
X219407610Y-53702446D01*
X219543693Y-53904225D01*
X219716526Y-54075578D01*
X219811836Y-54138671D01*
X219694151Y-54109781D01*
X219426518Y-54097896D01*
X219161709Y-54138452D01*
X218909900Y-54229891D01*
X218802965Y-54287050D01*
X218740472Y-54523367D01*
X215259528Y-54523367D01*
X215197035Y-54287050D01*
X214954322Y-54173650D01*
X214694151Y-54109781D01*
X214426518Y-54097896D01*
X214196558Y-54133115D01*
X214283474Y-54075578D01*
X214456307Y-53904225D01*
X214592390Y-53702446D01*
X214686493Y-53477996D01*
X214735000Y-53239500D01*
X214735000Y-52889500D01*
X213627000Y-52889500D01*
X213373000Y-52889500D01*
X212265000Y-52889500D01*
X200828564Y-52889500D01*
X200770901Y-52803202D01*
X200596798Y-52629099D01*
X200392074Y-52492307D01*
X200164598Y-52398083D01*
X199923110Y-52350048D01*
X199676890Y-52350048D01*
X199435402Y-52398083D01*
X199207926Y-52492307D01*
X199003202Y-52629099D01*
X198829099Y-52803202D01*
X198692307Y-53007926D01*
X198598083Y-53235402D01*
X198550048Y-53476890D01*
X196074953Y-53476890D01*
X195965243Y-53139617D01*
X195807214Y-52843962D01*
X195491653Y-52687952D01*
X194179605Y-54000000D01*
X193820395Y-54000000D01*
X192508347Y-52687952D01*
X192192786Y-52843962D01*
X192001980Y-53218745D01*
X191887956Y-53623551D01*
X191855098Y-54042824D01*
X190685000Y-54042824D01*
X190685000Y-52508347D01*
X192687952Y-52508347D01*
X194000000Y-53820395D01*
X195312048Y-52508347D01*
X195201875Y-52285500D01*
X212265000Y-52285500D01*
X212265000Y-52635500D01*
X213373000Y-52635500D01*
X213373000Y-51343769D01*
X213627000Y-51343769D01*
X213627000Y-52635500D01*
X214735000Y-52635500D01*
X214735000Y-52285500D01*
X219265000Y-52285500D01*
X219265000Y-52635500D01*
X220373000Y-52635500D01*
X220373000Y-51343769D01*
X220627000Y-51343769D01*
X220627000Y-52635500D01*
X221735000Y-52635500D01*
X221735000Y-52285500D01*
X221686493Y-52047004D01*
X221592390Y-51822554D01*
X221456307Y-51620775D01*
X221283474Y-51449422D01*
X221080533Y-51315079D01*
X220855282Y-51222909D01*
X220817609Y-51219038D01*
X220627000Y-51343769D01*
X220373000Y-51343769D01*
X220182391Y-51219038D01*
X220144718Y-51222909D01*
X219919467Y-51315079D01*
X219716526Y-51449422D01*
X219543693Y-51620775D01*
X219407610Y-51822554D01*
X219313507Y-52047004D01*
X219265000Y-52285500D01*
X214735000Y-52285500D01*
X214686493Y-52047004D01*
X214592390Y-51822554D01*
X214456307Y-51620775D01*
X214283474Y-51449422D01*
X214080533Y-51315079D01*
X213855282Y-51222909D01*
X213817609Y-51219038D01*
X213627000Y-51343769D01*
X213373000Y-51343769D01*
X213182391Y-51219038D01*
X213144718Y-51222909D01*
X212919467Y-51315079D01*
X212716526Y-51449422D01*
X212543693Y-51620775D01*
X212407610Y-51822554D01*
X212313507Y-52047004D01*
X212265000Y-52285500D01*
X195201875Y-52285500D01*
X195156038Y-52192786D01*
X194781255Y-52001980D01*
X194376449Y-51887956D01*
X193957176Y-51855098D01*
X193539549Y-51904666D01*
X193139617Y-52034757D01*
X192843962Y-52192786D01*
X192687952Y-52508347D01*
X190685000Y-52508347D01*
X190685000Y-50685000D01*
X243315000Y-50685000D01*
X243315001Y-119315000D01*
%TA.AperFunction,Conductor*%
D22*
G36*
X243315001Y-119315000D02*
G01*
X200921832Y-119315000D01*
X200948918Y-119274463D01*
X201072168Y-118976912D01*
X201135000Y-118661033D01*
X201135000Y-118338967D01*
X201072168Y-118023088D01*
X200948918Y-117725537D01*
X200769987Y-117457748D01*
X200542252Y-117230013D01*
X200274463Y-117051082D01*
X199976912Y-116927832D01*
X199661033Y-116865000D01*
X199338967Y-116865000D01*
X199023088Y-116927832D01*
X198725537Y-117051082D01*
X198457748Y-117230013D01*
X198230013Y-117457748D01*
X198051082Y-117725537D01*
X197927832Y-118023088D01*
X197865000Y-118338967D01*
X197865000Y-118661033D01*
X197927832Y-118976912D01*
X198051082Y-119274463D01*
X198078168Y-119315000D01*
X195921832Y-119315000D01*
X195948918Y-119274463D01*
X196072168Y-118976912D01*
X196135000Y-118661033D01*
X196135000Y-118338967D01*
X196072168Y-118023088D01*
X195948918Y-117725537D01*
X195769987Y-117457748D01*
X195542252Y-117230013D01*
X195274463Y-117051082D01*
X194976912Y-116927832D01*
X194661033Y-116865000D01*
X194338967Y-116865000D01*
X194023088Y-116927832D01*
X193725537Y-117051082D01*
X193457748Y-117230013D01*
X193230013Y-117457748D01*
X193051082Y-117725537D01*
X192927832Y-118023088D01*
X192865000Y-118338967D01*
X192865000Y-118661033D01*
X192927832Y-118976912D01*
X193051082Y-119274463D01*
X193078168Y-119315000D01*
X190685000Y-119315000D01*
X190685000Y-116223137D01*
X205915000Y-116223137D01*
X205915000Y-116436863D01*
X205956696Y-116646483D01*
X206038485Y-116843940D01*
X206157225Y-117021647D01*
X206308353Y-117172775D01*
X206486060Y-117291515D01*
X206683517Y-117373304D01*
X206893137Y-117415000D01*
X207106863Y-117415000D01*
X207316483Y-117373304D01*
X207513940Y-117291515D01*
X207691647Y-117172775D01*
X207842775Y-117021647D01*
X207961515Y-116843940D01*
X208043304Y-116646483D01*
X208085000Y-116436863D01*
X208085000Y-116223137D01*
X208915000Y-116223137D01*
X208915000Y-116436863D01*
X208956696Y-116646483D01*
X209038485Y-116843940D01*
X209157225Y-117021647D01*
X209308353Y-117172775D01*
X209486060Y-117291515D01*
X209683517Y-117373304D01*
X209893137Y-117415000D01*
X210106863Y-117415000D01*
X210316483Y-117373304D01*
X210513940Y-117291515D01*
X210691647Y-117172775D01*
X210842775Y-117021647D01*
X210961515Y-116843940D01*
X211043304Y-116646483D01*
X211085000Y-116436863D01*
X211085000Y-116223137D01*
X211043304Y-116013517D01*
X210961515Y-115816060D01*
X210842775Y-115638353D01*
X210691647Y-115487225D01*
X210676180Y-115476890D01*
X227750048Y-115476890D01*
X227750048Y-115723110D01*
X227798083Y-115964598D01*
X227892307Y-116192074D01*
X228029099Y-116396798D01*
X228203202Y-116570901D01*
X228407926Y-116707693D01*
X228635402Y-116801917D01*
X228876890Y-116849952D01*
X229123110Y-116849952D01*
X229364598Y-116801917D01*
X229592074Y-116707693D01*
X229796798Y-116570901D01*
X229970901Y-116396798D01*
X230107693Y-116192074D01*
X230201917Y-115964598D01*
X230249952Y-115723110D01*
X230249952Y-115476890D01*
X230201917Y-115235402D01*
X230107693Y-115007926D01*
X229970901Y-114803202D01*
X229796798Y-114629099D01*
X229592074Y-114492307D01*
X229364598Y-114398083D01*
X229123110Y-114350048D01*
X228876890Y-114350048D01*
X228635402Y-114398083D01*
X228407926Y-114492307D01*
X228203202Y-114629099D01*
X228029099Y-114803202D01*
X227892307Y-115007926D01*
X227798083Y-115235402D01*
X227750048Y-115476890D01*
X210676180Y-115476890D01*
X210513940Y-115368485D01*
X210316483Y-115286696D01*
X210106863Y-115245000D01*
X209893137Y-115245000D01*
X209683517Y-115286696D01*
X209486060Y-115368485D01*
X209308353Y-115487225D01*
X209157225Y-115638353D01*
X209038485Y-115816060D01*
X208956696Y-116013517D01*
X208915000Y-116223137D01*
X208085000Y-116223137D01*
X208043304Y-116013517D01*
X207961515Y-115816060D01*
X207842775Y-115638353D01*
X207691647Y-115487225D01*
X207513940Y-115368485D01*
X207316483Y-115286696D01*
X207106863Y-115245000D01*
X206893137Y-115245000D01*
X206683517Y-115286696D01*
X206486060Y-115368485D01*
X206308353Y-115487225D01*
X206157225Y-115638353D01*
X206038485Y-115816060D01*
X205956696Y-116013517D01*
X205915000Y-116223137D01*
X190685000Y-116223137D01*
X190685000Y-113738072D01*
X192400000Y-113738072D01*
X192524482Y-113725812D01*
X192644180Y-113689502D01*
X192754494Y-113630537D01*
X192851185Y-113551185D01*
X192930537Y-113454494D01*
X192989502Y-113344180D01*
X193025812Y-113224482D01*
X193038072Y-113100000D01*
X193038072Y-109900000D01*
X200961928Y-109900000D01*
X200961928Y-113100000D01*
X200974188Y-113224482D01*
X201010498Y-113344180D01*
X201069463Y-113454494D01*
X201148815Y-113551185D01*
X201245506Y-113630537D01*
X201355820Y-113689502D01*
X201475518Y-113725812D01*
X201600000Y-113738072D01*
X203600000Y-113738072D01*
X203724482Y-113725812D01*
X203844180Y-113689502D01*
X203954494Y-113630537D01*
X204051185Y-113551185D01*
X204130537Y-113454494D01*
X204189502Y-113344180D01*
X204225812Y-113224482D01*
X204238072Y-113100000D01*
X204238072Y-112498061D01*
X205165000Y-112498061D01*
X205165000Y-112701939D01*
X205204774Y-112901898D01*
X205282795Y-113090256D01*
X205396063Y-113259774D01*
X205540226Y-113403937D01*
X205709744Y-113517205D01*
X205898102Y-113595226D01*
X206098061Y-113635000D01*
X206301939Y-113635000D01*
X206501898Y-113595226D01*
X206690256Y-113517205D01*
X206859774Y-113403937D01*
X207003937Y-113259774D01*
X207117205Y-113090256D01*
X207195226Y-112901898D01*
X207235000Y-112701939D01*
X207235000Y-112498061D01*
X207195226Y-112298102D01*
X207117205Y-112109744D01*
X207003937Y-111940226D01*
X206859774Y-111796063D01*
X206690256Y-111682795D01*
X206501898Y-111604774D01*
X206301939Y-111565000D01*
X206098061Y-111565000D01*
X205898102Y-111604774D01*
X205709744Y-111682795D01*
X205540226Y-111796063D01*
X205396063Y-111940226D01*
X205282795Y-112109744D01*
X205204774Y-112298102D01*
X205165000Y-112498061D01*
X204238072Y-112498061D01*
X204238072Y-109900000D01*
X204225812Y-109775518D01*
X204189502Y-109655820D01*
X204130537Y-109545506D01*
X204051185Y-109448815D01*
X203954494Y-109369463D01*
X203844180Y-109310498D01*
X203724482Y-109274188D01*
X203600000Y-109261928D01*
X201600000Y-109261928D01*
X201475518Y-109274188D01*
X201355820Y-109310498D01*
X201245506Y-109369463D01*
X201148815Y-109448815D01*
X201069463Y-109545506D01*
X201010498Y-109655820D01*
X200974188Y-109775518D01*
X200961928Y-109900000D01*
X193038072Y-109900000D01*
X193025812Y-109775518D01*
X192989502Y-109655820D01*
X192930537Y-109545506D01*
X192851185Y-109448815D01*
X192754494Y-109369463D01*
X192644180Y-109310498D01*
X192524482Y-109274188D01*
X192400000Y-109261928D01*
X190685000Y-109261928D01*
X190685000Y-107150000D01*
X217511928Y-107150000D01*
X217511928Y-108850000D01*
X217524188Y-108974482D01*
X217560498Y-109094180D01*
X217619463Y-109204494D01*
X217698815Y-109301185D01*
X217795506Y-109380537D01*
X217905820Y-109439502D01*
X218025518Y-109475812D01*
X218150000Y-109488072D01*
X219850000Y-109488072D01*
X219974482Y-109475812D01*
X220094180Y-109439502D01*
X220204494Y-109380537D01*
X220301185Y-109301185D01*
X220380537Y-109204494D01*
X220439502Y-109094180D01*
X220461513Y-109021620D01*
X220593368Y-109153475D01*
X220836589Y-109315990D01*
X221106842Y-109427932D01*
X221393740Y-109485000D01*
X221686260Y-109485000D01*
X221973158Y-109427932D01*
X222243411Y-109315990D01*
X222486632Y-109153475D01*
X222693475Y-108946632D01*
X222810000Y-108772240D01*
X222926525Y-108946632D01*
X223133368Y-109153475D01*
X223376589Y-109315990D01*
X223646842Y-109427932D01*
X223933740Y-109485000D01*
X224226260Y-109485000D01*
X224513158Y-109427932D01*
X224783411Y-109315990D01*
X225026632Y-109153475D01*
X225233475Y-108946632D01*
X225350000Y-108772240D01*
X225466525Y-108946632D01*
X225673368Y-109153475D01*
X225916589Y-109315990D01*
X226186842Y-109427932D01*
X226473740Y-109485000D01*
X226766260Y-109485000D01*
X227053158Y-109427932D01*
X227323411Y-109315990D01*
X227566632Y-109153475D01*
X227773475Y-108946632D01*
X227890000Y-108772240D01*
X228006525Y-108946632D01*
X228213368Y-109153475D01*
X228456589Y-109315990D01*
X228726842Y-109427932D01*
X229013740Y-109485000D01*
X229306260Y-109485000D01*
X229593158Y-109427932D01*
X229863411Y-109315990D01*
X230106632Y-109153475D01*
X230313475Y-108946632D01*
X230430000Y-108772240D01*
X230546525Y-108946632D01*
X230753368Y-109153475D01*
X230996589Y-109315990D01*
X231266842Y-109427932D01*
X231553740Y-109485000D01*
X231846260Y-109485000D01*
X232133158Y-109427932D01*
X232403411Y-109315990D01*
X232646632Y-109153475D01*
X232853475Y-108946632D01*
X233015990Y-108703411D01*
X233127932Y-108433158D01*
X233185000Y-108146260D01*
X233185000Y-107853740D01*
X233127932Y-107566842D01*
X233015990Y-107296589D01*
X232853475Y-107053368D01*
X232646632Y-106846525D01*
X232472240Y-106730000D01*
X232646632Y-106613475D01*
X232853475Y-106406632D01*
X233015990Y-106163411D01*
X233127932Y-105893158D01*
X233185000Y-105606260D01*
X233185000Y-105313740D01*
X233127932Y-105026842D01*
X233015990Y-104756589D01*
X232853475Y-104513368D01*
X232646632Y-104306525D01*
X232403411Y-104144010D01*
X232133158Y-104032068D01*
X231846260Y-103975000D01*
X231553740Y-103975000D01*
X231266842Y-104032068D01*
X230996589Y-104144010D01*
X230753368Y-104306525D01*
X230546525Y-104513368D01*
X230430000Y-104687760D01*
X230313475Y-104513368D01*
X230106632Y-104306525D01*
X229863411Y-104144010D01*
X229593158Y-104032068D01*
X229306260Y-103975000D01*
X229013740Y-103975000D01*
X228726842Y-104032068D01*
X228456589Y-104144010D01*
X228213368Y-104306525D01*
X228006525Y-104513368D01*
X227890000Y-104687760D01*
X227773475Y-104513368D01*
X227566632Y-104306525D01*
X227323411Y-104144010D01*
X227053158Y-104032068D01*
X226766260Y-103975000D01*
X226473740Y-103975000D01*
X226186842Y-104032068D01*
X225916589Y-104144010D01*
X225673368Y-104306525D01*
X225466525Y-104513368D01*
X225350000Y-104687760D01*
X225233475Y-104513368D01*
X225026632Y-104306525D01*
X224783411Y-104144010D01*
X224513158Y-104032068D01*
X224226260Y-103975000D01*
X223933740Y-103975000D01*
X223646842Y-104032068D01*
X223376589Y-104144010D01*
X223133368Y-104306525D01*
X222926525Y-104513368D01*
X222810000Y-104687760D01*
X222693475Y-104513368D01*
X222486632Y-104306525D01*
X222243411Y-104144010D01*
X221973158Y-104032068D01*
X221686260Y-103975000D01*
X221393740Y-103975000D01*
X221106842Y-104032068D01*
X220836589Y-104144010D01*
X220593368Y-104306525D01*
X220386525Y-104513368D01*
X220270000Y-104687760D01*
X220153475Y-104513368D01*
X219946632Y-104306525D01*
X219703411Y-104144010D01*
X219433158Y-104032068D01*
X219146260Y-103975000D01*
X218853740Y-103975000D01*
X218566842Y-104032068D01*
X218296589Y-104144010D01*
X218053368Y-104306525D01*
X217846525Y-104513368D01*
X217684010Y-104756589D01*
X217572068Y-105026842D01*
X217515000Y-105313740D01*
X217515000Y-105606260D01*
X217572068Y-105893158D01*
X217684010Y-106163411D01*
X217846525Y-106406632D01*
X217978380Y-106538487D01*
X217905820Y-106560498D01*
X217795506Y-106619463D01*
X217698815Y-106698815D01*
X217619463Y-106795506D01*
X217560498Y-106905820D01*
X217524188Y-107025518D01*
X217511928Y-107150000D01*
X190685000Y-107150000D01*
X190685000Y-103838967D01*
X192865000Y-103838967D01*
X192865000Y-104161033D01*
X192927832Y-104476912D01*
X193051082Y-104774463D01*
X193230013Y-105042252D01*
X193457748Y-105269987D01*
X193725537Y-105448918D01*
X194023088Y-105572168D01*
X194338967Y-105635000D01*
X194661033Y-105635000D01*
X194976912Y-105572168D01*
X195274463Y-105448918D01*
X195542252Y-105269987D01*
X195769987Y-105042252D01*
X195834925Y-104945065D01*
X195864587Y-104955808D01*
X196820395Y-104000000D01*
X195864587Y-103044192D01*
X195834925Y-103054935D01*
X195769987Y-102957748D01*
X195676826Y-102864587D01*
X196044192Y-102864587D01*
X197000000Y-103820395D01*
X197014143Y-103806253D01*
X197193748Y-103985858D01*
X197179605Y-104000000D01*
X197193748Y-104014143D01*
X197014143Y-104193748D01*
X197000000Y-104179605D01*
X196044192Y-105135413D01*
X196139956Y-105399814D01*
X196429571Y-105540704D01*
X196741108Y-105622384D01*
X197062595Y-105641718D01*
X197381675Y-105597961D01*
X197686088Y-105492795D01*
X197860044Y-105399814D01*
X197914024Y-105250777D01*
X197969463Y-105354494D01*
X198048815Y-105451185D01*
X198145506Y-105530537D01*
X198255820Y-105589502D01*
X198375518Y-105625812D01*
X198500000Y-105638072D01*
X200500000Y-105638072D01*
X200624482Y-105625812D01*
X200744180Y-105589502D01*
X200854494Y-105530537D01*
X200951185Y-105451185D01*
X201030537Y-105354494D01*
X201089502Y-105244180D01*
X201125812Y-105124482D01*
X201138072Y-105000000D01*
X201138072Y-103000000D01*
X201125812Y-102875518D01*
X201089502Y-102755820D01*
X201030537Y-102645506D01*
X200951185Y-102548815D01*
X200854494Y-102469463D01*
X200744180Y-102410498D01*
X200624482Y-102374188D01*
X200500000Y-102361928D01*
X198500000Y-102361928D01*
X198375518Y-102374188D01*
X198255820Y-102410498D01*
X198145506Y-102469463D01*
X198048815Y-102548815D01*
X197969463Y-102645506D01*
X197914024Y-102749223D01*
X197860044Y-102600186D01*
X197570429Y-102459296D01*
X197258892Y-102377616D01*
X196937405Y-102358282D01*
X196618325Y-102402039D01*
X196313912Y-102507205D01*
X196139956Y-102600186D01*
X196044192Y-102864587D01*
X195676826Y-102864587D01*
X195542252Y-102730013D01*
X195274463Y-102551082D01*
X194976912Y-102427832D01*
X194661033Y-102365000D01*
X194338967Y-102365000D01*
X194023088Y-102427832D01*
X193725537Y-102551082D01*
X193457748Y-102730013D01*
X193230013Y-102957748D01*
X193051082Y-103225537D01*
X192927832Y-103523088D01*
X192865000Y-103838967D01*
X190685000Y-103838967D01*
X190685000Y-99898061D01*
X190765000Y-99898061D01*
X190765000Y-100101939D01*
X190804774Y-100301898D01*
X190882795Y-100490256D01*
X190996063Y-100659774D01*
X191140226Y-100803937D01*
X191309744Y-100917205D01*
X191498102Y-100995226D01*
X191698061Y-101035000D01*
X191901939Y-101035000D01*
X192101898Y-100995226D01*
X192290256Y-100917205D01*
X192459774Y-100803937D01*
X192603937Y-100659774D01*
X192717205Y-100490256D01*
X192795226Y-100301898D01*
X192835000Y-100101939D01*
X192835000Y-99898061D01*
X200165000Y-99898061D01*
X200165000Y-100101939D01*
X200204774Y-100301898D01*
X200282795Y-100490256D01*
X200396063Y-100659774D01*
X200540226Y-100803937D01*
X200709744Y-100917205D01*
X200898102Y-100995226D01*
X201098061Y-101035000D01*
X201301939Y-101035000D01*
X201501898Y-100995226D01*
X201690256Y-100917205D01*
X201795490Y-100846890D01*
X239558524Y-100846890D01*
X239603175Y-100994099D01*
X239728359Y-101256920D01*
X239902412Y-101490269D01*
X240118645Y-101685178D01*
X240368748Y-101834157D01*
X240643109Y-101931481D01*
X240873000Y-101810814D01*
X240873000Y-100617000D01*
X241127000Y-100617000D01*
X241127000Y-101810814D01*
X241356891Y-101931481D01*
X241631252Y-101834157D01*
X241881355Y-101685178D01*
X242097588Y-101490269D01*
X242271641Y-101256920D01*
X242396825Y-100994099D01*
X242441476Y-100846890D01*
X242320155Y-100617000D01*
X241127000Y-100617000D01*
X240873000Y-100617000D01*
X239679845Y-100617000D01*
X239558524Y-100846890D01*
X201795490Y-100846890D01*
X201859774Y-100803937D01*
X202003937Y-100659774D01*
X202117205Y-100490256D01*
X202195226Y-100301898D01*
X202235000Y-100101939D01*
X202235000Y-99898061D01*
X202195226Y-99698102D01*
X202117205Y-99509744D01*
X202003937Y-99340226D01*
X201859774Y-99196063D01*
X201690256Y-99082795D01*
X201501898Y-99004774D01*
X201301939Y-98965000D01*
X201098061Y-98965000D01*
X200898102Y-99004774D01*
X200709744Y-99082795D01*
X200540226Y-99196063D01*
X200396063Y-99340226D01*
X200282795Y-99509744D01*
X200204774Y-99698102D01*
X200165000Y-99898061D01*
X192835000Y-99898061D01*
X192795226Y-99698102D01*
X192717205Y-99509744D01*
X192603937Y-99340226D01*
X192459774Y-99196063D01*
X192290256Y-99082795D01*
X192101898Y-99004774D01*
X191901939Y-98965000D01*
X191698061Y-98965000D01*
X191498102Y-99004774D01*
X191309744Y-99082795D01*
X191140226Y-99196063D01*
X190996063Y-99340226D01*
X190882795Y-99509744D01*
X190804774Y-99698102D01*
X190765000Y-99898061D01*
X190685000Y-99898061D01*
X190685000Y-93135413D01*
X216044192Y-93135413D01*
X216139956Y-93399814D01*
X216429571Y-93540704D01*
X216741108Y-93622384D01*
X217062595Y-93641718D01*
X217381675Y-93597961D01*
X217686088Y-93492795D01*
X217860044Y-93399814D01*
X217955808Y-93135413D01*
X222544192Y-93135413D01*
X222639956Y-93399814D01*
X222929571Y-93540704D01*
X223241108Y-93622384D01*
X223562595Y-93641718D01*
X223881675Y-93597961D01*
X224186088Y-93492795D01*
X224360044Y-93399814D01*
X224455808Y-93135413D01*
X223500000Y-92179605D01*
X222544192Y-93135413D01*
X217955808Y-93135413D01*
X217000000Y-92179605D01*
X216044192Y-93135413D01*
X190685000Y-93135413D01*
X190685000Y-92062595D01*
X215358282Y-92062595D01*
X215402039Y-92381675D01*
X215507205Y-92686088D01*
X215600186Y-92860044D01*
X215864587Y-92955808D01*
X216820395Y-92000000D01*
X217179605Y-92000000D01*
X218135413Y-92955808D01*
X218399814Y-92860044D01*
X218540704Y-92570429D01*
X218622384Y-92258892D01*
X218634189Y-92062595D01*
X221858282Y-92062595D01*
X221902039Y-92381675D01*
X222007205Y-92686088D01*
X222100186Y-92860044D01*
X222364587Y-92955808D01*
X223320395Y-92000000D01*
X223679605Y-92000000D01*
X224635413Y-92955808D01*
X224899814Y-92860044D01*
X225040704Y-92570429D01*
X225122384Y-92258892D01*
X225141718Y-91937405D01*
X225097961Y-91618325D01*
X224992795Y-91313912D01*
X224899814Y-91139956D01*
X224635413Y-91044192D01*
X223679605Y-92000000D01*
X223320395Y-92000000D01*
X222364587Y-91044192D01*
X222100186Y-91139956D01*
X221959296Y-91429571D01*
X221877616Y-91741108D01*
X221858282Y-92062595D01*
X218634189Y-92062595D01*
X218641718Y-91937405D01*
X218597961Y-91618325D01*
X218492795Y-91313912D01*
X218399814Y-91139956D01*
X218135413Y-91044192D01*
X217179605Y-92000000D01*
X216820395Y-92000000D01*
X215864587Y-91044192D01*
X215600186Y-91139956D01*
X215459296Y-91429571D01*
X215377616Y-91741108D01*
X215358282Y-92062595D01*
X190685000Y-92062595D01*
X190685000Y-90864587D01*
X216044192Y-90864587D01*
X217000000Y-91820395D01*
X217955808Y-90864587D01*
X222544192Y-90864587D01*
X223500000Y-91820395D01*
X224455808Y-90864587D01*
X224360044Y-90600186D01*
X224070429Y-90459296D01*
X223758892Y-90377616D01*
X223437405Y-90358282D01*
X223118325Y-90402039D01*
X222813912Y-90507205D01*
X222639956Y-90600186D01*
X222544192Y-90864587D01*
X217955808Y-90864587D01*
X217860044Y-90600186D01*
X217570429Y-90459296D01*
X217258892Y-90377616D01*
X216937405Y-90358282D01*
X216618325Y-90402039D01*
X216313912Y-90507205D01*
X216139956Y-90600186D01*
X216044192Y-90864587D01*
X190685000Y-90864587D01*
X190685000Y-87338967D01*
X215365000Y-87338967D01*
X215365000Y-87661033D01*
X215427832Y-87976912D01*
X215551082Y-88274463D01*
X215730013Y-88542252D01*
X215957748Y-88769987D01*
X216225537Y-88948918D01*
X216523088Y-89072168D01*
X216838967Y-89135000D01*
X217161033Y-89135000D01*
X217476912Y-89072168D01*
X217774463Y-88948918D01*
X218042252Y-88769987D01*
X218269987Y-88542252D01*
X218448918Y-88274463D01*
X218572168Y-87976912D01*
X218635000Y-87661033D01*
X218635000Y-87338967D01*
X221865000Y-87338967D01*
X221865000Y-87661033D01*
X221927832Y-87976912D01*
X222051082Y-88274463D01*
X222230013Y-88542252D01*
X222457748Y-88769987D01*
X222725537Y-88948918D01*
X223023088Y-89072168D01*
X223338967Y-89135000D01*
X223661033Y-89135000D01*
X223976912Y-89072168D01*
X224274463Y-88948918D01*
X224542252Y-88769987D01*
X224769987Y-88542252D01*
X224948918Y-88274463D01*
X225072168Y-87976912D01*
X225135000Y-87661033D01*
X225135000Y-87338967D01*
X225072168Y-87023088D01*
X224948918Y-86725537D01*
X224769987Y-86457748D01*
X224542252Y-86230013D01*
X224274463Y-86051082D01*
X223976912Y-85927832D01*
X223661033Y-85865000D01*
X223338967Y-85865000D01*
X223023088Y-85927832D01*
X222725537Y-86051082D01*
X222457748Y-86230013D01*
X222230013Y-86457748D01*
X222051082Y-86725537D01*
X221927832Y-87023088D01*
X221865000Y-87338967D01*
X218635000Y-87338967D01*
X218572168Y-87023088D01*
X218448918Y-86725537D01*
X218269987Y-86457748D01*
X218042252Y-86230013D01*
X217774463Y-86051082D01*
X217476912Y-85927832D01*
X217161033Y-85865000D01*
X216838967Y-85865000D01*
X216523088Y-85927832D01*
X216225537Y-86051082D01*
X215957748Y-86230013D01*
X215730013Y-86457748D01*
X215551082Y-86725537D01*
X215427832Y-87023088D01*
X215365000Y-87338967D01*
X190685000Y-87338967D01*
X190685000Y-84400000D01*
X239511928Y-84400000D01*
X239511928Y-86100000D01*
X239524188Y-86224482D01*
X239560498Y-86344180D01*
X239619463Y-86454494D01*
X239698815Y-86551185D01*
X239795506Y-86630537D01*
X239905820Y-86689502D01*
X239978380Y-86711513D01*
X239846525Y-86843368D01*
X239684010Y-87086589D01*
X239572068Y-87356842D01*
X239515000Y-87643740D01*
X239515000Y-87936260D01*
X239572068Y-88223158D01*
X239684010Y-88493411D01*
X239846525Y-88736632D01*
X240053368Y-88943475D01*
X240227760Y-89060000D01*
X240053368Y-89176525D01*
X239846525Y-89383368D01*
X239684010Y-89626589D01*
X239572068Y-89896842D01*
X239515000Y-90183740D01*
X239515000Y-90476260D01*
X239572068Y-90763158D01*
X239684010Y-91033411D01*
X239846525Y-91276632D01*
X240053368Y-91483475D01*
X240227760Y-91600000D01*
X240053368Y-91716525D01*
X239846525Y-91923368D01*
X239684010Y-92166589D01*
X239572068Y-92436842D01*
X239515000Y-92723740D01*
X239515000Y-93016260D01*
X239572068Y-93303158D01*
X239684010Y-93573411D01*
X239846525Y-93816632D01*
X240053368Y-94023475D01*
X240227760Y-94140000D01*
X240053368Y-94256525D01*
X239846525Y-94463368D01*
X239684010Y-94706589D01*
X239572068Y-94976842D01*
X239515000Y-95263740D01*
X239515000Y-95556260D01*
X239572068Y-95843158D01*
X239684010Y-96113411D01*
X239846525Y-96356632D01*
X240053368Y-96563475D01*
X240227760Y-96680000D01*
X240053368Y-96796525D01*
X239846525Y-97003368D01*
X239684010Y-97246589D01*
X239572068Y-97516842D01*
X239515000Y-97803740D01*
X239515000Y-98096260D01*
X239572068Y-98383158D01*
X239684010Y-98653411D01*
X239846525Y-98896632D01*
X240053368Y-99103475D01*
X240235534Y-99225195D01*
X240118645Y-99294822D01*
X239902412Y-99489731D01*
X239728359Y-99723080D01*
X239603175Y-99985901D01*
X239558524Y-100133110D01*
X239679845Y-100363000D01*
X240873000Y-100363000D01*
X240873000Y-100343000D01*
X241127000Y-100343000D01*
X241127000Y-100363000D01*
X242320155Y-100363000D01*
X242441476Y-100133110D01*
X242396825Y-99985901D01*
X242271641Y-99723080D01*
X242097588Y-99489731D01*
X241881355Y-99294822D01*
X241764466Y-99225195D01*
X241946632Y-99103475D01*
X242153475Y-98896632D01*
X242315990Y-98653411D01*
X242427932Y-98383158D01*
X242485000Y-98096260D01*
X242485000Y-97803740D01*
X242427932Y-97516842D01*
X242315990Y-97246589D01*
X242153475Y-97003368D01*
X241946632Y-96796525D01*
X241772240Y-96680000D01*
X241946632Y-96563475D01*
X242153475Y-96356632D01*
X242315990Y-96113411D01*
X242427932Y-95843158D01*
X242485000Y-95556260D01*
X242485000Y-95263740D01*
X242427932Y-94976842D01*
X242315990Y-94706589D01*
X242153475Y-94463368D01*
X241946632Y-94256525D01*
X241772240Y-94140000D01*
X241946632Y-94023475D01*
X242153475Y-93816632D01*
X242315990Y-93573411D01*
X242427932Y-93303158D01*
X242485000Y-93016260D01*
X242485000Y-92723740D01*
X242427932Y-92436842D01*
X242315990Y-92166589D01*
X242153475Y-91923368D01*
X241946632Y-91716525D01*
X241772240Y-91600000D01*
X241946632Y-91483475D01*
X242153475Y-91276632D01*
X242315990Y-91033411D01*
X242427932Y-90763158D01*
X242485000Y-90476260D01*
X242485000Y-90183740D01*
X242427932Y-89896842D01*
X242315990Y-89626589D01*
X242153475Y-89383368D01*
X241946632Y-89176525D01*
X241772240Y-89060000D01*
X241946632Y-88943475D01*
X242153475Y-88736632D01*
X242315990Y-88493411D01*
X242427932Y-88223158D01*
X242485000Y-87936260D01*
X242485000Y-87643740D01*
X242427932Y-87356842D01*
X242315990Y-87086589D01*
X242153475Y-86843368D01*
X242021620Y-86711513D01*
X242094180Y-86689502D01*
X242204494Y-86630537D01*
X242301185Y-86551185D01*
X242380537Y-86454494D01*
X242439502Y-86344180D01*
X242475812Y-86224482D01*
X242488072Y-86100000D01*
X242488072Y-84400000D01*
X242475812Y-84275518D01*
X242439502Y-84155820D01*
X242380537Y-84045506D01*
X242301185Y-83948815D01*
X242204494Y-83869463D01*
X242094180Y-83810498D01*
X241974482Y-83774188D01*
X241850000Y-83761928D01*
X240150000Y-83761928D01*
X240025518Y-83774188D01*
X239905820Y-83810498D01*
X239795506Y-83869463D01*
X239698815Y-83948815D01*
X239619463Y-84045506D01*
X239560498Y-84155820D01*
X239524188Y-84275518D01*
X239511928Y-84400000D01*
X190685000Y-84400000D01*
X190685000Y-79400000D01*
X192511928Y-79400000D01*
X192511928Y-81100000D01*
X192524188Y-81224482D01*
X192560498Y-81344180D01*
X192619463Y-81454494D01*
X192698815Y-81551185D01*
X192795506Y-81630537D01*
X192905820Y-81689502D01*
X193025518Y-81725812D01*
X193150000Y-81738072D01*
X194850000Y-81738072D01*
X194974482Y-81725812D01*
X195094180Y-81689502D01*
X195204494Y-81630537D01*
X195301185Y-81551185D01*
X195380537Y-81454494D01*
X195439502Y-81344180D01*
X195475812Y-81224482D01*
X195488072Y-81100000D01*
X195488072Y-80398061D01*
X225215000Y-80398061D01*
X225215000Y-80601939D01*
X225254774Y-80801898D01*
X225332795Y-80990256D01*
X225446063Y-81159774D01*
X225590226Y-81303937D01*
X225759744Y-81417205D01*
X225948102Y-81495226D01*
X226148061Y-81535000D01*
X226351939Y-81535000D01*
X226551898Y-81495226D01*
X226740256Y-81417205D01*
X226909774Y-81303937D01*
X227053937Y-81159774D01*
X227167205Y-80990256D01*
X227245226Y-80801898D01*
X227285000Y-80601939D01*
X227285000Y-80398061D01*
X227245226Y-80198102D01*
X227167205Y-80009744D01*
X227053937Y-79840226D01*
X226909774Y-79696063D01*
X226740256Y-79582795D01*
X226551898Y-79504774D01*
X226351939Y-79465000D01*
X226148061Y-79465000D01*
X225948102Y-79504774D01*
X225759744Y-79582795D01*
X225590226Y-79696063D01*
X225446063Y-79840226D01*
X225332795Y-80009744D01*
X225254774Y-80198102D01*
X225215000Y-80398061D01*
X195488072Y-80398061D01*
X195488072Y-79400000D01*
X195475812Y-79275518D01*
X195439502Y-79155820D01*
X195423679Y-79126216D01*
X222986845Y-79126216D01*
X222986845Y-79330094D01*
X223026619Y-79530053D01*
X223104640Y-79718411D01*
X223217908Y-79887929D01*
X223362071Y-80032092D01*
X223531589Y-80145360D01*
X223719947Y-80223381D01*
X223919906Y-80263155D01*
X224123784Y-80263155D01*
X224323743Y-80223381D01*
X224512101Y-80145360D01*
X224681619Y-80032092D01*
X224825782Y-79887929D01*
X224939050Y-79718411D01*
X225017071Y-79530053D01*
X225056845Y-79330094D01*
X225056845Y-79126216D01*
X225017071Y-78926257D01*
X224939050Y-78737899D01*
X224880318Y-78650000D01*
X239511928Y-78650000D01*
X239511928Y-80350000D01*
X239524188Y-80474482D01*
X239560498Y-80594180D01*
X239619463Y-80704494D01*
X239698815Y-80801185D01*
X239795506Y-80880537D01*
X239905820Y-80939502D01*
X240025518Y-80975812D01*
X240150000Y-80988072D01*
X241850000Y-80988072D01*
X241974482Y-80975812D01*
X242094180Y-80939502D01*
X242204494Y-80880537D01*
X242301185Y-80801185D01*
X242380537Y-80704494D01*
X242439502Y-80594180D01*
X242475812Y-80474482D01*
X242488072Y-80350000D01*
X242488072Y-78650000D01*
X242475812Y-78525518D01*
X242439502Y-78405820D01*
X242380537Y-78295506D01*
X242301185Y-78198815D01*
X242204494Y-78119463D01*
X242094180Y-78060498D01*
X242021620Y-78038487D01*
X242153475Y-77906632D01*
X242315990Y-77663411D01*
X242427932Y-77393158D01*
X242485000Y-77106260D01*
X242485000Y-76813740D01*
X242427932Y-76526842D01*
X242315990Y-76256589D01*
X242153475Y-76013368D01*
X241946632Y-75806525D01*
X241772240Y-75690000D01*
X241946632Y-75573475D01*
X242153475Y-75366632D01*
X242315990Y-75123411D01*
X242427932Y-74853158D01*
X242485000Y-74566260D01*
X242485000Y-74273740D01*
X242427932Y-73986842D01*
X242315990Y-73716589D01*
X242153475Y-73473368D01*
X241946632Y-73266525D01*
X241772240Y-73150000D01*
X241946632Y-73033475D01*
X242153475Y-72826632D01*
X242315990Y-72583411D01*
X242427932Y-72313158D01*
X242485000Y-72026260D01*
X242485000Y-71733740D01*
X242427932Y-71446842D01*
X242315990Y-71176589D01*
X242153475Y-70933368D01*
X241946632Y-70726525D01*
X241772240Y-70610000D01*
X241946632Y-70493475D01*
X242153475Y-70286632D01*
X242315990Y-70043411D01*
X242427932Y-69773158D01*
X242485000Y-69486260D01*
X242485000Y-69193740D01*
X242427932Y-68906842D01*
X242315990Y-68636589D01*
X242153475Y-68393368D01*
X241946632Y-68186525D01*
X241703411Y-68024010D01*
X241433158Y-67912068D01*
X241146260Y-67855000D01*
X240853740Y-67855000D01*
X240566842Y-67912068D01*
X240296589Y-68024010D01*
X240053368Y-68186525D01*
X239846525Y-68393368D01*
X239684010Y-68636589D01*
X239572068Y-68906842D01*
X239515000Y-69193740D01*
X239515000Y-69486260D01*
X239572068Y-69773158D01*
X239684010Y-70043411D01*
X239846525Y-70286632D01*
X240053368Y-70493475D01*
X240227760Y-70610000D01*
X240053368Y-70726525D01*
X239846525Y-70933368D01*
X239684010Y-71176589D01*
X239572068Y-71446842D01*
X239515000Y-71733740D01*
X239515000Y-72026260D01*
X239572068Y-72313158D01*
X239684010Y-72583411D01*
X239846525Y-72826632D01*
X240053368Y-73033475D01*
X240227760Y-73150000D01*
X240053368Y-73266525D01*
X239846525Y-73473368D01*
X239684010Y-73716589D01*
X239572068Y-73986842D01*
X239515000Y-74273740D01*
X239515000Y-74566260D01*
X239572068Y-74853158D01*
X239684010Y-75123411D01*
X239846525Y-75366632D01*
X240053368Y-75573475D01*
X240227760Y-75690000D01*
X240053368Y-75806525D01*
X239846525Y-76013368D01*
X239684010Y-76256589D01*
X239572068Y-76526842D01*
X239515000Y-76813740D01*
X239515000Y-77106260D01*
X239572068Y-77393158D01*
X239684010Y-77663411D01*
X239846525Y-77906632D01*
X239978380Y-78038487D01*
X239905820Y-78060498D01*
X239795506Y-78119463D01*
X239698815Y-78198815D01*
X239619463Y-78295506D01*
X239560498Y-78405820D01*
X239524188Y-78525518D01*
X239511928Y-78650000D01*
X224880318Y-78650000D01*
X224825782Y-78568381D01*
X224681619Y-78424218D01*
X224512101Y-78310950D01*
X224323743Y-78232929D01*
X224123784Y-78193155D01*
X223919906Y-78193155D01*
X223719947Y-78232929D01*
X223531589Y-78310950D01*
X223362071Y-78424218D01*
X223217908Y-78568381D01*
X223104640Y-78737899D01*
X223026619Y-78926257D01*
X222986845Y-79126216D01*
X195423679Y-79126216D01*
X195380537Y-79045506D01*
X195301185Y-78948815D01*
X195204494Y-78869463D01*
X195094180Y-78810498D01*
X195021620Y-78788487D01*
X195153475Y-78656632D01*
X195315990Y-78413411D01*
X195427932Y-78143158D01*
X195485000Y-77856260D01*
X195485000Y-77563740D01*
X195452045Y-77398061D01*
X211215000Y-77398061D01*
X211215000Y-77601939D01*
X211254774Y-77801898D01*
X211332795Y-77990256D01*
X211446063Y-78159774D01*
X211590226Y-78303937D01*
X211759744Y-78417205D01*
X211948102Y-78495226D01*
X212148061Y-78535000D01*
X212351939Y-78535000D01*
X212551898Y-78495226D01*
X212740256Y-78417205D01*
X212909774Y-78303937D01*
X213053937Y-78159774D01*
X213167205Y-77990256D01*
X213245226Y-77801898D01*
X213285000Y-77601939D01*
X213285000Y-77398061D01*
X213245226Y-77198102D01*
X213167205Y-77009744D01*
X213053937Y-76840226D01*
X212909774Y-76696063D01*
X212740256Y-76582795D01*
X212551898Y-76504774D01*
X212351939Y-76465000D01*
X212148061Y-76465000D01*
X211948102Y-76504774D01*
X211759744Y-76582795D01*
X211590226Y-76696063D01*
X211446063Y-76840226D01*
X211332795Y-77009744D01*
X211254774Y-77198102D01*
X211215000Y-77398061D01*
X195452045Y-77398061D01*
X195427932Y-77276842D01*
X195315990Y-77006589D01*
X195153475Y-76763368D01*
X194946632Y-76556525D01*
X194772240Y-76440000D01*
X194946632Y-76323475D01*
X195153475Y-76116632D01*
X195315990Y-75873411D01*
X195427932Y-75603158D01*
X195485000Y-75316260D01*
X195485000Y-75023740D01*
X195427932Y-74736842D01*
X195315990Y-74466589D01*
X195153475Y-74223368D01*
X194946632Y-74016525D01*
X194703411Y-73854010D01*
X194433158Y-73742068D01*
X194146260Y-73685000D01*
X193853740Y-73685000D01*
X193566842Y-73742068D01*
X193296589Y-73854010D01*
X193053368Y-74016525D01*
X192846525Y-74223368D01*
X192684010Y-74466589D01*
X192572068Y-74736842D01*
X192515000Y-75023740D01*
X192515000Y-75316260D01*
X192572068Y-75603158D01*
X192684010Y-75873411D01*
X192846525Y-76116632D01*
X193053368Y-76323475D01*
X193227760Y-76440000D01*
X193053368Y-76556525D01*
X192846525Y-76763368D01*
X192684010Y-77006589D01*
X192572068Y-77276842D01*
X192515000Y-77563740D01*
X192515000Y-77856260D01*
X192572068Y-78143158D01*
X192684010Y-78413411D01*
X192846525Y-78656632D01*
X192978380Y-78788487D01*
X192905820Y-78810498D01*
X192795506Y-78869463D01*
X192698815Y-78948815D01*
X192619463Y-79045506D01*
X192560498Y-79155820D01*
X192524188Y-79275518D01*
X192511928Y-79400000D01*
X190685000Y-79400000D01*
X190685000Y-73648061D01*
X205715000Y-73648061D01*
X205715000Y-73851939D01*
X205754774Y-74051898D01*
X205832795Y-74240256D01*
X205946063Y-74409774D01*
X206090226Y-74553937D01*
X206259744Y-74667205D01*
X206448102Y-74745226D01*
X206648061Y-74785000D01*
X206851939Y-74785000D01*
X207051898Y-74745226D01*
X207240256Y-74667205D01*
X207268907Y-74648061D01*
X215715000Y-74648061D01*
X215715000Y-74851939D01*
X215754774Y-75051898D01*
X215832795Y-75240256D01*
X215946063Y-75409774D01*
X216090226Y-75553937D01*
X216259744Y-75667205D01*
X216448102Y-75745226D01*
X216648061Y-75785000D01*
X216851939Y-75785000D01*
X217051898Y-75745226D01*
X217240256Y-75667205D01*
X217409774Y-75553937D01*
X217553937Y-75409774D01*
X217667205Y-75240256D01*
X217745226Y-75051898D01*
X217785000Y-74851939D01*
X217785000Y-74648061D01*
X217745226Y-74448102D01*
X217667205Y-74259744D01*
X217553937Y-74090226D01*
X217409774Y-73946063D01*
X217240256Y-73832795D01*
X217051898Y-73754774D01*
X216851939Y-73715000D01*
X216648061Y-73715000D01*
X216448102Y-73754774D01*
X216259744Y-73832795D01*
X216090226Y-73946063D01*
X215946063Y-74090226D01*
X215832795Y-74259744D01*
X215754774Y-74448102D01*
X215715000Y-74648061D01*
X207268907Y-74648061D01*
X207409774Y-74553937D01*
X207553937Y-74409774D01*
X207667205Y-74240256D01*
X207745226Y-74051898D01*
X207785000Y-73851939D01*
X207785000Y-73648061D01*
X207745226Y-73448102D01*
X207667205Y-73259744D01*
X207553937Y-73090226D01*
X207409774Y-72946063D01*
X207240256Y-72832795D01*
X207051898Y-72754774D01*
X206851939Y-72715000D01*
X206648061Y-72715000D01*
X206448102Y-72754774D01*
X206259744Y-72832795D01*
X206090226Y-72946063D01*
X205946063Y-73090226D01*
X205832795Y-73259744D01*
X205754774Y-73448102D01*
X205715000Y-73648061D01*
X190685000Y-73648061D01*
X190685000Y-71898061D01*
X216215000Y-71898061D01*
X216215000Y-72101939D01*
X216254774Y-72301898D01*
X216332795Y-72490256D01*
X216446063Y-72659774D01*
X216590226Y-72803937D01*
X216759744Y-72917205D01*
X216948102Y-72995226D01*
X217148061Y-73035000D01*
X217351939Y-73035000D01*
X217551898Y-72995226D01*
X217740256Y-72917205D01*
X217909774Y-72803937D01*
X218053937Y-72659774D01*
X218061763Y-72648061D01*
X219715000Y-72648061D01*
X219715000Y-72851939D01*
X219754774Y-73051898D01*
X219832795Y-73240256D01*
X219946063Y-73409774D01*
X220090226Y-73553937D01*
X220259744Y-73667205D01*
X220448102Y-73745226D01*
X220648061Y-73785000D01*
X220751289Y-73785000D01*
X220696063Y-73840226D01*
X220582795Y-74009744D01*
X220504774Y-74198102D01*
X220465000Y-74398061D01*
X220465000Y-74601939D01*
X220504774Y-74801898D01*
X220582795Y-74990256D01*
X220696063Y-75159774D01*
X220840226Y-75303937D01*
X221009744Y-75417205D01*
X221198102Y-75495226D01*
X221398061Y-75535000D01*
X221601939Y-75535000D01*
X221801898Y-75495226D01*
X221990256Y-75417205D01*
X222159774Y-75303937D01*
X222303937Y-75159774D01*
X222417205Y-74990256D01*
X222495226Y-74801898D01*
X222535000Y-74601939D01*
X222535000Y-74398061D01*
X222965000Y-74398061D01*
X222965000Y-74601939D01*
X223004774Y-74801898D01*
X223082795Y-74990256D01*
X223196063Y-75159774D01*
X223340226Y-75303937D01*
X223509744Y-75417205D01*
X223698102Y-75495226D01*
X223898061Y-75535000D01*
X224101939Y-75535000D01*
X224301898Y-75495226D01*
X224490256Y-75417205D01*
X224659774Y-75303937D01*
X224803937Y-75159774D01*
X224917205Y-74990256D01*
X224995226Y-74801898D01*
X225035000Y-74601939D01*
X225035000Y-74398061D01*
X224995226Y-74198102D01*
X224917205Y-74009744D01*
X224803937Y-73840226D01*
X224659774Y-73696063D01*
X224490256Y-73582795D01*
X224301898Y-73504774D01*
X224101939Y-73465000D01*
X223898061Y-73465000D01*
X223698102Y-73504774D01*
X223509744Y-73582795D01*
X223340226Y-73696063D01*
X223196063Y-73840226D01*
X223082795Y-74009744D01*
X223004774Y-74198102D01*
X222965000Y-74398061D01*
X222535000Y-74398061D01*
X222495226Y-74198102D01*
X222417205Y-74009744D01*
X222303937Y-73840226D01*
X222159774Y-73696063D01*
X221990256Y-73582795D01*
X221801898Y-73504774D01*
X221601939Y-73465000D01*
X221498711Y-73465000D01*
X221553937Y-73409774D01*
X221667205Y-73240256D01*
X221745226Y-73051898D01*
X221785000Y-72851939D01*
X221785000Y-72648061D01*
X221745226Y-72448102D01*
X221667205Y-72259744D01*
X221553937Y-72090226D01*
X221409774Y-71946063D01*
X221240256Y-71832795D01*
X221051898Y-71754774D01*
X220851939Y-71715000D01*
X220648061Y-71715000D01*
X220448102Y-71754774D01*
X220259744Y-71832795D01*
X220090226Y-71946063D01*
X219946063Y-72090226D01*
X219832795Y-72259744D01*
X219754774Y-72448102D01*
X219715000Y-72648061D01*
X218061763Y-72648061D01*
X218167205Y-72490256D01*
X218245226Y-72301898D01*
X218285000Y-72101939D01*
X218285000Y-71898061D01*
X218245226Y-71698102D01*
X218167205Y-71509744D01*
X218053937Y-71340226D01*
X217909774Y-71196063D01*
X217740256Y-71082795D01*
X217551898Y-71004774D01*
X217351939Y-70965000D01*
X217148061Y-70965000D01*
X216948102Y-71004774D01*
X216759744Y-71082795D01*
X216590226Y-71196063D01*
X216446063Y-71340226D01*
X216332795Y-71509744D01*
X216254774Y-71698102D01*
X216215000Y-71898061D01*
X190685000Y-71898061D01*
X190685000Y-70476890D01*
X192558524Y-70476890D01*
X192603175Y-70624099D01*
X192728359Y-70886920D01*
X192902412Y-71120269D01*
X193118645Y-71315178D01*
X193368748Y-71464157D01*
X193643109Y-71561481D01*
X193873000Y-71440814D01*
X193873000Y-70247000D01*
X192679845Y-70247000D01*
X192558524Y-70476890D01*
X190685000Y-70476890D01*
X190685000Y-67936890D01*
X192558524Y-67936890D01*
X192603175Y-68084099D01*
X192728359Y-68346920D01*
X192902412Y-68580269D01*
X193118645Y-68775178D01*
X193244255Y-68850000D01*
X193118645Y-68924822D01*
X192902412Y-69119731D01*
X192728359Y-69353080D01*
X192603175Y-69615901D01*
X192558524Y-69763110D01*
X192679845Y-69993000D01*
X193873000Y-69993000D01*
X193873000Y-67707000D01*
X192679845Y-67707000D01*
X192558524Y-67936890D01*
X190685000Y-67936890D01*
X190685000Y-61650000D01*
X192511928Y-61650000D01*
X192511928Y-63350000D01*
X192524188Y-63474482D01*
X192560498Y-63594180D01*
X192619463Y-63704494D01*
X192698815Y-63801185D01*
X192795506Y-63880537D01*
X192905820Y-63939502D01*
X192978380Y-63961513D01*
X192846525Y-64093368D01*
X192684010Y-64336589D01*
X192572068Y-64606842D01*
X192515000Y-64893740D01*
X192515000Y-65186260D01*
X192572068Y-65473158D01*
X192684010Y-65743411D01*
X192846525Y-65986632D01*
X193053368Y-66193475D01*
X193235534Y-66315195D01*
X193118645Y-66384822D01*
X192902412Y-66579731D01*
X192728359Y-66813080D01*
X192603175Y-67075901D01*
X192558524Y-67223110D01*
X192679845Y-67453000D01*
X193873000Y-67453000D01*
X193873000Y-67433000D01*
X194127000Y-67433000D01*
X194127000Y-67453000D01*
X194147000Y-67453000D01*
X194147000Y-67707000D01*
X194127000Y-67707000D01*
X194127000Y-69993000D01*
X194147000Y-69993000D01*
X194147000Y-70247000D01*
X194127000Y-70247000D01*
X194127000Y-71440814D01*
X194356891Y-71561481D01*
X194631252Y-71464157D01*
X194881355Y-71315178D01*
X195097588Y-71120269D01*
X195268900Y-70890594D01*
X195386525Y-71066632D01*
X195593368Y-71273475D01*
X195836589Y-71435990D01*
X196106842Y-71547932D01*
X196393740Y-71605000D01*
X196686260Y-71605000D01*
X196973158Y-71547932D01*
X197243411Y-71435990D01*
X197486632Y-71273475D01*
X197693475Y-71066632D01*
X197855990Y-70823411D01*
X197967932Y-70553158D01*
X198025000Y-70266260D01*
X198025000Y-69973740D01*
X198009947Y-69898061D01*
X201465000Y-69898061D01*
X201465000Y-70101939D01*
X201504774Y-70301898D01*
X201582795Y-70490256D01*
X201696063Y-70659774D01*
X201840226Y-70803937D01*
X202009744Y-70917205D01*
X202198102Y-70995226D01*
X202398061Y-71035000D01*
X202601939Y-71035000D01*
X202801898Y-70995226D01*
X202990256Y-70917205D01*
X203159774Y-70803937D01*
X203303937Y-70659774D01*
X203417205Y-70490256D01*
X203495226Y-70301898D01*
X203535000Y-70101939D01*
X203535000Y-69898061D01*
X203495226Y-69698102D01*
X203417205Y-69509744D01*
X203303937Y-69340226D01*
X203159774Y-69196063D01*
X202990256Y-69082795D01*
X202801898Y-69004774D01*
X202601939Y-68965000D01*
X202398061Y-68965000D01*
X202198102Y-69004774D01*
X202009744Y-69082795D01*
X201840226Y-69196063D01*
X201696063Y-69340226D01*
X201582795Y-69509744D01*
X201504774Y-69698102D01*
X201465000Y-69898061D01*
X198009947Y-69898061D01*
X197967932Y-69686842D01*
X197855990Y-69416589D01*
X197693475Y-69173368D01*
X197486632Y-68966525D01*
X197312240Y-68850000D01*
X197486632Y-68733475D01*
X197693475Y-68526632D01*
X197855990Y-68283411D01*
X197967932Y-68013158D01*
X198025000Y-67726260D01*
X198025000Y-67433740D01*
X198017903Y-67398061D01*
X215965000Y-67398061D01*
X215965000Y-67601939D01*
X216004774Y-67801898D01*
X216082795Y-67990256D01*
X216196063Y-68159774D01*
X216340226Y-68303937D01*
X216509744Y-68417205D01*
X216698102Y-68495226D01*
X216898061Y-68535000D01*
X217101939Y-68535000D01*
X217301898Y-68495226D01*
X217490256Y-68417205D01*
X217659774Y-68303937D01*
X217803937Y-68159774D01*
X217917205Y-67990256D01*
X217955393Y-67898061D01*
X222215000Y-67898061D01*
X222215000Y-68101939D01*
X222254774Y-68301898D01*
X222332795Y-68490256D01*
X222422828Y-68625000D01*
X222332795Y-68759744D01*
X222254774Y-68948102D01*
X222215000Y-69148061D01*
X222215000Y-69351939D01*
X222254774Y-69551898D01*
X222332795Y-69740256D01*
X222422828Y-69875000D01*
X222332795Y-70009744D01*
X222254774Y-70198102D01*
X222215000Y-70398061D01*
X222215000Y-70601939D01*
X222254774Y-70801898D01*
X222332795Y-70990256D01*
X222446063Y-71159774D01*
X222590226Y-71303937D01*
X222759744Y-71417205D01*
X222948102Y-71495226D01*
X223148061Y-71535000D01*
X223351939Y-71535000D01*
X223551898Y-71495226D01*
X223740256Y-71417205D01*
X223909774Y-71303937D01*
X224053937Y-71159774D01*
X224167205Y-70990256D01*
X224245226Y-70801898D01*
X224285000Y-70601939D01*
X224285000Y-70398061D01*
X224245226Y-70198102D01*
X224167205Y-70009744D01*
X224077172Y-69875000D01*
X224167205Y-69740256D01*
X224245226Y-69551898D01*
X224285000Y-69351939D01*
X224285000Y-69148061D01*
X224245226Y-68948102D01*
X224167205Y-68759744D01*
X224077172Y-68625000D01*
X224167205Y-68490256D01*
X224245226Y-68301898D01*
X224285000Y-68101939D01*
X224285000Y-67898061D01*
X224245226Y-67698102D01*
X224167205Y-67509744D01*
X224053937Y-67340226D01*
X223909774Y-67196063D01*
X223740256Y-67082795D01*
X223551898Y-67004774D01*
X223351939Y-66965000D01*
X223148061Y-66965000D01*
X222948102Y-67004774D01*
X222759744Y-67082795D01*
X222590226Y-67196063D01*
X222446063Y-67340226D01*
X222332795Y-67509744D01*
X222254774Y-67698102D01*
X222215000Y-67898061D01*
X217955393Y-67898061D01*
X217995226Y-67801898D01*
X218035000Y-67601939D01*
X218035000Y-67398061D01*
X217995226Y-67198102D01*
X217917205Y-67009744D01*
X217803937Y-66840226D01*
X217659774Y-66696063D01*
X217490256Y-66582795D01*
X217301898Y-66504774D01*
X217101939Y-66465000D01*
X216898061Y-66465000D01*
X216698102Y-66504774D01*
X216509744Y-66582795D01*
X216340226Y-66696063D01*
X216196063Y-66840226D01*
X216082795Y-67009744D01*
X216004774Y-67198102D01*
X215965000Y-67398061D01*
X198017903Y-67398061D01*
X197967932Y-67146842D01*
X197855990Y-66876589D01*
X197693475Y-66633368D01*
X197486632Y-66426525D01*
X197312240Y-66310000D01*
X197486632Y-66193475D01*
X197582046Y-66098061D01*
X209965000Y-66098061D01*
X209965000Y-66301939D01*
X210004774Y-66501898D01*
X210082795Y-66690256D01*
X210196063Y-66859774D01*
X210340226Y-67003937D01*
X210509744Y-67117205D01*
X210698102Y-67195226D01*
X210898061Y-67235000D01*
X211101939Y-67235000D01*
X211301898Y-67195226D01*
X211490256Y-67117205D01*
X211659774Y-67003937D01*
X211700000Y-66963711D01*
X211740226Y-67003937D01*
X211909744Y-67117205D01*
X212098102Y-67195226D01*
X212298061Y-67235000D01*
X212501939Y-67235000D01*
X212701898Y-67195226D01*
X212890256Y-67117205D01*
X213059774Y-67003937D01*
X213200000Y-66863711D01*
X213340226Y-67003937D01*
X213509744Y-67117205D01*
X213698102Y-67195226D01*
X213898061Y-67235000D01*
X214101939Y-67235000D01*
X214301898Y-67195226D01*
X214490256Y-67117205D01*
X214659774Y-67003937D01*
X214803937Y-66859774D01*
X214917205Y-66690256D01*
X214995226Y-66501898D01*
X215035000Y-66301939D01*
X215035000Y-66098061D01*
X214995226Y-65898102D01*
X214917205Y-65709744D01*
X214803937Y-65540226D01*
X214659774Y-65396063D01*
X214490256Y-65282795D01*
X214301898Y-65204774D01*
X214101939Y-65165000D01*
X213898061Y-65165000D01*
X213698102Y-65204774D01*
X213509744Y-65282795D01*
X213340226Y-65396063D01*
X213200000Y-65536289D01*
X213059774Y-65396063D01*
X212890256Y-65282795D01*
X212701898Y-65204774D01*
X212501939Y-65165000D01*
X212298061Y-65165000D01*
X212098102Y-65204774D01*
X211909744Y-65282795D01*
X211740226Y-65396063D01*
X211700000Y-65436289D01*
X211659774Y-65396063D01*
X211490256Y-65282795D01*
X211301898Y-65204774D01*
X211101939Y-65165000D01*
X210898061Y-65165000D01*
X210698102Y-65204774D01*
X210509744Y-65282795D01*
X210340226Y-65396063D01*
X210196063Y-65540226D01*
X210082795Y-65709744D01*
X210004774Y-65898102D01*
X209965000Y-66098061D01*
X197582046Y-66098061D01*
X197693475Y-65986632D01*
X197855990Y-65743411D01*
X197967932Y-65473158D01*
X198025000Y-65186260D01*
X198025000Y-64893740D01*
X197976132Y-64648061D01*
X227965000Y-64648061D01*
X227965000Y-64851939D01*
X228004774Y-65051898D01*
X228082795Y-65240256D01*
X228196063Y-65409774D01*
X228340226Y-65553937D01*
X228509744Y-65667205D01*
X228698102Y-65745226D01*
X228898061Y-65785000D01*
X229101939Y-65785000D01*
X229301898Y-65745226D01*
X229490256Y-65667205D01*
X229659774Y-65553937D01*
X229750000Y-65463711D01*
X229840226Y-65553937D01*
X230009744Y-65667205D01*
X230198102Y-65745226D01*
X230398061Y-65785000D01*
X230601939Y-65785000D01*
X230801898Y-65745226D01*
X230990256Y-65667205D01*
X231159774Y-65553937D01*
X231250000Y-65463711D01*
X231340226Y-65553937D01*
X231509744Y-65667205D01*
X231698102Y-65745226D01*
X231898061Y-65785000D01*
X232101939Y-65785000D01*
X232301898Y-65745226D01*
X232490256Y-65667205D01*
X232659774Y-65553937D01*
X232750000Y-65463711D01*
X232840226Y-65553937D01*
X233009744Y-65667205D01*
X233198102Y-65745226D01*
X233398061Y-65785000D01*
X233601939Y-65785000D01*
X233801898Y-65745226D01*
X233990256Y-65667205D01*
X234159774Y-65553937D01*
X234303937Y-65409774D01*
X234417205Y-65240256D01*
X234495226Y-65051898D01*
X234535000Y-64851939D01*
X234535000Y-64648061D01*
X234495226Y-64448102D01*
X234417205Y-64259744D01*
X234303937Y-64090226D01*
X234159774Y-63946063D01*
X233990256Y-63832795D01*
X233801898Y-63754774D01*
X233601939Y-63715000D01*
X233398061Y-63715000D01*
X233198102Y-63754774D01*
X233009744Y-63832795D01*
X232840226Y-63946063D01*
X232750000Y-64036289D01*
X232659774Y-63946063D01*
X232490256Y-63832795D01*
X232301898Y-63754774D01*
X232101939Y-63715000D01*
X231898061Y-63715000D01*
X231698102Y-63754774D01*
X231509744Y-63832795D01*
X231340226Y-63946063D01*
X231250000Y-64036289D01*
X231159774Y-63946063D01*
X230990256Y-63832795D01*
X230801898Y-63754774D01*
X230601939Y-63715000D01*
X230398061Y-63715000D01*
X230198102Y-63754774D01*
X230009744Y-63832795D01*
X229840226Y-63946063D01*
X229750000Y-64036289D01*
X229659774Y-63946063D01*
X229490256Y-63832795D01*
X229301898Y-63754774D01*
X229101939Y-63715000D01*
X228898061Y-63715000D01*
X228698102Y-63754774D01*
X228509744Y-63832795D01*
X228340226Y-63946063D01*
X228196063Y-64090226D01*
X228082795Y-64259744D01*
X228004774Y-64448102D01*
X227965000Y-64648061D01*
X197976132Y-64648061D01*
X197967932Y-64606842D01*
X197855990Y-64336589D01*
X197693475Y-64093368D01*
X197486632Y-63886525D01*
X197312240Y-63770000D01*
X197486632Y-63653475D01*
X197693475Y-63446632D01*
X197855990Y-63203411D01*
X197967932Y-62933158D01*
X198025000Y-62646260D01*
X198025000Y-62353740D01*
X197967932Y-62066842D01*
X197855990Y-61796589D01*
X197693475Y-61553368D01*
X197486632Y-61346525D01*
X197243411Y-61184010D01*
X196973158Y-61072068D01*
X196686260Y-61015000D01*
X196393740Y-61015000D01*
X196106842Y-61072068D01*
X195836589Y-61184010D01*
X195593368Y-61346525D01*
X195461513Y-61478380D01*
X195439502Y-61405820D01*
X195380537Y-61295506D01*
X195301185Y-61198815D01*
X195204494Y-61119463D01*
X195094180Y-61060498D01*
X194974482Y-61024188D01*
X194850000Y-61011928D01*
X193150000Y-61011928D01*
X193025518Y-61024188D01*
X192905820Y-61060498D01*
X192795506Y-61119463D01*
X192698815Y-61198815D01*
X192619463Y-61295506D01*
X192560498Y-61405820D01*
X192524188Y-61525518D01*
X192511928Y-61650000D01*
X190685000Y-61650000D01*
X190685000Y-60898061D01*
X200165000Y-60898061D01*
X200165000Y-61101939D01*
X200204774Y-61301898D01*
X200282795Y-61490256D01*
X200396063Y-61659774D01*
X200540226Y-61803937D01*
X200709744Y-61917205D01*
X200898102Y-61995226D01*
X201098061Y-62035000D01*
X201301939Y-62035000D01*
X201501898Y-61995226D01*
X201690256Y-61917205D01*
X201859774Y-61803937D01*
X202003937Y-61659774D01*
X202117205Y-61490256D01*
X202173752Y-61353740D01*
X231935000Y-61353740D01*
X231935000Y-61646260D01*
X231992068Y-61933158D01*
X232104010Y-62203411D01*
X232266525Y-62446632D01*
X232473368Y-62653475D01*
X232716589Y-62815990D01*
X232986842Y-62927932D01*
X233273740Y-62985000D01*
X233566260Y-62985000D01*
X233853158Y-62927932D01*
X234123411Y-62815990D01*
X234366632Y-62653475D01*
X234573475Y-62446632D01*
X234690000Y-62272240D01*
X234806525Y-62446632D01*
X235013368Y-62653475D01*
X235256589Y-62815990D01*
X235526842Y-62927932D01*
X235813740Y-62985000D01*
X236106260Y-62985000D01*
X236393158Y-62927932D01*
X236663411Y-62815990D01*
X236906632Y-62653475D01*
X237113475Y-62446632D01*
X237230000Y-62272240D01*
X237346525Y-62446632D01*
X237553368Y-62653475D01*
X237796589Y-62815990D01*
X238066842Y-62927932D01*
X238353740Y-62985000D01*
X238646260Y-62985000D01*
X238933158Y-62927932D01*
X239203411Y-62815990D01*
X239446632Y-62653475D01*
X239578487Y-62521620D01*
X239600498Y-62594180D01*
X239659463Y-62704494D01*
X239738815Y-62801185D01*
X239835506Y-62880537D01*
X239945820Y-62939502D01*
X240065518Y-62975812D01*
X240190000Y-62988072D01*
X241890000Y-62988072D01*
X242014482Y-62975812D01*
X242134180Y-62939502D01*
X242244494Y-62880537D01*
X242341185Y-62801185D01*
X242420537Y-62704494D01*
X242479502Y-62594180D01*
X242515812Y-62474482D01*
X242528072Y-62350000D01*
X242528072Y-60650000D01*
X242515812Y-60525518D01*
X242479502Y-60405820D01*
X242420537Y-60295506D01*
X242341185Y-60198815D01*
X242244494Y-60119463D01*
X242134180Y-60060498D01*
X242014482Y-60024188D01*
X241890000Y-60011928D01*
X240190000Y-60011928D01*
X240065518Y-60024188D01*
X239945820Y-60060498D01*
X239835506Y-60119463D01*
X239738815Y-60198815D01*
X239659463Y-60295506D01*
X239600498Y-60405820D01*
X239578487Y-60478380D01*
X239446632Y-60346525D01*
X239203411Y-60184010D01*
X238933158Y-60072068D01*
X238646260Y-60015000D01*
X238353740Y-60015000D01*
X238066842Y-60072068D01*
X237796589Y-60184010D01*
X237553368Y-60346525D01*
X237346525Y-60553368D01*
X237230000Y-60727760D01*
X237113475Y-60553368D01*
X236906632Y-60346525D01*
X236663411Y-60184010D01*
X236393158Y-60072068D01*
X236106260Y-60015000D01*
X235813740Y-60015000D01*
X235526842Y-60072068D01*
X235256589Y-60184010D01*
X235013368Y-60346525D01*
X234806525Y-60553368D01*
X234690000Y-60727760D01*
X234573475Y-60553368D01*
X234366632Y-60346525D01*
X234123411Y-60184010D01*
X233853158Y-60072068D01*
X233566260Y-60015000D01*
X233273740Y-60015000D01*
X232986842Y-60072068D01*
X232716589Y-60184010D01*
X232473368Y-60346525D01*
X232266525Y-60553368D01*
X232104010Y-60796589D01*
X231992068Y-61066842D01*
X231935000Y-61353740D01*
X202173752Y-61353740D01*
X202195226Y-61301898D01*
X202235000Y-61101939D01*
X202235000Y-60898061D01*
X202195226Y-60698102D01*
X202117205Y-60509744D01*
X202003937Y-60340226D01*
X201859774Y-60196063D01*
X201690256Y-60082795D01*
X201501898Y-60004774D01*
X201301939Y-59965000D01*
X201098061Y-59965000D01*
X200898102Y-60004774D01*
X200709744Y-60082795D01*
X200540226Y-60196063D01*
X200396063Y-60340226D01*
X200282795Y-60509744D01*
X200204774Y-60698102D01*
X200165000Y-60898061D01*
X190685000Y-60898061D01*
X190685000Y-56401633D01*
X213740472Y-56401633D01*
X213802965Y-56637950D01*
X214045678Y-56751350D01*
X214305849Y-56815219D01*
X214573482Y-56827104D01*
X214838291Y-56786548D01*
X215090100Y-56695109D01*
X215197035Y-56637950D01*
X215259528Y-56401633D01*
X218740472Y-56401633D01*
X218802965Y-56637950D01*
X219045678Y-56751350D01*
X219305849Y-56815219D01*
X219573482Y-56827104D01*
X219838291Y-56786548D01*
X220090100Y-56695109D01*
X220197035Y-56637950D01*
X220259528Y-56401633D01*
X219500000Y-55642105D01*
X218740472Y-56401633D01*
X215259528Y-56401633D01*
X214500000Y-55642105D01*
X213740472Y-56401633D01*
X190685000Y-56401633D01*
X190685000Y-55491653D01*
X192687952Y-55491653D01*
X192843962Y-55807214D01*
X193218745Y-55998020D01*
X193623551Y-56112044D01*
X194042824Y-56144902D01*
X194460451Y-56095334D01*
X194860383Y-55965243D01*
X195156038Y-55807214D01*
X195290132Y-55535982D01*
X213135396Y-55535982D01*
X213175952Y-55800791D01*
X213267391Y-56052600D01*
X213324550Y-56159535D01*
X213560867Y-56222028D01*
X214320395Y-55462500D01*
X214679605Y-55462500D01*
X215439133Y-56222028D01*
X215675450Y-56159535D01*
X215788850Y-55916822D01*
X215852719Y-55656651D01*
X215858077Y-55535982D01*
X218135396Y-55535982D01*
X218175952Y-55800791D01*
X218267391Y-56052600D01*
X218324550Y-56159535D01*
X218560867Y-56222028D01*
X219320395Y-55462500D01*
X219679605Y-55462500D01*
X220439133Y-56222028D01*
X220675450Y-56159535D01*
X220788850Y-55916822D01*
X220852719Y-55656651D01*
X220855287Y-55598816D01*
X223988000Y-55598816D01*
X223988000Y-55901184D01*
X224046989Y-56197743D01*
X224162701Y-56477095D01*
X224330688Y-56728505D01*
X224544495Y-56942312D01*
X224795905Y-57110299D01*
X225075257Y-57226011D01*
X225371816Y-57285000D01*
X225674184Y-57285000D01*
X225970743Y-57226011D01*
X226250095Y-57110299D01*
X226501505Y-56942312D01*
X226602500Y-56841317D01*
X226703495Y-56942312D01*
X226954905Y-57110299D01*
X227234257Y-57226011D01*
X227530816Y-57285000D01*
X227833184Y-57285000D01*
X228129743Y-57226011D01*
X228409095Y-57110299D01*
X228660505Y-56942312D01*
X228756683Y-56846135D01*
X228840578Y-56930030D01*
X228956526Y-56814082D01*
X229040208Y-57068261D01*
X229312775Y-57199158D01*
X229605642Y-57274365D01*
X229907553Y-57290991D01*
X230206907Y-57248397D01*
X230492199Y-57148222D01*
X230627892Y-57075691D01*
X230648815Y-57101185D01*
X230745506Y-57180537D01*
X230855820Y-57239502D01*
X230975518Y-57275812D01*
X231100000Y-57288072D01*
X232900000Y-57288072D01*
X233024482Y-57275812D01*
X233144180Y-57239502D01*
X233254494Y-57180537D01*
X233351185Y-57101185D01*
X233430537Y-57004494D01*
X233489502Y-56894180D01*
X233525812Y-56774482D01*
X233538072Y-56650000D01*
X233538072Y-54850000D01*
X233525812Y-54725518D01*
X233489502Y-54605820D01*
X233430537Y-54495506D01*
X233351185Y-54398815D01*
X233254494Y-54319463D01*
X233144180Y-54260498D01*
X233024482Y-54224188D01*
X232900000Y-54211928D01*
X231100000Y-54211928D01*
X230975518Y-54224188D01*
X230855820Y-54260498D01*
X230745506Y-54319463D01*
X230648815Y-54398815D01*
X230627448Y-54424851D01*
X230369225Y-54300842D01*
X230076358Y-54225635D01*
X229774447Y-54209009D01*
X229475093Y-54251603D01*
X229189801Y-54351778D01*
X229040208Y-54431739D01*
X228956526Y-54685918D01*
X228840578Y-54569970D01*
X228756683Y-54653866D01*
X228660505Y-54557688D01*
X228409095Y-54389701D01*
X228129743Y-54273989D01*
X227833184Y-54215000D01*
X227530816Y-54215000D01*
X227234257Y-54273989D01*
X226954905Y-54389701D01*
X226703495Y-54557688D01*
X226602500Y-54658683D01*
X226501505Y-54557688D01*
X226250095Y-54389701D01*
X225970743Y-54273989D01*
X225674184Y-54215000D01*
X225371816Y-54215000D01*
X225075257Y-54273989D01*
X224795905Y-54389701D01*
X224544495Y-54557688D01*
X224330688Y-54771495D01*
X224162701Y-55022905D01*
X224046989Y-55302257D01*
X223988000Y-55598816D01*
X220855287Y-55598816D01*
X220864604Y-55389018D01*
X220824048Y-55124209D01*
X220732609Y-54872400D01*
X220675450Y-54765465D01*
X220439133Y-54702972D01*
X219679605Y-55462500D01*
X219320395Y-55462500D01*
X218560867Y-54702972D01*
X218324550Y-54765465D01*
X218211150Y-55008178D01*
X218147281Y-55268349D01*
X218135396Y-55535982D01*
X215858077Y-55535982D01*
X215864604Y-55389018D01*
X215824048Y-55124209D01*
X215732609Y-54872400D01*
X215675450Y-54765465D01*
X215439133Y-54702972D01*
X214679605Y-55462500D01*
X214320395Y-55462500D01*
X213560867Y-54702972D01*
X213324550Y-54765465D01*
X213211150Y-55008178D01*
X213147281Y-55268349D01*
X213135396Y-55535982D01*
X195290132Y-55535982D01*
X195312048Y-55491653D01*
X194000000Y-54179605D01*
X192687952Y-55491653D01*
X190685000Y-55491653D01*
X190685000Y-54042824D01*
X191855098Y-54042824D01*
X191904666Y-54460451D01*
X192034757Y-54860383D01*
X192192786Y-55156038D01*
X192508347Y-55312048D01*
X193820395Y-54000000D01*
X194179605Y-54000000D01*
X195491653Y-55312048D01*
X195807214Y-55156038D01*
X195998020Y-54781255D01*
X196112044Y-54376449D01*
X196144902Y-53957176D01*
X196095334Y-53539549D01*
X196074953Y-53476890D01*
X198550048Y-53476890D01*
X198550048Y-53723110D01*
X198598083Y-53964598D01*
X198692307Y-54192074D01*
X198829099Y-54396798D01*
X199003202Y-54570901D01*
X199207926Y-54707693D01*
X199435402Y-54801917D01*
X199676890Y-54849952D01*
X199923110Y-54849952D01*
X200164598Y-54801917D01*
X200392074Y-54707693D01*
X200596798Y-54570901D01*
X200770901Y-54396798D01*
X200907693Y-54192074D01*
X201001917Y-53964598D01*
X201049952Y-53723110D01*
X201049952Y-53476890D01*
X201001917Y-53235402D01*
X200907693Y-53007926D01*
X200828564Y-52889500D01*
X212265000Y-52889500D01*
X212265000Y-53239500D01*
X212313507Y-53477996D01*
X212407610Y-53702446D01*
X212543693Y-53904225D01*
X212716526Y-54075578D01*
X212919467Y-54209921D01*
X213144718Y-54302091D01*
X213182391Y-54305962D01*
X213373000Y-54181231D01*
X213373000Y-52889500D01*
X213627000Y-52889500D01*
X213627000Y-54181231D01*
X213800862Y-54295003D01*
X213740472Y-54523367D01*
X214500000Y-55282895D01*
X215259528Y-54523367D01*
X218740472Y-54523367D01*
X219500000Y-55282895D01*
X220259528Y-54523367D01*
X220199138Y-54295003D01*
X220373000Y-54181231D01*
X220373000Y-52889500D01*
X220627000Y-52889500D01*
X220627000Y-54181231D01*
X220817609Y-54305962D01*
X220855282Y-54302091D01*
X221080533Y-54209921D01*
X221283474Y-54075578D01*
X221456307Y-53904225D01*
X221592390Y-53702446D01*
X221686493Y-53477996D01*
X221727395Y-53276890D01*
X234526048Y-53276890D01*
X234526048Y-53523110D01*
X234574083Y-53764598D01*
X234668307Y-53992074D01*
X234805099Y-54196798D01*
X234979202Y-54370901D01*
X235183926Y-54507693D01*
X235411402Y-54601917D01*
X235652890Y-54649952D01*
X235899110Y-54649952D01*
X236140598Y-54601917D01*
X236368074Y-54507693D01*
X236572798Y-54370901D01*
X236746901Y-54196798D01*
X236883693Y-53992074D01*
X236967510Y-53789721D01*
X237865000Y-53789721D01*
X237865000Y-54210279D01*
X237947047Y-54622756D01*
X238107988Y-55011302D01*
X238341637Y-55360983D01*
X238639017Y-55658363D01*
X238988698Y-55892012D01*
X239377244Y-56052953D01*
X239789721Y-56135000D01*
X240210279Y-56135000D01*
X240622756Y-56052953D01*
X241011302Y-55892012D01*
X241360983Y-55658363D01*
X241658363Y-55360983D01*
X241892012Y-55011302D01*
X242052953Y-54622756D01*
X242135000Y-54210279D01*
X242135000Y-53789721D01*
X242052953Y-53377244D01*
X241892012Y-52988698D01*
X241658363Y-52639017D01*
X241360983Y-52341637D01*
X241011302Y-52107988D01*
X240622756Y-51947047D01*
X240210279Y-51865000D01*
X239789721Y-51865000D01*
X239377244Y-51947047D01*
X238988698Y-52107988D01*
X238639017Y-52341637D01*
X238341637Y-52639017D01*
X238107988Y-52988698D01*
X237947047Y-53377244D01*
X237865000Y-53789721D01*
X236967510Y-53789721D01*
X236977917Y-53764598D01*
X237025952Y-53523110D01*
X237025952Y-53276890D01*
X236977917Y-53035402D01*
X236883693Y-52807926D01*
X236746901Y-52603202D01*
X236572798Y-52429099D01*
X236368074Y-52292307D01*
X236140598Y-52198083D01*
X235899110Y-52150048D01*
X235652890Y-52150048D01*
X235411402Y-52198083D01*
X235183926Y-52292307D01*
X234979202Y-52429099D01*
X234805099Y-52603202D01*
X234668307Y-52807926D01*
X234574083Y-53035402D01*
X234526048Y-53276890D01*
X221727395Y-53276890D01*
X221735000Y-53239500D01*
X221735000Y-52889500D01*
X220627000Y-52889500D01*
X220373000Y-52889500D01*
X219265000Y-52889500D01*
X219265000Y-53239500D01*
X219313507Y-53477996D01*
X219407610Y-53702446D01*
X219543693Y-53904225D01*
X219716526Y-54075578D01*
X219811836Y-54138671D01*
X219694151Y-54109781D01*
X219426518Y-54097896D01*
X219161709Y-54138452D01*
X218909900Y-54229891D01*
X218802965Y-54287050D01*
X218740472Y-54523367D01*
X215259528Y-54523367D01*
X215197035Y-54287050D01*
X214954322Y-54173650D01*
X214694151Y-54109781D01*
X214426518Y-54097896D01*
X214196558Y-54133115D01*
X214283474Y-54075578D01*
X214456307Y-53904225D01*
X214592390Y-53702446D01*
X214686493Y-53477996D01*
X214735000Y-53239500D01*
X214735000Y-52889500D01*
X213627000Y-52889500D01*
X213373000Y-52889500D01*
X212265000Y-52889500D01*
X200828564Y-52889500D01*
X200770901Y-52803202D01*
X200596798Y-52629099D01*
X200392074Y-52492307D01*
X200164598Y-52398083D01*
X199923110Y-52350048D01*
X199676890Y-52350048D01*
X199435402Y-52398083D01*
X199207926Y-52492307D01*
X199003202Y-52629099D01*
X198829099Y-52803202D01*
X198692307Y-53007926D01*
X198598083Y-53235402D01*
X198550048Y-53476890D01*
X196074953Y-53476890D01*
X195965243Y-53139617D01*
X195807214Y-52843962D01*
X195491653Y-52687952D01*
X194179605Y-54000000D01*
X193820395Y-54000000D01*
X192508347Y-52687952D01*
X192192786Y-52843962D01*
X192001980Y-53218745D01*
X191887956Y-53623551D01*
X191855098Y-54042824D01*
X190685000Y-54042824D01*
X190685000Y-52508347D01*
X192687952Y-52508347D01*
X194000000Y-53820395D01*
X195312048Y-52508347D01*
X195201875Y-52285500D01*
X212265000Y-52285500D01*
X212265000Y-52635500D01*
X213373000Y-52635500D01*
X213373000Y-51343769D01*
X213627000Y-51343769D01*
X213627000Y-52635500D01*
X214735000Y-52635500D01*
X214735000Y-52285500D01*
X219265000Y-52285500D01*
X219265000Y-52635500D01*
X220373000Y-52635500D01*
X220373000Y-51343769D01*
X220627000Y-51343769D01*
X220627000Y-52635500D01*
X221735000Y-52635500D01*
X221735000Y-52285500D01*
X221686493Y-52047004D01*
X221592390Y-51822554D01*
X221456307Y-51620775D01*
X221283474Y-51449422D01*
X221080533Y-51315079D01*
X220855282Y-51222909D01*
X220817609Y-51219038D01*
X220627000Y-51343769D01*
X220373000Y-51343769D01*
X220182391Y-51219038D01*
X220144718Y-51222909D01*
X219919467Y-51315079D01*
X219716526Y-51449422D01*
X219543693Y-51620775D01*
X219407610Y-51822554D01*
X219313507Y-52047004D01*
X219265000Y-52285500D01*
X214735000Y-52285500D01*
X214686493Y-52047004D01*
X214592390Y-51822554D01*
X214456307Y-51620775D01*
X214283474Y-51449422D01*
X214080533Y-51315079D01*
X213855282Y-51222909D01*
X213817609Y-51219038D01*
X213627000Y-51343769D01*
X213373000Y-51343769D01*
X213182391Y-51219038D01*
X213144718Y-51222909D01*
X212919467Y-51315079D01*
X212716526Y-51449422D01*
X212543693Y-51620775D01*
X212407610Y-51822554D01*
X212313507Y-52047004D01*
X212265000Y-52285500D01*
X195201875Y-52285500D01*
X195156038Y-52192786D01*
X194781255Y-52001980D01*
X194376449Y-51887956D01*
X193957176Y-51855098D01*
X193539549Y-51904666D01*
X193139617Y-52034757D01*
X192843962Y-52192786D01*
X192687952Y-52508347D01*
X190685000Y-52508347D01*
X190685000Y-50685000D01*
X243315000Y-50685000D01*
X243315001Y-119315000D01*
G37*
%TD.AperFunction*%
D21*
X230034748Y-55735858D02*
X230020605Y-55750000D01*
X230034748Y-55764143D01*
X229855143Y-55943748D01*
X229841000Y-55929605D01*
X229826858Y-55943748D01*
X229647253Y-55764143D01*
X229661395Y-55750000D01*
X229647253Y-55735858D01*
X229826858Y-55556253D01*
X229841000Y-55570395D01*
X229855143Y-55556253D01*
X230034748Y-55735858D01*
%TA.AperFunction,Conductor*%
D22*
G36*
X230034748Y-55735858D02*
G01*
X230020605Y-55750000D01*
X230034748Y-55764143D01*
X229855143Y-55943748D01*
X229841000Y-55929605D01*
X229826858Y-55943748D01*
X229647253Y-55764143D01*
X229661395Y-55750000D01*
X229647253Y-55735858D01*
X229826858Y-55556253D01*
X229841000Y-55570395D01*
X229855143Y-55556253D01*
X230034748Y-55735858D01*
G37*
%TD.AperFunction*%
%TD*%
M02*
