%TF.GenerationSoftware,KiCad,Pcbnew,(5.1.10)-1*%
%TF.CreationDate,2021-11-12T17:46:38-08:00*%
%TF.ProjectId,mouse_proj,6d6f7573-655f-4707-926f-6a2e6b696361,rev?*%
%TF.SameCoordinates,Original*%
%TF.FileFunction,Copper,L1,Top*%
%TF.FilePolarity,Positive*%
%FSLAX46Y46*%
G04 Gerber Fmt 4.6, Leading zero omitted, Abs format (unit mm)*
G04 Created by KiCad (PCBNEW (5.1.10)-1) date 2021-11-12 17:46:38*
%MOMM*%
%LPD*%
G01*
G04 APERTURE LIST*
%TA.AperFunction,ComponentPad*%
%ADD10C,2.000000*%
%TD*%
%TA.AperFunction,ComponentPad*%
%ADD11R,1.800000X1.800000*%
%TD*%
%TA.AperFunction,ComponentPad*%
%ADD12C,1.800000*%
%TD*%
%TA.AperFunction,SMDPad,CuDef*%
%ADD13R,1.500000X1.900000*%
%TD*%
%TA.AperFunction,ComponentPad*%
%ADD14C,1.450000*%
%TD*%
%TA.AperFunction,SMDPad,CuDef*%
%ADD15R,0.400000X1.350000*%
%TD*%
%TA.AperFunction,ComponentPad*%
%ADD16O,1.200000X1.900000*%
%TD*%
%TA.AperFunction,SMDPad,CuDef*%
%ADD17R,1.200000X1.900000*%
%TD*%
%TA.AperFunction,ComponentPad*%
%ADD18R,1.700000X1.700000*%
%TD*%
%TA.AperFunction,ComponentPad*%
%ADD19O,1.700000X1.700000*%
%TD*%
%TA.AperFunction,SMDPad,CuDef*%
%ADD20R,0.700000X1.500000*%
%TD*%
%TA.AperFunction,SMDPad,CuDef*%
%ADD21R,1.000000X0.800000*%
%TD*%
%TA.AperFunction,ComponentPad*%
%ADD22R,2.000000X3.200000*%
%TD*%
%TA.AperFunction,ComponentPad*%
%ADD23R,2.000000X2.000000*%
%TD*%
%TA.AperFunction,ComponentPad*%
%ADD24C,3.000000*%
%TD*%
%TA.AperFunction,SMDPad,CuDef*%
%ADD25R,0.650000X1.060000*%
%TD*%
%TA.AperFunction,SMDPad,CuDef*%
%ADD26R,0.900000X1.200000*%
%TD*%
%TA.AperFunction,SMDPad,CuDef*%
%ADD27R,1.060000X0.650000*%
%TD*%
%TA.AperFunction,SMDPad,CuDef*%
%ADD28R,1.400000X1.200000*%
%TD*%
%TA.AperFunction,ViaPad*%
%ADD29C,0.800000*%
%TD*%
%TA.AperFunction,Conductor*%
%ADD30C,0.300000*%
%TD*%
%TA.AperFunction,Conductor*%
%ADD31C,1.000000*%
%TD*%
%TA.AperFunction,Conductor*%
%ADD32C,0.250000*%
%TD*%
%TA.AperFunction,Conductor*%
%ADD33C,0.261112*%
%TD*%
G04 APERTURE END LIST*
%TO.P,U3,1*%
%TO.N,+3V3*%
%TA.AperFunction,SMDPad,CuDef*%
G36*
G01*
X216825000Y-77450000D02*
X216675000Y-77450000D01*
G75*
G02*
X216600000Y-77375000I0J75000D01*
G01*
X216600000Y-75975000D01*
G75*
G02*
X216675000Y-75900000I75000J0D01*
G01*
X216825000Y-75900000D01*
G75*
G02*
X216900000Y-75975000I0J-75000D01*
G01*
X216900000Y-77375000D01*
G75*
G02*
X216825000Y-77450000I-75000J0D01*
G01*
G37*
%TD.AperFunction*%
%TO.P,U3,2*%
%TO.N,MOUSE00*%
%TA.AperFunction,SMDPad,CuDef*%
G36*
G01*
X217325000Y-77450000D02*
X217175000Y-77450000D01*
G75*
G02*
X217100000Y-77375000I0J75000D01*
G01*
X217100000Y-75975000D01*
G75*
G02*
X217175000Y-75900000I75000J0D01*
G01*
X217325000Y-75900000D01*
G75*
G02*
X217400000Y-75975000I0J-75000D01*
G01*
X217400000Y-77375000D01*
G75*
G02*
X217325000Y-77450000I-75000J0D01*
G01*
G37*
%TD.AperFunction*%
%TO.P,U3,3*%
%TO.N,MOUSE01*%
%TA.AperFunction,SMDPad,CuDef*%
G36*
G01*
X217825000Y-77450000D02*
X217675000Y-77450000D01*
G75*
G02*
X217600000Y-77375000I0J75000D01*
G01*
X217600000Y-75975000D01*
G75*
G02*
X217675000Y-75900000I75000J0D01*
G01*
X217825000Y-75900000D01*
G75*
G02*
X217900000Y-75975000I0J-75000D01*
G01*
X217900000Y-77375000D01*
G75*
G02*
X217825000Y-77450000I-75000J0D01*
G01*
G37*
%TD.AperFunction*%
%TO.P,U3,4*%
%TO.N,MOUSE02*%
%TA.AperFunction,SMDPad,CuDef*%
G36*
G01*
X218325000Y-77450000D02*
X218175000Y-77450000D01*
G75*
G02*
X218100000Y-77375000I0J75000D01*
G01*
X218100000Y-75975000D01*
G75*
G02*
X218175000Y-75900000I75000J0D01*
G01*
X218325000Y-75900000D01*
G75*
G02*
X218400000Y-75975000I0J-75000D01*
G01*
X218400000Y-77375000D01*
G75*
G02*
X218325000Y-77450000I-75000J0D01*
G01*
G37*
%TD.AperFunction*%
%TO.P,U3,5*%
%TO.N,HSE_IN*%
%TA.AperFunction,SMDPad,CuDef*%
G36*
G01*
X218825000Y-77450000D02*
X218675000Y-77450000D01*
G75*
G02*
X218600000Y-77375000I0J75000D01*
G01*
X218600000Y-75975000D01*
G75*
G02*
X218675000Y-75900000I75000J0D01*
G01*
X218825000Y-75900000D01*
G75*
G02*
X218900000Y-75975000I0J-75000D01*
G01*
X218900000Y-77375000D01*
G75*
G02*
X218825000Y-77450000I-75000J0D01*
G01*
G37*
%TD.AperFunction*%
%TO.P,U3,6*%
%TO.N,HSE_OUT*%
%TA.AperFunction,SMDPad,CuDef*%
G36*
G01*
X219325000Y-77450000D02*
X219175000Y-77450000D01*
G75*
G02*
X219100000Y-77375000I0J75000D01*
G01*
X219100000Y-75975000D01*
G75*
G02*
X219175000Y-75900000I75000J0D01*
G01*
X219325000Y-75900000D01*
G75*
G02*
X219400000Y-75975000I0J-75000D01*
G01*
X219400000Y-77375000D01*
G75*
G02*
X219325000Y-77450000I-75000J0D01*
G01*
G37*
%TD.AperFunction*%
%TO.P,U3,7*%
%TO.N,NRST*%
%TA.AperFunction,SMDPad,CuDef*%
G36*
G01*
X219825000Y-77450000D02*
X219675000Y-77450000D01*
G75*
G02*
X219600000Y-77375000I0J75000D01*
G01*
X219600000Y-75975000D01*
G75*
G02*
X219675000Y-75900000I75000J0D01*
G01*
X219825000Y-75900000D01*
G75*
G02*
X219900000Y-75975000I0J-75000D01*
G01*
X219900000Y-77375000D01*
G75*
G02*
X219825000Y-77450000I-75000J0D01*
G01*
G37*
%TD.AperFunction*%
%TO.P,U3,8*%
%TO.N,MOUSE03*%
%TA.AperFunction,SMDPad,CuDef*%
G36*
G01*
X220325000Y-77450000D02*
X220175000Y-77450000D01*
G75*
G02*
X220100000Y-77375000I0J75000D01*
G01*
X220100000Y-75975000D01*
G75*
G02*
X220175000Y-75900000I75000J0D01*
G01*
X220325000Y-75900000D01*
G75*
G02*
X220400000Y-75975000I0J-75000D01*
G01*
X220400000Y-77375000D01*
G75*
G02*
X220325000Y-77450000I-75000J0D01*
G01*
G37*
%TD.AperFunction*%
%TO.P,U3,9*%
%TO.N,MOUSE04*%
%TA.AperFunction,SMDPad,CuDef*%
G36*
G01*
X220825000Y-77450000D02*
X220675000Y-77450000D01*
G75*
G02*
X220600000Y-77375000I0J75000D01*
G01*
X220600000Y-75975000D01*
G75*
G02*
X220675000Y-75900000I75000J0D01*
G01*
X220825000Y-75900000D01*
G75*
G02*
X220900000Y-75975000I0J-75000D01*
G01*
X220900000Y-77375000D01*
G75*
G02*
X220825000Y-77450000I-75000J0D01*
G01*
G37*
%TD.AperFunction*%
%TO.P,U3,10*%
%TO.N,MOUSE05*%
%TA.AperFunction,SMDPad,CuDef*%
G36*
G01*
X221325000Y-77450000D02*
X221175000Y-77450000D01*
G75*
G02*
X221100000Y-77375000I0J75000D01*
G01*
X221100000Y-75975000D01*
G75*
G02*
X221175000Y-75900000I75000J0D01*
G01*
X221325000Y-75900000D01*
G75*
G02*
X221400000Y-75975000I0J-75000D01*
G01*
X221400000Y-77375000D01*
G75*
G02*
X221325000Y-77450000I-75000J0D01*
G01*
G37*
%TD.AperFunction*%
%TO.P,U3,11*%
%TO.N,MOUSE06*%
%TA.AperFunction,SMDPad,CuDef*%
G36*
G01*
X221825000Y-77450000D02*
X221675000Y-77450000D01*
G75*
G02*
X221600000Y-77375000I0J75000D01*
G01*
X221600000Y-75975000D01*
G75*
G02*
X221675000Y-75900000I75000J0D01*
G01*
X221825000Y-75900000D01*
G75*
G02*
X221900000Y-75975000I0J-75000D01*
G01*
X221900000Y-77375000D01*
G75*
G02*
X221825000Y-77450000I-75000J0D01*
G01*
G37*
%TD.AperFunction*%
%TO.P,U3,12*%
%TO.N,GND*%
%TA.AperFunction,SMDPad,CuDef*%
G36*
G01*
X222325000Y-77450000D02*
X222175000Y-77450000D01*
G75*
G02*
X222100000Y-77375000I0J75000D01*
G01*
X222100000Y-75975000D01*
G75*
G02*
X222175000Y-75900000I75000J0D01*
G01*
X222325000Y-75900000D01*
G75*
G02*
X222400000Y-75975000I0J-75000D01*
G01*
X222400000Y-77375000D01*
G75*
G02*
X222325000Y-77450000I-75000J0D01*
G01*
G37*
%TD.AperFunction*%
%TO.P,U3,13*%
%TO.N,+3V3*%
%TA.AperFunction,SMDPad,CuDef*%
G36*
G01*
X222825000Y-77450000D02*
X222675000Y-77450000D01*
G75*
G02*
X222600000Y-77375000I0J75000D01*
G01*
X222600000Y-75975000D01*
G75*
G02*
X222675000Y-75900000I75000J0D01*
G01*
X222825000Y-75900000D01*
G75*
G02*
X222900000Y-75975000I0J-75000D01*
G01*
X222900000Y-77375000D01*
G75*
G02*
X222825000Y-77450000I-75000J0D01*
G01*
G37*
%TD.AperFunction*%
%TO.P,U3,14*%
%TO.N,MOUSE07*%
%TA.AperFunction,SMDPad,CuDef*%
G36*
G01*
X223325000Y-77450000D02*
X223175000Y-77450000D01*
G75*
G02*
X223100000Y-77375000I0J75000D01*
G01*
X223100000Y-75975000D01*
G75*
G02*
X223175000Y-75900000I75000J0D01*
G01*
X223325000Y-75900000D01*
G75*
G02*
X223400000Y-75975000I0J-75000D01*
G01*
X223400000Y-77375000D01*
G75*
G02*
X223325000Y-77450000I-75000J0D01*
G01*
G37*
%TD.AperFunction*%
%TO.P,U3,15*%
%TO.N,MOUSE08*%
%TA.AperFunction,SMDPad,CuDef*%
G36*
G01*
X223825000Y-77450000D02*
X223675000Y-77450000D01*
G75*
G02*
X223600000Y-77375000I0J75000D01*
G01*
X223600000Y-75975000D01*
G75*
G02*
X223675000Y-75900000I75000J0D01*
G01*
X223825000Y-75900000D01*
G75*
G02*
X223900000Y-75975000I0J-75000D01*
G01*
X223900000Y-77375000D01*
G75*
G02*
X223825000Y-77450000I-75000J0D01*
G01*
G37*
%TD.AperFunction*%
%TO.P,U3,16*%
%TO.N,MOUSE09*%
%TA.AperFunction,SMDPad,CuDef*%
G36*
G01*
X224325000Y-77450000D02*
X224175000Y-77450000D01*
G75*
G02*
X224100000Y-77375000I0J75000D01*
G01*
X224100000Y-75975000D01*
G75*
G02*
X224175000Y-75900000I75000J0D01*
G01*
X224325000Y-75900000D01*
G75*
G02*
X224400000Y-75975000I0J-75000D01*
G01*
X224400000Y-77375000D01*
G75*
G02*
X224325000Y-77450000I-75000J0D01*
G01*
G37*
%TD.AperFunction*%
%TO.P,U3,17*%
%TO.N,MOUSE10*%
%TA.AperFunction,SMDPad,CuDef*%
G36*
G01*
X226875000Y-74900000D02*
X225475000Y-74900000D01*
G75*
G02*
X225400000Y-74825000I0J75000D01*
G01*
X225400000Y-74675000D01*
G75*
G02*
X225475000Y-74600000I75000J0D01*
G01*
X226875000Y-74600000D01*
G75*
G02*
X226950000Y-74675000I0J-75000D01*
G01*
X226950000Y-74825000D01*
G75*
G02*
X226875000Y-74900000I-75000J0D01*
G01*
G37*
%TD.AperFunction*%
%TO.P,U3,18*%
%TO.N,GND*%
%TA.AperFunction,SMDPad,CuDef*%
G36*
G01*
X226875000Y-74400000D02*
X225475000Y-74400000D01*
G75*
G02*
X225400000Y-74325000I0J75000D01*
G01*
X225400000Y-74175000D01*
G75*
G02*
X225475000Y-74100000I75000J0D01*
G01*
X226875000Y-74100000D01*
G75*
G02*
X226950000Y-74175000I0J-75000D01*
G01*
X226950000Y-74325000D01*
G75*
G02*
X226875000Y-74400000I-75000J0D01*
G01*
G37*
%TD.AperFunction*%
%TO.P,U3,19*%
%TO.N,+3V3*%
%TA.AperFunction,SMDPad,CuDef*%
G36*
G01*
X226875000Y-73900000D02*
X225475000Y-73900000D01*
G75*
G02*
X225400000Y-73825000I0J75000D01*
G01*
X225400000Y-73675000D01*
G75*
G02*
X225475000Y-73600000I75000J0D01*
G01*
X226875000Y-73600000D01*
G75*
G02*
X226950000Y-73675000I0J-75000D01*
G01*
X226950000Y-73825000D01*
G75*
G02*
X226875000Y-73900000I-75000J0D01*
G01*
G37*
%TD.AperFunction*%
%TO.P,U3,20*%
%TO.N,SPI1_CSN*%
%TA.AperFunction,SMDPad,CuDef*%
G36*
G01*
X226875000Y-73400000D02*
X225475000Y-73400000D01*
G75*
G02*
X225400000Y-73325000I0J75000D01*
G01*
X225400000Y-73175000D01*
G75*
G02*
X225475000Y-73100000I75000J0D01*
G01*
X226875000Y-73100000D01*
G75*
G02*
X226950000Y-73175000I0J-75000D01*
G01*
X226950000Y-73325000D01*
G75*
G02*
X226875000Y-73400000I-75000J0D01*
G01*
G37*
%TD.AperFunction*%
%TO.P,U3,21*%
%TO.N,SPI1_SCLK*%
%TA.AperFunction,SMDPad,CuDef*%
G36*
G01*
X226875000Y-72900000D02*
X225475000Y-72900000D01*
G75*
G02*
X225400000Y-72825000I0J75000D01*
G01*
X225400000Y-72675000D01*
G75*
G02*
X225475000Y-72600000I75000J0D01*
G01*
X226875000Y-72600000D01*
G75*
G02*
X226950000Y-72675000I0J-75000D01*
G01*
X226950000Y-72825000D01*
G75*
G02*
X226875000Y-72900000I-75000J0D01*
G01*
G37*
%TD.AperFunction*%
%TO.P,U3,22*%
%TO.N,SPI1_MISO*%
%TA.AperFunction,SMDPad,CuDef*%
G36*
G01*
X226875000Y-72400000D02*
X225475000Y-72400000D01*
G75*
G02*
X225400000Y-72325000I0J75000D01*
G01*
X225400000Y-72175000D01*
G75*
G02*
X225475000Y-72100000I75000J0D01*
G01*
X226875000Y-72100000D01*
G75*
G02*
X226950000Y-72175000I0J-75000D01*
G01*
X226950000Y-72325000D01*
G75*
G02*
X226875000Y-72400000I-75000J0D01*
G01*
G37*
%TD.AperFunction*%
%TO.P,U3,23*%
%TO.N,SPI1_MOSI*%
%TA.AperFunction,SMDPad,CuDef*%
G36*
G01*
X226875000Y-71900000D02*
X225475000Y-71900000D01*
G75*
G02*
X225400000Y-71825000I0J75000D01*
G01*
X225400000Y-71675000D01*
G75*
G02*
X225475000Y-71600000I75000J0D01*
G01*
X226875000Y-71600000D01*
G75*
G02*
X226950000Y-71675000I0J-75000D01*
G01*
X226950000Y-71825000D01*
G75*
G02*
X226875000Y-71900000I-75000J0D01*
G01*
G37*
%TD.AperFunction*%
%TO.P,U3,24*%
%TO.N,MOTION_TRACK*%
%TA.AperFunction,SMDPad,CuDef*%
G36*
G01*
X226875000Y-71400000D02*
X225475000Y-71400000D01*
G75*
G02*
X225400000Y-71325000I0J75000D01*
G01*
X225400000Y-71175000D01*
G75*
G02*
X225475000Y-71100000I75000J0D01*
G01*
X226875000Y-71100000D01*
G75*
G02*
X226950000Y-71175000I0J-75000D01*
G01*
X226950000Y-71325000D01*
G75*
G02*
X226875000Y-71400000I-75000J0D01*
G01*
G37*
%TD.AperFunction*%
%TO.P,U3,25*%
%TO.N,MOUSE11*%
%TA.AperFunction,SMDPad,CuDef*%
G36*
G01*
X226875000Y-70900000D02*
X225475000Y-70900000D01*
G75*
G02*
X225400000Y-70825000I0J75000D01*
G01*
X225400000Y-70675000D01*
G75*
G02*
X225475000Y-70600000I75000J0D01*
G01*
X226875000Y-70600000D01*
G75*
G02*
X226950000Y-70675000I0J-75000D01*
G01*
X226950000Y-70825000D01*
G75*
G02*
X226875000Y-70900000I-75000J0D01*
G01*
G37*
%TD.AperFunction*%
%TO.P,U3,26*%
%TO.N,MOUSE12*%
%TA.AperFunction,SMDPad,CuDef*%
G36*
G01*
X226875000Y-70400000D02*
X225475000Y-70400000D01*
G75*
G02*
X225400000Y-70325000I0J75000D01*
G01*
X225400000Y-70175000D01*
G75*
G02*
X225475000Y-70100000I75000J0D01*
G01*
X226875000Y-70100000D01*
G75*
G02*
X226950000Y-70175000I0J-75000D01*
G01*
X226950000Y-70325000D01*
G75*
G02*
X226875000Y-70400000I-75000J0D01*
G01*
G37*
%TD.AperFunction*%
%TO.P,U3,27*%
%TO.N,MOUSE13*%
%TA.AperFunction,SMDPad,CuDef*%
G36*
G01*
X226875000Y-69900000D02*
X225475000Y-69900000D01*
G75*
G02*
X225400000Y-69825000I0J75000D01*
G01*
X225400000Y-69675000D01*
G75*
G02*
X225475000Y-69600000I75000J0D01*
G01*
X226875000Y-69600000D01*
G75*
G02*
X226950000Y-69675000I0J-75000D01*
G01*
X226950000Y-69825000D01*
G75*
G02*
X226875000Y-69900000I-75000J0D01*
G01*
G37*
%TD.AperFunction*%
%TO.P,U3,28*%
%TO.N,MOUSE14*%
%TA.AperFunction,SMDPad,CuDef*%
G36*
G01*
X226875000Y-69400000D02*
X225475000Y-69400000D01*
G75*
G02*
X225400000Y-69325000I0J75000D01*
G01*
X225400000Y-69175000D01*
G75*
G02*
X225475000Y-69100000I75000J0D01*
G01*
X226875000Y-69100000D01*
G75*
G02*
X226950000Y-69175000I0J-75000D01*
G01*
X226950000Y-69325000D01*
G75*
G02*
X226875000Y-69400000I-75000J0D01*
G01*
G37*
%TD.AperFunction*%
%TO.P,U3,29*%
%TO.N,MOUSE15*%
%TA.AperFunction,SMDPad,CuDef*%
G36*
G01*
X226875000Y-68900000D02*
X225475000Y-68900000D01*
G75*
G02*
X225400000Y-68825000I0J75000D01*
G01*
X225400000Y-68675000D01*
G75*
G02*
X225475000Y-68600000I75000J0D01*
G01*
X226875000Y-68600000D01*
G75*
G02*
X226950000Y-68675000I0J-75000D01*
G01*
X226950000Y-68825000D01*
G75*
G02*
X226875000Y-68900000I-75000J0D01*
G01*
G37*
%TD.AperFunction*%
%TO.P,U3,30*%
%TO.N,Net-(C19-Pad1)*%
%TA.AperFunction,SMDPad,CuDef*%
G36*
G01*
X226875000Y-68400000D02*
X225475000Y-68400000D01*
G75*
G02*
X225400000Y-68325000I0J75000D01*
G01*
X225400000Y-68175000D01*
G75*
G02*
X225475000Y-68100000I75000J0D01*
G01*
X226875000Y-68100000D01*
G75*
G02*
X226950000Y-68175000I0J-75000D01*
G01*
X226950000Y-68325000D01*
G75*
G02*
X226875000Y-68400000I-75000J0D01*
G01*
G37*
%TD.AperFunction*%
%TO.P,U3,31*%
%TO.N,GND*%
%TA.AperFunction,SMDPad,CuDef*%
G36*
G01*
X226875000Y-67900000D02*
X225475000Y-67900000D01*
G75*
G02*
X225400000Y-67825000I0J75000D01*
G01*
X225400000Y-67675000D01*
G75*
G02*
X225475000Y-67600000I75000J0D01*
G01*
X226875000Y-67600000D01*
G75*
G02*
X226950000Y-67675000I0J-75000D01*
G01*
X226950000Y-67825000D01*
G75*
G02*
X226875000Y-67900000I-75000J0D01*
G01*
G37*
%TD.AperFunction*%
%TO.P,U3,32*%
%TO.N,+3V3*%
%TA.AperFunction,SMDPad,CuDef*%
G36*
G01*
X226875000Y-67400000D02*
X225475000Y-67400000D01*
G75*
G02*
X225400000Y-67325000I0J75000D01*
G01*
X225400000Y-67175000D01*
G75*
G02*
X225475000Y-67100000I75000J0D01*
G01*
X226875000Y-67100000D01*
G75*
G02*
X226950000Y-67175000I0J-75000D01*
G01*
X226950000Y-67325000D01*
G75*
G02*
X226875000Y-67400000I-75000J0D01*
G01*
G37*
%TD.AperFunction*%
%TO.P,U3,33*%
%TO.N,MOUSE16*%
%TA.AperFunction,SMDPad,CuDef*%
G36*
G01*
X224325000Y-66100000D02*
X224175000Y-66100000D01*
G75*
G02*
X224100000Y-66025000I0J75000D01*
G01*
X224100000Y-64625000D01*
G75*
G02*
X224175000Y-64550000I75000J0D01*
G01*
X224325000Y-64550000D01*
G75*
G02*
X224400000Y-64625000I0J-75000D01*
G01*
X224400000Y-66025000D01*
G75*
G02*
X224325000Y-66100000I-75000J0D01*
G01*
G37*
%TD.AperFunction*%
%TO.P,U3,34*%
%TO.N,MOUSE17*%
%TA.AperFunction,SMDPad,CuDef*%
G36*
G01*
X223825000Y-66100000D02*
X223675000Y-66100000D01*
G75*
G02*
X223600000Y-66025000I0J75000D01*
G01*
X223600000Y-64625000D01*
G75*
G02*
X223675000Y-64550000I75000J0D01*
G01*
X223825000Y-64550000D01*
G75*
G02*
X223900000Y-64625000I0J-75000D01*
G01*
X223900000Y-66025000D01*
G75*
G02*
X223825000Y-66100000I-75000J0D01*
G01*
G37*
%TD.AperFunction*%
%TO.P,U3,35*%
%TO.N,MOUSE18*%
%TA.AperFunction,SMDPad,CuDef*%
G36*
G01*
X223325000Y-66100000D02*
X223175000Y-66100000D01*
G75*
G02*
X223100000Y-66025000I0J75000D01*
G01*
X223100000Y-64625000D01*
G75*
G02*
X223175000Y-64550000I75000J0D01*
G01*
X223325000Y-64550000D01*
G75*
G02*
X223400000Y-64625000I0J-75000D01*
G01*
X223400000Y-66025000D01*
G75*
G02*
X223325000Y-66100000I-75000J0D01*
G01*
G37*
%TD.AperFunction*%
%TO.P,U3,36*%
%TO.N,MOUSE19*%
%TA.AperFunction,SMDPad,CuDef*%
G36*
G01*
X222825000Y-66100000D02*
X222675000Y-66100000D01*
G75*
G02*
X222600000Y-66025000I0J75000D01*
G01*
X222600000Y-64625000D01*
G75*
G02*
X222675000Y-64550000I75000J0D01*
G01*
X222825000Y-64550000D01*
G75*
G02*
X222900000Y-64625000I0J-75000D01*
G01*
X222900000Y-66025000D01*
G75*
G02*
X222825000Y-66100000I-75000J0D01*
G01*
G37*
%TD.AperFunction*%
%TO.P,U3,37*%
%TO.N,TIM3_CH1_LEDR*%
%TA.AperFunction,SMDPad,CuDef*%
G36*
G01*
X222325000Y-66100000D02*
X222175000Y-66100000D01*
G75*
G02*
X222100000Y-66025000I0J75000D01*
G01*
X222100000Y-64625000D01*
G75*
G02*
X222175000Y-64550000I75000J0D01*
G01*
X222325000Y-64550000D01*
G75*
G02*
X222400000Y-64625000I0J-75000D01*
G01*
X222400000Y-66025000D01*
G75*
G02*
X222325000Y-66100000I-75000J0D01*
G01*
G37*
%TD.AperFunction*%
%TO.P,U3,38*%
%TO.N,TIM3_CH2_LEDG*%
%TA.AperFunction,SMDPad,CuDef*%
G36*
G01*
X221825000Y-66100000D02*
X221675000Y-66100000D01*
G75*
G02*
X221600000Y-66025000I0J75000D01*
G01*
X221600000Y-64625000D01*
G75*
G02*
X221675000Y-64550000I75000J0D01*
G01*
X221825000Y-64550000D01*
G75*
G02*
X221900000Y-64625000I0J-75000D01*
G01*
X221900000Y-66025000D01*
G75*
G02*
X221825000Y-66100000I-75000J0D01*
G01*
G37*
%TD.AperFunction*%
%TO.P,U3,39*%
%TO.N,TIM3_CH3_LEDB*%
%TA.AperFunction,SMDPad,CuDef*%
G36*
G01*
X221325000Y-66100000D02*
X221175000Y-66100000D01*
G75*
G02*
X221100000Y-66025000I0J75000D01*
G01*
X221100000Y-64625000D01*
G75*
G02*
X221175000Y-64550000I75000J0D01*
G01*
X221325000Y-64550000D01*
G75*
G02*
X221400000Y-64625000I0J-75000D01*
G01*
X221400000Y-66025000D01*
G75*
G02*
X221325000Y-66100000I-75000J0D01*
G01*
G37*
%TD.AperFunction*%
%TO.P,U3,40*%
%TO.N,N/C*%
%TA.AperFunction,SMDPad,CuDef*%
G36*
G01*
X220825000Y-66100000D02*
X220675000Y-66100000D01*
G75*
G02*
X220600000Y-66025000I0J75000D01*
G01*
X220600000Y-64625000D01*
G75*
G02*
X220675000Y-64550000I75000J0D01*
G01*
X220825000Y-64550000D01*
G75*
G02*
X220900000Y-64625000I0J-75000D01*
G01*
X220900000Y-66025000D01*
G75*
G02*
X220825000Y-66100000I-75000J0D01*
G01*
G37*
%TD.AperFunction*%
%TO.P,U3,41*%
%TA.AperFunction,SMDPad,CuDef*%
G36*
G01*
X220325000Y-66100000D02*
X220175000Y-66100000D01*
G75*
G02*
X220100000Y-66025000I0J75000D01*
G01*
X220100000Y-64625000D01*
G75*
G02*
X220175000Y-64550000I75000J0D01*
G01*
X220325000Y-64550000D01*
G75*
G02*
X220400000Y-64625000I0J-75000D01*
G01*
X220400000Y-66025000D01*
G75*
G02*
X220325000Y-66100000I-75000J0D01*
G01*
G37*
%TD.AperFunction*%
%TO.P,U3,42*%
%TA.AperFunction,SMDPad,CuDef*%
G36*
G01*
X219825000Y-66100000D02*
X219675000Y-66100000D01*
G75*
G02*
X219600000Y-66025000I0J75000D01*
G01*
X219600000Y-64625000D01*
G75*
G02*
X219675000Y-64550000I75000J0D01*
G01*
X219825000Y-64550000D01*
G75*
G02*
X219900000Y-64625000I0J-75000D01*
G01*
X219900000Y-66025000D01*
G75*
G02*
X219825000Y-66100000I-75000J0D01*
G01*
G37*
%TD.AperFunction*%
%TO.P,U3,43*%
%TA.AperFunction,SMDPad,CuDef*%
G36*
G01*
X219325000Y-66100000D02*
X219175000Y-66100000D01*
G75*
G02*
X219100000Y-66025000I0J75000D01*
G01*
X219100000Y-64625000D01*
G75*
G02*
X219175000Y-64550000I75000J0D01*
G01*
X219325000Y-64550000D01*
G75*
G02*
X219400000Y-64625000I0J-75000D01*
G01*
X219400000Y-66025000D01*
G75*
G02*
X219325000Y-66100000I-75000J0D01*
G01*
G37*
%TD.AperFunction*%
%TO.P,U3,44*%
%TO.N,USB_PIN-*%
%TA.AperFunction,SMDPad,CuDef*%
G36*
G01*
X218825000Y-66100000D02*
X218675000Y-66100000D01*
G75*
G02*
X218600000Y-66025000I0J75000D01*
G01*
X218600000Y-64625000D01*
G75*
G02*
X218675000Y-64550000I75000J0D01*
G01*
X218825000Y-64550000D01*
G75*
G02*
X218900000Y-64625000I0J-75000D01*
G01*
X218900000Y-66025000D01*
G75*
G02*
X218825000Y-66100000I-75000J0D01*
G01*
G37*
%TD.AperFunction*%
%TO.P,U3,45*%
%TO.N,USB_PIN+*%
%TA.AperFunction,SMDPad,CuDef*%
G36*
G01*
X218325000Y-66100000D02*
X218175000Y-66100000D01*
G75*
G02*
X218100000Y-66025000I0J75000D01*
G01*
X218100000Y-64625000D01*
G75*
G02*
X218175000Y-64550000I75000J0D01*
G01*
X218325000Y-64550000D01*
G75*
G02*
X218400000Y-64625000I0J-75000D01*
G01*
X218400000Y-66025000D01*
G75*
G02*
X218325000Y-66100000I-75000J0D01*
G01*
G37*
%TD.AperFunction*%
%TO.P,U3,46*%
%TO.N,SWDIO*%
%TA.AperFunction,SMDPad,CuDef*%
G36*
G01*
X217825000Y-66100000D02*
X217675000Y-66100000D01*
G75*
G02*
X217600000Y-66025000I0J75000D01*
G01*
X217600000Y-64625000D01*
G75*
G02*
X217675000Y-64550000I75000J0D01*
G01*
X217825000Y-64550000D01*
G75*
G02*
X217900000Y-64625000I0J-75000D01*
G01*
X217900000Y-66025000D01*
G75*
G02*
X217825000Y-66100000I-75000J0D01*
G01*
G37*
%TD.AperFunction*%
%TO.P,U3,47*%
%TO.N,GND*%
%TA.AperFunction,SMDPad,CuDef*%
G36*
G01*
X217325000Y-66100000D02*
X217175000Y-66100000D01*
G75*
G02*
X217100000Y-66025000I0J75000D01*
G01*
X217100000Y-64625000D01*
G75*
G02*
X217175000Y-64550000I75000J0D01*
G01*
X217325000Y-64550000D01*
G75*
G02*
X217400000Y-64625000I0J-75000D01*
G01*
X217400000Y-66025000D01*
G75*
G02*
X217325000Y-66100000I-75000J0D01*
G01*
G37*
%TD.AperFunction*%
%TO.P,U3,48*%
%TO.N,+3V3*%
%TA.AperFunction,SMDPad,CuDef*%
G36*
G01*
X216825000Y-66100000D02*
X216675000Y-66100000D01*
G75*
G02*
X216600000Y-66025000I0J75000D01*
G01*
X216600000Y-64625000D01*
G75*
G02*
X216675000Y-64550000I75000J0D01*
G01*
X216825000Y-64550000D01*
G75*
G02*
X216900000Y-64625000I0J-75000D01*
G01*
X216900000Y-66025000D01*
G75*
G02*
X216825000Y-66100000I-75000J0D01*
G01*
G37*
%TD.AperFunction*%
%TO.P,U3,49*%
%TO.N,SWCLK*%
%TA.AperFunction,SMDPad,CuDef*%
G36*
G01*
X215525000Y-67400000D02*
X214125000Y-67400000D01*
G75*
G02*
X214050000Y-67325000I0J75000D01*
G01*
X214050000Y-67175000D01*
G75*
G02*
X214125000Y-67100000I75000J0D01*
G01*
X215525000Y-67100000D01*
G75*
G02*
X215600000Y-67175000I0J-75000D01*
G01*
X215600000Y-67325000D01*
G75*
G02*
X215525000Y-67400000I-75000J0D01*
G01*
G37*
%TD.AperFunction*%
%TO.P,U3,50*%
%TO.N,N/C*%
%TA.AperFunction,SMDPad,CuDef*%
G36*
G01*
X215525000Y-67900000D02*
X214125000Y-67900000D01*
G75*
G02*
X214050000Y-67825000I0J75000D01*
G01*
X214050000Y-67675000D01*
G75*
G02*
X214125000Y-67600000I75000J0D01*
G01*
X215525000Y-67600000D01*
G75*
G02*
X215600000Y-67675000I0J-75000D01*
G01*
X215600000Y-67825000D01*
G75*
G02*
X215525000Y-67900000I-75000J0D01*
G01*
G37*
%TD.AperFunction*%
%TO.P,U3,51*%
%TA.AperFunction,SMDPad,CuDef*%
G36*
G01*
X215525000Y-68400000D02*
X214125000Y-68400000D01*
G75*
G02*
X214050000Y-68325000I0J75000D01*
G01*
X214050000Y-68175000D01*
G75*
G02*
X214125000Y-68100000I75000J0D01*
G01*
X215525000Y-68100000D01*
G75*
G02*
X215600000Y-68175000I0J-75000D01*
G01*
X215600000Y-68325000D01*
G75*
G02*
X215525000Y-68400000I-75000J0D01*
G01*
G37*
%TD.AperFunction*%
%TO.P,U3,52*%
%TO.N,MOUSERIGHT*%
%TA.AperFunction,SMDPad,CuDef*%
G36*
G01*
X215525000Y-68900000D02*
X214125000Y-68900000D01*
G75*
G02*
X214050000Y-68825000I0J75000D01*
G01*
X214050000Y-68675000D01*
G75*
G02*
X214125000Y-68600000I75000J0D01*
G01*
X215525000Y-68600000D01*
G75*
G02*
X215600000Y-68675000I0J-75000D01*
G01*
X215600000Y-68825000D01*
G75*
G02*
X215525000Y-68900000I-75000J0D01*
G01*
G37*
%TD.AperFunction*%
%TO.P,U3,53*%
%TO.N,MOUSELEFT*%
%TA.AperFunction,SMDPad,CuDef*%
G36*
G01*
X215525000Y-69400000D02*
X214125000Y-69400000D01*
G75*
G02*
X214050000Y-69325000I0J75000D01*
G01*
X214050000Y-69175000D01*
G75*
G02*
X214125000Y-69100000I75000J0D01*
G01*
X215525000Y-69100000D01*
G75*
G02*
X215600000Y-69175000I0J-75000D01*
G01*
X215600000Y-69325000D01*
G75*
G02*
X215525000Y-69400000I-75000J0D01*
G01*
G37*
%TD.AperFunction*%
%TO.P,U3,54*%
%TO.N,N/C*%
%TA.AperFunction,SMDPad,CuDef*%
G36*
G01*
X215525000Y-69900000D02*
X214125000Y-69900000D01*
G75*
G02*
X214050000Y-69825000I0J75000D01*
G01*
X214050000Y-69675000D01*
G75*
G02*
X214125000Y-69600000I75000J0D01*
G01*
X215525000Y-69600000D01*
G75*
G02*
X215600000Y-69675000I0J-75000D01*
G01*
X215600000Y-69825000D01*
G75*
G02*
X215525000Y-69900000I-75000J0D01*
G01*
G37*
%TD.AperFunction*%
%TO.P,U3,55*%
%TO.N,SWO*%
%TA.AperFunction,SMDPad,CuDef*%
G36*
G01*
X215525000Y-70400000D02*
X214125000Y-70400000D01*
G75*
G02*
X214050000Y-70325000I0J75000D01*
G01*
X214050000Y-70175000D01*
G75*
G02*
X214125000Y-70100000I75000J0D01*
G01*
X215525000Y-70100000D01*
G75*
G02*
X215600000Y-70175000I0J-75000D01*
G01*
X215600000Y-70325000D01*
G75*
G02*
X215525000Y-70400000I-75000J0D01*
G01*
G37*
%TD.AperFunction*%
%TO.P,U3,56*%
%TO.N,N/C*%
%TA.AperFunction,SMDPad,CuDef*%
G36*
G01*
X215525000Y-70900000D02*
X214125000Y-70900000D01*
G75*
G02*
X214050000Y-70825000I0J75000D01*
G01*
X214050000Y-70675000D01*
G75*
G02*
X214125000Y-70600000I75000J0D01*
G01*
X215525000Y-70600000D01*
G75*
G02*
X215600000Y-70675000I0J-75000D01*
G01*
X215600000Y-70825000D01*
G75*
G02*
X215525000Y-70900000I-75000J0D01*
G01*
G37*
%TD.AperFunction*%
%TO.P,U3,57*%
%TA.AperFunction,SMDPad,CuDef*%
G36*
G01*
X215525000Y-71400000D02*
X214125000Y-71400000D01*
G75*
G02*
X214050000Y-71325000I0J75000D01*
G01*
X214050000Y-71175000D01*
G75*
G02*
X214125000Y-71100000I75000J0D01*
G01*
X215525000Y-71100000D01*
G75*
G02*
X215600000Y-71175000I0J-75000D01*
G01*
X215600000Y-71325000D01*
G75*
G02*
X215525000Y-71400000I-75000J0D01*
G01*
G37*
%TD.AperFunction*%
%TO.P,U3,58*%
%TO.N,TIM4_CH1_CLK*%
%TA.AperFunction,SMDPad,CuDef*%
G36*
G01*
X215525000Y-71900000D02*
X214125000Y-71900000D01*
G75*
G02*
X214050000Y-71825000I0J75000D01*
G01*
X214050000Y-71675000D01*
G75*
G02*
X214125000Y-71600000I75000J0D01*
G01*
X215525000Y-71600000D01*
G75*
G02*
X215600000Y-71675000I0J-75000D01*
G01*
X215600000Y-71825000D01*
G75*
G02*
X215525000Y-71900000I-75000J0D01*
G01*
G37*
%TD.AperFunction*%
%TO.P,U3,59*%
%TO.N,TIM4_CH2_DT*%
%TA.AperFunction,SMDPad,CuDef*%
G36*
G01*
X215525000Y-72400000D02*
X214125000Y-72400000D01*
G75*
G02*
X214050000Y-72325000I0J75000D01*
G01*
X214050000Y-72175000D01*
G75*
G02*
X214125000Y-72100000I75000J0D01*
G01*
X215525000Y-72100000D01*
G75*
G02*
X215600000Y-72175000I0J-75000D01*
G01*
X215600000Y-72325000D01*
G75*
G02*
X215525000Y-72400000I-75000J0D01*
G01*
G37*
%TD.AperFunction*%
%TO.P,U3,60*%
%TO.N,BOOT*%
%TA.AperFunction,SMDPad,CuDef*%
G36*
G01*
X215525000Y-72900000D02*
X214125000Y-72900000D01*
G75*
G02*
X214050000Y-72825000I0J75000D01*
G01*
X214050000Y-72675000D01*
G75*
G02*
X214125000Y-72600000I75000J0D01*
G01*
X215525000Y-72600000D01*
G75*
G02*
X215600000Y-72675000I0J-75000D01*
G01*
X215600000Y-72825000D01*
G75*
G02*
X215525000Y-72900000I-75000J0D01*
G01*
G37*
%TD.AperFunction*%
%TO.P,U3,61*%
%TO.N,I2C1_SCL*%
%TA.AperFunction,SMDPad,CuDef*%
G36*
G01*
X215525000Y-73400000D02*
X214125000Y-73400000D01*
G75*
G02*
X214050000Y-73325000I0J75000D01*
G01*
X214050000Y-73175000D01*
G75*
G02*
X214125000Y-73100000I75000J0D01*
G01*
X215525000Y-73100000D01*
G75*
G02*
X215600000Y-73175000I0J-75000D01*
G01*
X215600000Y-73325000D01*
G75*
G02*
X215525000Y-73400000I-75000J0D01*
G01*
G37*
%TD.AperFunction*%
%TO.P,U3,62*%
%TO.N,I2C1_SDA*%
%TA.AperFunction,SMDPad,CuDef*%
G36*
G01*
X215525000Y-73900000D02*
X214125000Y-73900000D01*
G75*
G02*
X214050000Y-73825000I0J75000D01*
G01*
X214050000Y-73675000D01*
G75*
G02*
X214125000Y-73600000I75000J0D01*
G01*
X215525000Y-73600000D01*
G75*
G02*
X215600000Y-73675000I0J-75000D01*
G01*
X215600000Y-73825000D01*
G75*
G02*
X215525000Y-73900000I-75000J0D01*
G01*
G37*
%TD.AperFunction*%
%TO.P,U3,63*%
%TO.N,GND*%
%TA.AperFunction,SMDPad,CuDef*%
G36*
G01*
X215525000Y-74400000D02*
X214125000Y-74400000D01*
G75*
G02*
X214050000Y-74325000I0J75000D01*
G01*
X214050000Y-74175000D01*
G75*
G02*
X214125000Y-74100000I75000J0D01*
G01*
X215525000Y-74100000D01*
G75*
G02*
X215600000Y-74175000I0J-75000D01*
G01*
X215600000Y-74325000D01*
G75*
G02*
X215525000Y-74400000I-75000J0D01*
G01*
G37*
%TD.AperFunction*%
%TO.P,U3,64*%
%TO.N,+3V3*%
%TA.AperFunction,SMDPad,CuDef*%
G36*
G01*
X215525000Y-74900000D02*
X214125000Y-74900000D01*
G75*
G02*
X214050000Y-74825000I0J75000D01*
G01*
X214050000Y-74675000D01*
G75*
G02*
X214125000Y-74600000I75000J0D01*
G01*
X215525000Y-74600000D01*
G75*
G02*
X215600000Y-74675000I0J-75000D01*
G01*
X215600000Y-74825000D01*
G75*
G02*
X215525000Y-74900000I-75000J0D01*
G01*
G37*
%TD.AperFunction*%
%TD*%
D10*
%TO.P,SW2,2*%
%TO.N,NRST*%
X223500000Y-87500000D03*
%TO.P,SW2,1*%
%TO.N,GND*%
X223500000Y-92000000D03*
%TO.P,SW2,2*%
%TO.N,NRST*%
X217000000Y-87500000D03*
%TO.P,SW2,1*%
%TO.N,GND*%
X217000000Y-92000000D03*
%TD*%
%TO.P,C14,2*%
%TO.N,GND*%
%TA.AperFunction,SMDPad,CuDef*%
G36*
G01*
X230330000Y-66700000D02*
X230670000Y-66700000D01*
G75*
G02*
X230810000Y-66840000I0J-140000D01*
G01*
X230810000Y-67120000D01*
G75*
G02*
X230670000Y-67260000I-140000J0D01*
G01*
X230330000Y-67260000D01*
G75*
G02*
X230190000Y-67120000I0J140000D01*
G01*
X230190000Y-66840000D01*
G75*
G02*
X230330000Y-66700000I140000J0D01*
G01*
G37*
%TD.AperFunction*%
%TO.P,C14,1*%
%TO.N,+3V3*%
%TA.AperFunction,SMDPad,CuDef*%
G36*
G01*
X230330000Y-65740000D02*
X230670000Y-65740000D01*
G75*
G02*
X230810000Y-65880000I0J-140000D01*
G01*
X230810000Y-66160000D01*
G75*
G02*
X230670000Y-66300000I-140000J0D01*
G01*
X230330000Y-66300000D01*
G75*
G02*
X230190000Y-66160000I0J140000D01*
G01*
X230190000Y-65880000D01*
G75*
G02*
X230330000Y-65740000I140000J0D01*
G01*
G37*
%TD.AperFunction*%
%TD*%
%TO.P,C11,1*%
%TO.N,+3V3*%
%TA.AperFunction,SMDPad,CuDef*%
G36*
G01*
X231830000Y-65760000D02*
X232170000Y-65760000D01*
G75*
G02*
X232310000Y-65900000I0J-140000D01*
G01*
X232310000Y-66180000D01*
G75*
G02*
X232170000Y-66320000I-140000J0D01*
G01*
X231830000Y-66320000D01*
G75*
G02*
X231690000Y-66180000I0J140000D01*
G01*
X231690000Y-65900000D01*
G75*
G02*
X231830000Y-65760000I140000J0D01*
G01*
G37*
%TD.AperFunction*%
%TO.P,C11,2*%
%TO.N,GND*%
%TA.AperFunction,SMDPad,CuDef*%
G36*
G01*
X231830000Y-66720000D02*
X232170000Y-66720000D01*
G75*
G02*
X232310000Y-66860000I0J-140000D01*
G01*
X232310000Y-67140000D01*
G75*
G02*
X232170000Y-67280000I-140000J0D01*
G01*
X231830000Y-67280000D01*
G75*
G02*
X231690000Y-67140000I0J140000D01*
G01*
X231690000Y-66860000D01*
G75*
G02*
X231830000Y-66720000I140000J0D01*
G01*
G37*
%TD.AperFunction*%
%TD*%
%TO.P,C12,2*%
%TO.N,GND*%
%TA.AperFunction,SMDPad,CuDef*%
G36*
G01*
X233330000Y-66680000D02*
X233670000Y-66680000D01*
G75*
G02*
X233810000Y-66820000I0J-140000D01*
G01*
X233810000Y-67100000D01*
G75*
G02*
X233670000Y-67240000I-140000J0D01*
G01*
X233330000Y-67240000D01*
G75*
G02*
X233190000Y-67100000I0J140000D01*
G01*
X233190000Y-66820000D01*
G75*
G02*
X233330000Y-66680000I140000J0D01*
G01*
G37*
%TD.AperFunction*%
%TO.P,C12,1*%
%TO.N,+3V3*%
%TA.AperFunction,SMDPad,CuDef*%
G36*
G01*
X233330000Y-65720000D02*
X233670000Y-65720000D01*
G75*
G02*
X233810000Y-65860000I0J-140000D01*
G01*
X233810000Y-66140000D01*
G75*
G02*
X233670000Y-66280000I-140000J0D01*
G01*
X233330000Y-66280000D01*
G75*
G02*
X233190000Y-66140000I0J140000D01*
G01*
X233190000Y-65860000D01*
G75*
G02*
X233330000Y-65720000I140000J0D01*
G01*
G37*
%TD.AperFunction*%
%TD*%
%TO.P,C13,1*%
%TO.N,+3V3*%
%TA.AperFunction,SMDPad,CuDef*%
G36*
G01*
X211170000Y-65240000D02*
X210830000Y-65240000D01*
G75*
G02*
X210690000Y-65100000I0J140000D01*
G01*
X210690000Y-64820000D01*
G75*
G02*
X210830000Y-64680000I140000J0D01*
G01*
X211170000Y-64680000D01*
G75*
G02*
X211310000Y-64820000I0J-140000D01*
G01*
X211310000Y-65100000D01*
G75*
G02*
X211170000Y-65240000I-140000J0D01*
G01*
G37*
%TD.AperFunction*%
%TO.P,C13,2*%
%TO.N,GND*%
%TA.AperFunction,SMDPad,CuDef*%
G36*
G01*
X211170000Y-64280000D02*
X210830000Y-64280000D01*
G75*
G02*
X210690000Y-64140000I0J140000D01*
G01*
X210690000Y-63860000D01*
G75*
G02*
X210830000Y-63720000I140000J0D01*
G01*
X211170000Y-63720000D01*
G75*
G02*
X211310000Y-63860000I0J-140000D01*
G01*
X211310000Y-64140000D01*
G75*
G02*
X211170000Y-64280000I-140000J0D01*
G01*
G37*
%TD.AperFunction*%
%TD*%
%TO.P,C9,1*%
%TO.N,+3V3*%
%TA.AperFunction,SMDPad,CuDef*%
G36*
G01*
X212670000Y-65280000D02*
X212330000Y-65280000D01*
G75*
G02*
X212190000Y-65140000I0J140000D01*
G01*
X212190000Y-64860000D01*
G75*
G02*
X212330000Y-64720000I140000J0D01*
G01*
X212670000Y-64720000D01*
G75*
G02*
X212810000Y-64860000I0J-140000D01*
G01*
X212810000Y-65140000D01*
G75*
G02*
X212670000Y-65280000I-140000J0D01*
G01*
G37*
%TD.AperFunction*%
%TO.P,C9,2*%
%TO.N,GND*%
%TA.AperFunction,SMDPad,CuDef*%
G36*
G01*
X212670000Y-64320000D02*
X212330000Y-64320000D01*
G75*
G02*
X212190000Y-64180000I0J140000D01*
G01*
X212190000Y-63900000D01*
G75*
G02*
X212330000Y-63760000I140000J0D01*
G01*
X212670000Y-63760000D01*
G75*
G02*
X212810000Y-63900000I0J-140000D01*
G01*
X212810000Y-64180000D01*
G75*
G02*
X212670000Y-64320000I-140000J0D01*
G01*
G37*
%TD.AperFunction*%
%TD*%
%TO.P,C10,2*%
%TO.N,GND*%
%TA.AperFunction,SMDPad,CuDef*%
G36*
G01*
X214170000Y-64320000D02*
X213830000Y-64320000D01*
G75*
G02*
X213690000Y-64180000I0J140000D01*
G01*
X213690000Y-63900000D01*
G75*
G02*
X213830000Y-63760000I140000J0D01*
G01*
X214170000Y-63760000D01*
G75*
G02*
X214310000Y-63900000I0J-140000D01*
G01*
X214310000Y-64180000D01*
G75*
G02*
X214170000Y-64320000I-140000J0D01*
G01*
G37*
%TD.AperFunction*%
%TO.P,C10,1*%
%TO.N,+3V3*%
%TA.AperFunction,SMDPad,CuDef*%
G36*
G01*
X214170000Y-65280000D02*
X213830000Y-65280000D01*
G75*
G02*
X213690000Y-65140000I0J140000D01*
G01*
X213690000Y-64860000D01*
G75*
G02*
X213830000Y-64720000I140000J0D01*
G01*
X214170000Y-64720000D01*
G75*
G02*
X214310000Y-64860000I0J-140000D01*
G01*
X214310000Y-65140000D01*
G75*
G02*
X214170000Y-65280000I-140000J0D01*
G01*
G37*
%TD.AperFunction*%
%TD*%
%TO.P,C7,1*%
%TO.N,+3V3*%
%TA.AperFunction,SMDPad,CuDef*%
G36*
G01*
X228830000Y-65760000D02*
X229170000Y-65760000D01*
G75*
G02*
X229310000Y-65900000I0J-140000D01*
G01*
X229310000Y-66180000D01*
G75*
G02*
X229170000Y-66320000I-140000J0D01*
G01*
X228830000Y-66320000D01*
G75*
G02*
X228690000Y-66180000I0J140000D01*
G01*
X228690000Y-65900000D01*
G75*
G02*
X228830000Y-65760000I140000J0D01*
G01*
G37*
%TD.AperFunction*%
%TO.P,C7,2*%
%TO.N,GND*%
%TA.AperFunction,SMDPad,CuDef*%
G36*
G01*
X228830000Y-66720000D02*
X229170000Y-66720000D01*
G75*
G02*
X229310000Y-66860000I0J-140000D01*
G01*
X229310000Y-67140000D01*
G75*
G02*
X229170000Y-67280000I-140000J0D01*
G01*
X228830000Y-67280000D01*
G75*
G02*
X228690000Y-67140000I0J140000D01*
G01*
X228690000Y-66860000D01*
G75*
G02*
X228830000Y-66720000I140000J0D01*
G01*
G37*
%TD.AperFunction*%
%TD*%
D11*
%TO.P,D2,1*%
%TO.N,Net-(D2-Pad1)*%
X232000000Y-55750000D03*
D12*
%TO.P,D2,2*%
%TO.N,GND*%
X229841000Y-55750000D03*
%TO.P,D2,3*%
%TO.N,Net-(D2-Pad3)*%
X227682000Y-55750000D03*
%TO.P,D2,4*%
%TO.N,Net-(D2-Pad4)*%
X225523000Y-55750000D03*
%TD*%
D13*
%TO.P,J1,6*%
%TO.N,GND*%
X216000000Y-52762500D03*
D14*
X219500000Y-55462500D03*
D15*
%TO.P,J1,2*%
%TO.N,/USB_CONN-*%
X217650000Y-55462500D03*
%TO.P,J1,1*%
%TO.N,+5V*%
X218300000Y-55462500D03*
%TO.P,J1,5*%
%TO.N,GND*%
X215700000Y-55462500D03*
%TO.P,J1,4*%
%TO.N,Net-(J1-Pad4)*%
X216350000Y-55462500D03*
%TO.P,J1,3*%
%TO.N,/USB_CONN+*%
X217000000Y-55462500D03*
D14*
%TO.P,J1,6*%
%TO.N,GND*%
X214500000Y-55462500D03*
D13*
X218000000Y-52762500D03*
D16*
X220500000Y-52762500D03*
X213500000Y-52762500D03*
D17*
X214100000Y-52762500D03*
X219900000Y-52762500D03*
%TD*%
D18*
%TO.P,J2,1*%
%TO.N,+3V3*%
X241000000Y-85250000D03*
D19*
%TO.P,J2,2*%
%TO.N,MOTION_TRACK*%
X241000000Y-87790000D03*
%TO.P,J2,3*%
%TO.N,SPI1_MOSI*%
X241000000Y-90330000D03*
%TO.P,J2,4*%
%TO.N,SPI1_MISO*%
X241000000Y-92870000D03*
%TO.P,J2,5*%
%TO.N,SPI1_SCLK*%
X241000000Y-95410000D03*
%TO.P,J2,6*%
%TO.N,SPI1_CSN*%
X241000000Y-97950000D03*
%TO.P,J2,7*%
%TO.N,GND*%
X241000000Y-100490000D03*
%TD*%
D18*
%TO.P,J4,1*%
%TO.N,MOUSELEFT*%
X194000000Y-80250000D03*
D19*
%TO.P,J4,2*%
%TO.N,MOUSERIGHT*%
X194000000Y-77710000D03*
%TO.P,J4,3*%
%TO.N,+3V3*%
X194000000Y-75170000D03*
%TD*%
D18*
%TO.P,J5,1*%
%TO.N,+3V3*%
X194000000Y-62500000D03*
D19*
%TO.P,J5,2*%
%TO.N,SWDIO*%
X196540000Y-62500000D03*
%TO.P,J5,3*%
%TO.N,+3V3*%
X194000000Y-65040000D03*
%TO.P,J5,4*%
%TO.N,SWCLK*%
X196540000Y-65040000D03*
%TO.P,J5,5*%
%TO.N,GND*%
X194000000Y-67580000D03*
%TO.P,J5,6*%
%TO.N,NRST*%
X196540000Y-67580000D03*
%TO.P,J5,7*%
%TO.N,GND*%
X194000000Y-70120000D03*
%TO.P,J5,8*%
%TO.N,SWO*%
X196540000Y-70120000D03*
%TD*%
D20*
%TO.P,SW1,1*%
%TO.N,+3V3*%
X206250000Y-114570000D03*
%TO.P,SW1,2*%
%TO.N,Net-(D3-Pad2)*%
X209250000Y-114570000D03*
%TO.P,SW1,3*%
%TO.N,GND*%
X210750000Y-114570000D03*
D21*
%TO.P,SW1,*%
%TO.N,*%
X204850000Y-117430000D03*
X212150000Y-117430000D03*
X212150000Y-115220000D03*
X204850000Y-115220000D03*
%TD*%
D10*
%TO.P,SW3,S1*%
%TO.N,N/C*%
X194500000Y-118500000D03*
%TO.P,SW3,S2*%
X199500000Y-118500000D03*
D22*
%TO.P,SW3,MP*%
X191400000Y-111500000D03*
X202600000Y-111500000D03*
D10*
%TO.P,SW3,B*%
%TO.N,Net-(R8-Pad2)*%
X194500000Y-104000000D03*
%TO.P,SW3,C*%
%TO.N,GND*%
X197000000Y-104000000D03*
D23*
%TO.P,SW3,A*%
%TO.N,Net-(R3-Pad1)*%
X199500000Y-104000000D03*
%TD*%
D24*
%TO.P,TP1,1*%
%TO.N,GND*%
X194000000Y-54000000D03*
%TD*%
%TO.P,TP2,1*%
%TO.N,+3V3*%
X240000000Y-54000000D03*
%TD*%
D25*
%TO.P,U1,1*%
%TO.N,USB_PIN+*%
X216375000Y-61525000D03*
%TO.P,U1,2*%
%TO.N,GND*%
X217325000Y-61525000D03*
%TO.P,U1,3*%
%TO.N,USB_PIN-*%
X218275000Y-61525000D03*
%TO.P,U1,4*%
%TO.N,/USB_CONN-*%
X218275000Y-59325000D03*
%TO.P,U1,6*%
%TO.N,/USB_CONN+*%
X216375000Y-59325000D03*
%TO.P,U1,5*%
%TO.N,+5V*%
X217325000Y-59325000D03*
%TD*%
%TO.P,C1,2*%
%TO.N,GND*%
%TA.AperFunction,SMDPad,CuDef*%
G36*
G01*
X216670000Y-82320000D02*
X216330000Y-82320000D01*
G75*
G02*
X216190000Y-82180000I0J140000D01*
G01*
X216190000Y-81900000D01*
G75*
G02*
X216330000Y-81760000I140000J0D01*
G01*
X216670000Y-81760000D01*
G75*
G02*
X216810000Y-81900000I0J-140000D01*
G01*
X216810000Y-82180000D01*
G75*
G02*
X216670000Y-82320000I-140000J0D01*
G01*
G37*
%TD.AperFunction*%
%TO.P,C1,1*%
%TO.N,HSE_IN*%
%TA.AperFunction,SMDPad,CuDef*%
G36*
G01*
X216670000Y-83280000D02*
X216330000Y-83280000D01*
G75*
G02*
X216190000Y-83140000I0J140000D01*
G01*
X216190000Y-82860000D01*
G75*
G02*
X216330000Y-82720000I140000J0D01*
G01*
X216670000Y-82720000D01*
G75*
G02*
X216810000Y-82860000I0J-140000D01*
G01*
X216810000Y-83140000D01*
G75*
G02*
X216670000Y-83280000I-140000J0D01*
G01*
G37*
%TD.AperFunction*%
%TD*%
%TO.P,C2,1*%
%TO.N,Net-(C2-Pad1)*%
%TA.AperFunction,SMDPad,CuDef*%
G36*
G01*
X223330000Y-81720000D02*
X223670000Y-81720000D01*
G75*
G02*
X223810000Y-81860000I0J-140000D01*
G01*
X223810000Y-82140000D01*
G75*
G02*
X223670000Y-82280000I-140000J0D01*
G01*
X223330000Y-82280000D01*
G75*
G02*
X223190000Y-82140000I0J140000D01*
G01*
X223190000Y-81860000D01*
G75*
G02*
X223330000Y-81720000I140000J0D01*
G01*
G37*
%TD.AperFunction*%
%TO.P,C2,2*%
%TO.N,GND*%
%TA.AperFunction,SMDPad,CuDef*%
G36*
G01*
X223330000Y-82680000D02*
X223670000Y-82680000D01*
G75*
G02*
X223810000Y-82820000I0J-140000D01*
G01*
X223810000Y-83100000D01*
G75*
G02*
X223670000Y-83240000I-140000J0D01*
G01*
X223330000Y-83240000D01*
G75*
G02*
X223190000Y-83100000I0J140000D01*
G01*
X223190000Y-82820000D01*
G75*
G02*
X223330000Y-82680000I140000J0D01*
G01*
G37*
%TD.AperFunction*%
%TD*%
%TO.P,C3,1*%
%TO.N,+5V*%
%TA.AperFunction,SMDPad,CuDef*%
G36*
G01*
X211250000Y-54225000D02*
X210750000Y-54225000D01*
G75*
G02*
X210525000Y-54000000I0J225000D01*
G01*
X210525000Y-53550000D01*
G75*
G02*
X210750000Y-53325000I225000J0D01*
G01*
X211250000Y-53325000D01*
G75*
G02*
X211475000Y-53550000I0J-225000D01*
G01*
X211475000Y-54000000D01*
G75*
G02*
X211250000Y-54225000I-225000J0D01*
G01*
G37*
%TD.AperFunction*%
%TO.P,C3,2*%
%TO.N,GND*%
%TA.AperFunction,SMDPad,CuDef*%
G36*
G01*
X211250000Y-52675000D02*
X210750000Y-52675000D01*
G75*
G02*
X210525000Y-52450000I0J225000D01*
G01*
X210525000Y-52000000D01*
G75*
G02*
X210750000Y-51775000I225000J0D01*
G01*
X211250000Y-51775000D01*
G75*
G02*
X211475000Y-52000000I0J-225000D01*
G01*
X211475000Y-52450000D01*
G75*
G02*
X211250000Y-52675000I-225000J0D01*
G01*
G37*
%TD.AperFunction*%
%TD*%
%TO.P,C4,2*%
%TO.N,GND*%
%TA.AperFunction,SMDPad,CuDef*%
G36*
G01*
X205675000Y-53750000D02*
X205675000Y-54250000D01*
G75*
G02*
X205450000Y-54475000I-225000J0D01*
G01*
X205000000Y-54475000D01*
G75*
G02*
X204775000Y-54250000I0J225000D01*
G01*
X204775000Y-53750000D01*
G75*
G02*
X205000000Y-53525000I225000J0D01*
G01*
X205450000Y-53525000D01*
G75*
G02*
X205675000Y-53750000I0J-225000D01*
G01*
G37*
%TD.AperFunction*%
%TO.P,C4,1*%
%TO.N,Net-(C4-Pad1)*%
%TA.AperFunction,SMDPad,CuDef*%
G36*
G01*
X207225000Y-53750000D02*
X207225000Y-54250000D01*
G75*
G02*
X207000000Y-54475000I-225000J0D01*
G01*
X206550000Y-54475000D01*
G75*
G02*
X206325000Y-54250000I0J225000D01*
G01*
X206325000Y-53750000D01*
G75*
G02*
X206550000Y-53525000I225000J0D01*
G01*
X207000000Y-53525000D01*
G75*
G02*
X207225000Y-53750000I0J-225000D01*
G01*
G37*
%TD.AperFunction*%
%TD*%
%TO.P,C5,1*%
%TO.N,Net-(C4-Pad1)*%
%TA.AperFunction,SMDPad,CuDef*%
G36*
G01*
X207225000Y-56250000D02*
X207225000Y-56750000D01*
G75*
G02*
X207000000Y-56975000I-225000J0D01*
G01*
X206550000Y-56975000D01*
G75*
G02*
X206325000Y-56750000I0J225000D01*
G01*
X206325000Y-56250000D01*
G75*
G02*
X206550000Y-56025000I225000J0D01*
G01*
X207000000Y-56025000D01*
G75*
G02*
X207225000Y-56250000I0J-225000D01*
G01*
G37*
%TD.AperFunction*%
%TO.P,C5,2*%
%TO.N,GND*%
%TA.AperFunction,SMDPad,CuDef*%
G36*
G01*
X205675000Y-56250000D02*
X205675000Y-56750000D01*
G75*
G02*
X205450000Y-56975000I-225000J0D01*
G01*
X205000000Y-56975000D01*
G75*
G02*
X204775000Y-56750000I0J225000D01*
G01*
X204775000Y-56250000D01*
G75*
G02*
X205000000Y-56025000I225000J0D01*
G01*
X205450000Y-56025000D01*
G75*
G02*
X205675000Y-56250000I0J-225000D01*
G01*
G37*
%TD.AperFunction*%
%TD*%
%TO.P,C8,1*%
%TO.N,NRST*%
%TA.AperFunction,SMDPad,CuDef*%
G36*
G01*
X214080000Y-88970000D02*
X214420000Y-88970000D01*
G75*
G02*
X214560000Y-89110000I0J-140000D01*
G01*
X214560000Y-89390000D01*
G75*
G02*
X214420000Y-89530000I-140000J0D01*
G01*
X214080000Y-89530000D01*
G75*
G02*
X213940000Y-89390000I0J140000D01*
G01*
X213940000Y-89110000D01*
G75*
G02*
X214080000Y-88970000I140000J0D01*
G01*
G37*
%TD.AperFunction*%
%TO.P,C8,2*%
%TO.N,GND*%
%TA.AperFunction,SMDPad,CuDef*%
G36*
G01*
X214080000Y-89930000D02*
X214420000Y-89930000D01*
G75*
G02*
X214560000Y-90070000I0J-140000D01*
G01*
X214560000Y-90350000D01*
G75*
G02*
X214420000Y-90490000I-140000J0D01*
G01*
X214080000Y-90490000D01*
G75*
G02*
X213940000Y-90350000I0J140000D01*
G01*
X213940000Y-90070000D01*
G75*
G02*
X214080000Y-89930000I140000J0D01*
G01*
G37*
%TD.AperFunction*%
%TD*%
%TO.P,C15,1*%
%TO.N,TIM4_CH2_DT*%
%TA.AperFunction,SMDPad,CuDef*%
G36*
G01*
X200397500Y-94580000D02*
X200397500Y-94920000D01*
G75*
G02*
X200257500Y-95060000I-140000J0D01*
G01*
X199977500Y-95060000D01*
G75*
G02*
X199837500Y-94920000I0J140000D01*
G01*
X199837500Y-94580000D01*
G75*
G02*
X199977500Y-94440000I140000J0D01*
G01*
X200257500Y-94440000D01*
G75*
G02*
X200397500Y-94580000I0J-140000D01*
G01*
G37*
%TD.AperFunction*%
%TO.P,C15,2*%
%TO.N,GND*%
%TA.AperFunction,SMDPad,CuDef*%
G36*
G01*
X199437500Y-94580000D02*
X199437500Y-94920000D01*
G75*
G02*
X199297500Y-95060000I-140000J0D01*
G01*
X199017500Y-95060000D01*
G75*
G02*
X198877500Y-94920000I0J140000D01*
G01*
X198877500Y-94580000D01*
G75*
G02*
X199017500Y-94440000I140000J0D01*
G01*
X199297500Y-94440000D01*
G75*
G02*
X199437500Y-94580000I0J-140000D01*
G01*
G37*
%TD.AperFunction*%
%TD*%
%TO.P,C16,2*%
%TO.N,GND*%
%TA.AperFunction,SMDPad,CuDef*%
G36*
G01*
X193587500Y-94920000D02*
X193587500Y-94580000D01*
G75*
G02*
X193727500Y-94440000I140000J0D01*
G01*
X194007500Y-94440000D01*
G75*
G02*
X194147500Y-94580000I0J-140000D01*
G01*
X194147500Y-94920000D01*
G75*
G02*
X194007500Y-95060000I-140000J0D01*
G01*
X193727500Y-95060000D01*
G75*
G02*
X193587500Y-94920000I0J140000D01*
G01*
G37*
%TD.AperFunction*%
%TO.P,C16,1*%
%TO.N,TIM4_CH1_CLK*%
%TA.AperFunction,SMDPad,CuDef*%
G36*
G01*
X192627500Y-94920000D02*
X192627500Y-94580000D01*
G75*
G02*
X192767500Y-94440000I140000J0D01*
G01*
X193047500Y-94440000D01*
G75*
G02*
X193187500Y-94580000I0J-140000D01*
G01*
X193187500Y-94920000D01*
G75*
G02*
X193047500Y-95060000I-140000J0D01*
G01*
X192767500Y-95060000D01*
G75*
G02*
X192627500Y-94920000I0J140000D01*
G01*
G37*
%TD.AperFunction*%
%TD*%
%TO.P,C19,2*%
%TO.N,GND*%
%TA.AperFunction,SMDPad,CuDef*%
G36*
G01*
X229950000Y-69420000D02*
X229950000Y-69080000D01*
G75*
G02*
X230090000Y-68940000I140000J0D01*
G01*
X230370000Y-68940000D01*
G75*
G02*
X230510000Y-69080000I0J-140000D01*
G01*
X230510000Y-69420000D01*
G75*
G02*
X230370000Y-69560000I-140000J0D01*
G01*
X230090000Y-69560000D01*
G75*
G02*
X229950000Y-69420000I0J140000D01*
G01*
G37*
%TD.AperFunction*%
%TO.P,C19,1*%
%TO.N,Net-(C19-Pad1)*%
%TA.AperFunction,SMDPad,CuDef*%
G36*
G01*
X228990000Y-69420000D02*
X228990000Y-69080000D01*
G75*
G02*
X229130000Y-68940000I140000J0D01*
G01*
X229410000Y-68940000D01*
G75*
G02*
X229550000Y-69080000I0J-140000D01*
G01*
X229550000Y-69420000D01*
G75*
G02*
X229410000Y-69560000I-140000J0D01*
G01*
X229130000Y-69560000D01*
G75*
G02*
X228990000Y-69420000I0J140000D01*
G01*
G37*
%TD.AperFunction*%
%TD*%
D26*
%TO.P,D1,1*%
%TO.N,Net-(C4-Pad1)*%
X208850000Y-60500000D03*
%TO.P,D1,2*%
%TO.N,+5V*%
X212150000Y-60500000D03*
%TD*%
%TO.P,D3,1*%
%TO.N,Net-(D3-Pad1)*%
%TA.AperFunction,SMDPad,CuDef*%
G36*
G01*
X206525000Y-108756250D02*
X206525000Y-108243750D01*
G75*
G02*
X206743750Y-108025000I218750J0D01*
G01*
X207181250Y-108025000D01*
G75*
G02*
X207400000Y-108243750I0J-218750D01*
G01*
X207400000Y-108756250D01*
G75*
G02*
X207181250Y-108975000I-218750J0D01*
G01*
X206743750Y-108975000D01*
G75*
G02*
X206525000Y-108756250I0J218750D01*
G01*
G37*
%TD.AperFunction*%
%TO.P,D3,2*%
%TO.N,Net-(D3-Pad2)*%
%TA.AperFunction,SMDPad,CuDef*%
G36*
G01*
X208100000Y-108756250D02*
X208100000Y-108243750D01*
G75*
G02*
X208318750Y-108025000I218750J0D01*
G01*
X208756250Y-108025000D01*
G75*
G02*
X208975000Y-108243750I0J-218750D01*
G01*
X208975000Y-108756250D01*
G75*
G02*
X208756250Y-108975000I-218750J0D01*
G01*
X208318750Y-108975000D01*
G75*
G02*
X208100000Y-108756250I0J218750D01*
G01*
G37*
%TD.AperFunction*%
%TD*%
%TO.P,R1,2*%
%TO.N,GND*%
%TA.AperFunction,SMDPad,CuDef*%
G36*
G01*
X212847500Y-57815000D02*
X212847500Y-58185000D01*
G75*
G02*
X212712500Y-58320000I-135000J0D01*
G01*
X212442500Y-58320000D01*
G75*
G02*
X212307500Y-58185000I0J135000D01*
G01*
X212307500Y-57815000D01*
G75*
G02*
X212442500Y-57680000I135000J0D01*
G01*
X212712500Y-57680000D01*
G75*
G02*
X212847500Y-57815000I0J-135000D01*
G01*
G37*
%TD.AperFunction*%
%TO.P,R1,1*%
%TO.N,Net-(J1-Pad4)*%
%TA.AperFunction,SMDPad,CuDef*%
G36*
G01*
X213867500Y-57815000D02*
X213867500Y-58185000D01*
G75*
G02*
X213732500Y-58320000I-135000J0D01*
G01*
X213462500Y-58320000D01*
G75*
G02*
X213327500Y-58185000I0J135000D01*
G01*
X213327500Y-57815000D01*
G75*
G02*
X213462500Y-57680000I135000J0D01*
G01*
X213732500Y-57680000D01*
G75*
G02*
X213867500Y-57815000I0J-135000D01*
G01*
G37*
%TD.AperFunction*%
%TD*%
%TO.P,R2,2*%
%TO.N,BOOT*%
%TA.AperFunction,SMDPad,CuDef*%
G36*
G01*
X205185000Y-102270000D02*
X204815000Y-102270000D01*
G75*
G02*
X204680000Y-102135000I0J135000D01*
G01*
X204680000Y-101865000D01*
G75*
G02*
X204815000Y-101730000I135000J0D01*
G01*
X205185000Y-101730000D01*
G75*
G02*
X205320000Y-101865000I0J-135000D01*
G01*
X205320000Y-102135000D01*
G75*
G02*
X205185000Y-102270000I-135000J0D01*
G01*
G37*
%TD.AperFunction*%
%TO.P,R2,1*%
%TO.N,Net-(D3-Pad2)*%
%TA.AperFunction,SMDPad,CuDef*%
G36*
G01*
X205185000Y-103290000D02*
X204815000Y-103290000D01*
G75*
G02*
X204680000Y-103155000I0J135000D01*
G01*
X204680000Y-102885000D01*
G75*
G02*
X204815000Y-102750000I135000J0D01*
G01*
X205185000Y-102750000D01*
G75*
G02*
X205320000Y-102885000I0J-135000D01*
G01*
X205320000Y-103155000D01*
G75*
G02*
X205185000Y-103290000I-135000J0D01*
G01*
G37*
%TD.AperFunction*%
%TD*%
%TO.P,R3,1*%
%TO.N,Net-(R3-Pad1)*%
%TA.AperFunction,SMDPad,CuDef*%
G36*
G01*
X198807500Y-97435000D02*
X198807500Y-97065000D01*
G75*
G02*
X198942500Y-96930000I135000J0D01*
G01*
X199212500Y-96930000D01*
G75*
G02*
X199347500Y-97065000I0J-135000D01*
G01*
X199347500Y-97435000D01*
G75*
G02*
X199212500Y-97570000I-135000J0D01*
G01*
X198942500Y-97570000D01*
G75*
G02*
X198807500Y-97435000I0J135000D01*
G01*
G37*
%TD.AperFunction*%
%TO.P,R3,2*%
%TO.N,TIM4_CH2_DT*%
%TA.AperFunction,SMDPad,CuDef*%
G36*
G01*
X199827500Y-97435000D02*
X199827500Y-97065000D01*
G75*
G02*
X199962500Y-96930000I135000J0D01*
G01*
X200232500Y-96930000D01*
G75*
G02*
X200367500Y-97065000I0J-135000D01*
G01*
X200367500Y-97435000D01*
G75*
G02*
X200232500Y-97570000I-135000J0D01*
G01*
X199962500Y-97570000D01*
G75*
G02*
X199827500Y-97435000I0J135000D01*
G01*
G37*
%TD.AperFunction*%
%TD*%
%TO.P,R4,2*%
%TO.N,Net-(R3-Pad1)*%
%TA.AperFunction,SMDPad,CuDef*%
G36*
G01*
X199422500Y-99815000D02*
X199422500Y-100185000D01*
G75*
G02*
X199287500Y-100320000I-135000J0D01*
G01*
X199017500Y-100320000D01*
G75*
G02*
X198882500Y-100185000I0J135000D01*
G01*
X198882500Y-99815000D01*
G75*
G02*
X199017500Y-99680000I135000J0D01*
G01*
X199287500Y-99680000D01*
G75*
G02*
X199422500Y-99815000I0J-135000D01*
G01*
G37*
%TD.AperFunction*%
%TO.P,R4,1*%
%TO.N,+3V3*%
%TA.AperFunction,SMDPad,CuDef*%
G36*
G01*
X200442500Y-99815000D02*
X200442500Y-100185000D01*
G75*
G02*
X200307500Y-100320000I-135000J0D01*
G01*
X200037500Y-100320000D01*
G75*
G02*
X199902500Y-100185000I0J135000D01*
G01*
X199902500Y-99815000D01*
G75*
G02*
X200037500Y-99680000I135000J0D01*
G01*
X200307500Y-99680000D01*
G75*
G02*
X200442500Y-99815000I0J-135000D01*
G01*
G37*
%TD.AperFunction*%
%TD*%
%TO.P,R5,1*%
%TO.N,Net-(D2-Pad3)*%
%TA.AperFunction,SMDPad,CuDef*%
G36*
G01*
X222315000Y-60730000D02*
X222685000Y-60730000D01*
G75*
G02*
X222820000Y-60865000I0J-135000D01*
G01*
X222820000Y-61135000D01*
G75*
G02*
X222685000Y-61270000I-135000J0D01*
G01*
X222315000Y-61270000D01*
G75*
G02*
X222180000Y-61135000I0J135000D01*
G01*
X222180000Y-60865000D01*
G75*
G02*
X222315000Y-60730000I135000J0D01*
G01*
G37*
%TD.AperFunction*%
%TO.P,R5,2*%
%TO.N,TIM3_CH2_LEDG*%
%TA.AperFunction,SMDPad,CuDef*%
G36*
G01*
X222315000Y-61750000D02*
X222685000Y-61750000D01*
G75*
G02*
X222820000Y-61885000I0J-135000D01*
G01*
X222820000Y-62155000D01*
G75*
G02*
X222685000Y-62290000I-135000J0D01*
G01*
X222315000Y-62290000D01*
G75*
G02*
X222180000Y-62155000I0J135000D01*
G01*
X222180000Y-61885000D01*
G75*
G02*
X222315000Y-61750000I135000J0D01*
G01*
G37*
%TD.AperFunction*%
%TD*%
%TO.P,R6,1*%
%TO.N,Net-(D2-Pad1)*%
%TA.AperFunction,SMDPad,CuDef*%
G36*
G01*
X225065000Y-59480000D02*
X225435000Y-59480000D01*
G75*
G02*
X225570000Y-59615000I0J-135000D01*
G01*
X225570000Y-59885000D01*
G75*
G02*
X225435000Y-60020000I-135000J0D01*
G01*
X225065000Y-60020000D01*
G75*
G02*
X224930000Y-59885000I0J135000D01*
G01*
X224930000Y-59615000D01*
G75*
G02*
X225065000Y-59480000I135000J0D01*
G01*
G37*
%TD.AperFunction*%
%TO.P,R6,2*%
%TO.N,TIM3_CH1_LEDR*%
%TA.AperFunction,SMDPad,CuDef*%
G36*
G01*
X225065000Y-60500000D02*
X225435000Y-60500000D01*
G75*
G02*
X225570000Y-60635000I0J-135000D01*
G01*
X225570000Y-60905000D01*
G75*
G02*
X225435000Y-61040000I-135000J0D01*
G01*
X225065000Y-61040000D01*
G75*
G02*
X224930000Y-60905000I0J135000D01*
G01*
X224930000Y-60635000D01*
G75*
G02*
X225065000Y-60500000I135000J0D01*
G01*
G37*
%TD.AperFunction*%
%TD*%
%TO.P,R7,2*%
%TO.N,TIM3_CH3_LEDB*%
%TA.AperFunction,SMDPad,CuDef*%
G36*
G01*
X220815000Y-61750000D02*
X221185000Y-61750000D01*
G75*
G02*
X221320000Y-61885000I0J-135000D01*
G01*
X221320000Y-62155000D01*
G75*
G02*
X221185000Y-62290000I-135000J0D01*
G01*
X220815000Y-62290000D01*
G75*
G02*
X220680000Y-62155000I0J135000D01*
G01*
X220680000Y-61885000D01*
G75*
G02*
X220815000Y-61750000I135000J0D01*
G01*
G37*
%TD.AperFunction*%
%TO.P,R7,1*%
%TO.N,Net-(D2-Pad4)*%
%TA.AperFunction,SMDPad,CuDef*%
G36*
G01*
X220815000Y-60730000D02*
X221185000Y-60730000D01*
G75*
G02*
X221320000Y-60865000I0J-135000D01*
G01*
X221320000Y-61135000D01*
G75*
G02*
X221185000Y-61270000I-135000J0D01*
G01*
X220815000Y-61270000D01*
G75*
G02*
X220680000Y-61135000I0J135000D01*
G01*
X220680000Y-60865000D01*
G75*
G02*
X220815000Y-60730000I135000J0D01*
G01*
G37*
%TD.AperFunction*%
%TD*%
%TO.P,R8,1*%
%TO.N,+3V3*%
%TA.AperFunction,SMDPad,CuDef*%
G36*
G01*
X192557500Y-100185000D02*
X192557500Y-99815000D01*
G75*
G02*
X192692500Y-99680000I135000J0D01*
G01*
X192962500Y-99680000D01*
G75*
G02*
X193097500Y-99815000I0J-135000D01*
G01*
X193097500Y-100185000D01*
G75*
G02*
X192962500Y-100320000I-135000J0D01*
G01*
X192692500Y-100320000D01*
G75*
G02*
X192557500Y-100185000I0J135000D01*
G01*
G37*
%TD.AperFunction*%
%TO.P,R8,2*%
%TO.N,Net-(R8-Pad2)*%
%TA.AperFunction,SMDPad,CuDef*%
G36*
G01*
X193577500Y-100185000D02*
X193577500Y-99815000D01*
G75*
G02*
X193712500Y-99680000I135000J0D01*
G01*
X193982500Y-99680000D01*
G75*
G02*
X194117500Y-99815000I0J-135000D01*
G01*
X194117500Y-100185000D01*
G75*
G02*
X193982500Y-100320000I-135000J0D01*
G01*
X193712500Y-100320000D01*
G75*
G02*
X193577500Y-100185000I0J135000D01*
G01*
G37*
%TD.AperFunction*%
%TD*%
%TO.P,R9,2*%
%TO.N,Net-(R8-Pad2)*%
%TA.AperFunction,SMDPad,CuDef*%
G36*
G01*
X193577500Y-97435000D02*
X193577500Y-97065000D01*
G75*
G02*
X193712500Y-96930000I135000J0D01*
G01*
X193982500Y-96930000D01*
G75*
G02*
X194117500Y-97065000I0J-135000D01*
G01*
X194117500Y-97435000D01*
G75*
G02*
X193982500Y-97570000I-135000J0D01*
G01*
X193712500Y-97570000D01*
G75*
G02*
X193577500Y-97435000I0J135000D01*
G01*
G37*
%TD.AperFunction*%
%TO.P,R9,1*%
%TO.N,TIM4_CH1_CLK*%
%TA.AperFunction,SMDPad,CuDef*%
G36*
G01*
X192557500Y-97435000D02*
X192557500Y-97065000D01*
G75*
G02*
X192692500Y-96930000I135000J0D01*
G01*
X192962500Y-96930000D01*
G75*
G02*
X193097500Y-97065000I0J-135000D01*
G01*
X193097500Y-97435000D01*
G75*
G02*
X192962500Y-97570000I-135000J0D01*
G01*
X192692500Y-97570000D01*
G75*
G02*
X192557500Y-97435000I0J135000D01*
G01*
G37*
%TD.AperFunction*%
%TD*%
%TO.P,R10,1*%
%TO.N,+3V3*%
%TA.AperFunction,SMDPad,CuDef*%
G36*
G01*
X212435000Y-76290000D02*
X212065000Y-76290000D01*
G75*
G02*
X211930000Y-76155000I0J135000D01*
G01*
X211930000Y-75885000D01*
G75*
G02*
X212065000Y-75750000I135000J0D01*
G01*
X212435000Y-75750000D01*
G75*
G02*
X212570000Y-75885000I0J-135000D01*
G01*
X212570000Y-76155000D01*
G75*
G02*
X212435000Y-76290000I-135000J0D01*
G01*
G37*
%TD.AperFunction*%
%TO.P,R10,2*%
%TO.N,I2C1_SDA*%
%TA.AperFunction,SMDPad,CuDef*%
G36*
G01*
X212435000Y-75270000D02*
X212065000Y-75270000D01*
G75*
G02*
X211930000Y-75135000I0J135000D01*
G01*
X211930000Y-74865000D01*
G75*
G02*
X212065000Y-74730000I135000J0D01*
G01*
X212435000Y-74730000D01*
G75*
G02*
X212570000Y-74865000I0J-135000D01*
G01*
X212570000Y-75135000D01*
G75*
G02*
X212435000Y-75270000I-135000J0D01*
G01*
G37*
%TD.AperFunction*%
%TD*%
%TO.P,R11,2*%
%TO.N,I2C1_SCL*%
%TA.AperFunction,SMDPad,CuDef*%
G36*
G01*
X208730000Y-73685000D02*
X208730000Y-73315000D01*
G75*
G02*
X208865000Y-73180000I135000J0D01*
G01*
X209135000Y-73180000D01*
G75*
G02*
X209270000Y-73315000I0J-135000D01*
G01*
X209270000Y-73685000D01*
G75*
G02*
X209135000Y-73820000I-135000J0D01*
G01*
X208865000Y-73820000D01*
G75*
G02*
X208730000Y-73685000I0J135000D01*
G01*
G37*
%TD.AperFunction*%
%TO.P,R11,1*%
%TO.N,+3V3*%
%TA.AperFunction,SMDPad,CuDef*%
G36*
G01*
X207710000Y-73685000D02*
X207710000Y-73315000D01*
G75*
G02*
X207845000Y-73180000I135000J0D01*
G01*
X208115000Y-73180000D01*
G75*
G02*
X208250000Y-73315000I0J-135000D01*
G01*
X208250000Y-73685000D01*
G75*
G02*
X208115000Y-73820000I-135000J0D01*
G01*
X207845000Y-73820000D01*
G75*
G02*
X207710000Y-73685000I0J135000D01*
G01*
G37*
%TD.AperFunction*%
%TD*%
%TO.P,R12,1*%
%TO.N,Net-(D3-Pad1)*%
%TA.AperFunction,SMDPad,CuDef*%
G36*
G01*
X207210000Y-104685000D02*
X207210000Y-104315000D01*
G75*
G02*
X207345000Y-104180000I135000J0D01*
G01*
X207615000Y-104180000D01*
G75*
G02*
X207750000Y-104315000I0J-135000D01*
G01*
X207750000Y-104685000D01*
G75*
G02*
X207615000Y-104820000I-135000J0D01*
G01*
X207345000Y-104820000D01*
G75*
G02*
X207210000Y-104685000I0J135000D01*
G01*
G37*
%TD.AperFunction*%
%TO.P,R12,2*%
%TO.N,GND*%
%TA.AperFunction,SMDPad,CuDef*%
G36*
G01*
X208230000Y-104685000D02*
X208230000Y-104315000D01*
G75*
G02*
X208365000Y-104180000I135000J0D01*
G01*
X208635000Y-104180000D01*
G75*
G02*
X208770000Y-104315000I0J-135000D01*
G01*
X208770000Y-104685000D01*
G75*
G02*
X208635000Y-104820000I-135000J0D01*
G01*
X208365000Y-104820000D01*
G75*
G02*
X208230000Y-104685000I0J135000D01*
G01*
G37*
%TD.AperFunction*%
%TD*%
%TO.P,R13,1*%
%TO.N,HSE_OUT*%
%TA.AperFunction,SMDPad,CuDef*%
G36*
G01*
X220815000Y-78710000D02*
X221185000Y-78710000D01*
G75*
G02*
X221320000Y-78845000I0J-135000D01*
G01*
X221320000Y-79115000D01*
G75*
G02*
X221185000Y-79250000I-135000J0D01*
G01*
X220815000Y-79250000D01*
G75*
G02*
X220680000Y-79115000I0J135000D01*
G01*
X220680000Y-78845000D01*
G75*
G02*
X220815000Y-78710000I135000J0D01*
G01*
G37*
%TD.AperFunction*%
%TO.P,R13,2*%
%TO.N,Net-(C2-Pad1)*%
%TA.AperFunction,SMDPad,CuDef*%
G36*
G01*
X220815000Y-79730000D02*
X221185000Y-79730000D01*
G75*
G02*
X221320000Y-79865000I0J-135000D01*
G01*
X221320000Y-80135000D01*
G75*
G02*
X221185000Y-80270000I-135000J0D01*
G01*
X220815000Y-80270000D01*
G75*
G02*
X220680000Y-80135000I0J135000D01*
G01*
X220680000Y-79865000D01*
G75*
G02*
X220815000Y-79730000I135000J0D01*
G01*
G37*
%TD.AperFunction*%
%TD*%
D27*
%TO.P,U2,1*%
%TO.N,Net-(C4-Pad1)*%
X205100000Y-60950000D03*
%TO.P,U2,2*%
%TO.N,GND*%
X205100000Y-60000000D03*
%TO.P,U2,3*%
%TO.N,Net-(C4-Pad1)*%
X205100000Y-59050000D03*
%TO.P,U2,4*%
%TO.N,N/C*%
X202900000Y-59050000D03*
%TO.P,U2,5*%
%TO.N,+3V3*%
X202900000Y-60950000D03*
%TD*%
%TO.P,U4,1*%
%TO.N,N/C*%
%TA.AperFunction,SMDPad,CuDef*%
G36*
G01*
X206745000Y-81700000D02*
X206445000Y-81700000D01*
G75*
G02*
X206295000Y-81550000I0J150000D01*
G01*
X206295000Y-79900000D01*
G75*
G02*
X206445000Y-79750000I150000J0D01*
G01*
X206745000Y-79750000D01*
G75*
G02*
X206895000Y-79900000I0J-150000D01*
G01*
X206895000Y-81550000D01*
G75*
G02*
X206745000Y-81700000I-150000J0D01*
G01*
G37*
%TD.AperFunction*%
%TO.P,U4,2*%
%TA.AperFunction,SMDPad,CuDef*%
G36*
G01*
X208015000Y-81700000D02*
X207715000Y-81700000D01*
G75*
G02*
X207565000Y-81550000I0J150000D01*
G01*
X207565000Y-79900000D01*
G75*
G02*
X207715000Y-79750000I150000J0D01*
G01*
X208015000Y-79750000D01*
G75*
G02*
X208165000Y-79900000I0J-150000D01*
G01*
X208165000Y-81550000D01*
G75*
G02*
X208015000Y-81700000I-150000J0D01*
G01*
G37*
%TD.AperFunction*%
%TO.P,U4,3*%
%TA.AperFunction,SMDPad,CuDef*%
G36*
G01*
X209285000Y-81700000D02*
X208985000Y-81700000D01*
G75*
G02*
X208835000Y-81550000I0J150000D01*
G01*
X208835000Y-79900000D01*
G75*
G02*
X208985000Y-79750000I150000J0D01*
G01*
X209285000Y-79750000D01*
G75*
G02*
X209435000Y-79900000I0J-150000D01*
G01*
X209435000Y-81550000D01*
G75*
G02*
X209285000Y-81700000I-150000J0D01*
G01*
G37*
%TD.AperFunction*%
%TO.P,U4,4*%
%TO.N,GND*%
%TA.AperFunction,SMDPad,CuDef*%
G36*
G01*
X210555000Y-81700000D02*
X210255000Y-81700000D01*
G75*
G02*
X210105000Y-81550000I0J150000D01*
G01*
X210105000Y-79900000D01*
G75*
G02*
X210255000Y-79750000I150000J0D01*
G01*
X210555000Y-79750000D01*
G75*
G02*
X210705000Y-79900000I0J-150000D01*
G01*
X210705000Y-81550000D01*
G75*
G02*
X210555000Y-81700000I-150000J0D01*
G01*
G37*
%TD.AperFunction*%
%TO.P,U4,5*%
%TO.N,I2C1_SDA*%
%TA.AperFunction,SMDPad,CuDef*%
G36*
G01*
X210555000Y-76750000D02*
X210255000Y-76750000D01*
G75*
G02*
X210105000Y-76600000I0J150000D01*
G01*
X210105000Y-74950000D01*
G75*
G02*
X210255000Y-74800000I150000J0D01*
G01*
X210555000Y-74800000D01*
G75*
G02*
X210705000Y-74950000I0J-150000D01*
G01*
X210705000Y-76600000D01*
G75*
G02*
X210555000Y-76750000I-150000J0D01*
G01*
G37*
%TD.AperFunction*%
%TO.P,U4,6*%
%TO.N,I2C1_SCL*%
%TA.AperFunction,SMDPad,CuDef*%
G36*
G01*
X209285000Y-76750000D02*
X208985000Y-76750000D01*
G75*
G02*
X208835000Y-76600000I0J150000D01*
G01*
X208835000Y-74950000D01*
G75*
G02*
X208985000Y-74800000I150000J0D01*
G01*
X209285000Y-74800000D01*
G75*
G02*
X209435000Y-74950000I0J-150000D01*
G01*
X209435000Y-76600000D01*
G75*
G02*
X209285000Y-76750000I-150000J0D01*
G01*
G37*
%TD.AperFunction*%
%TO.P,U4,7*%
%TO.N,N/C*%
%TA.AperFunction,SMDPad,CuDef*%
G36*
G01*
X208015000Y-76750000D02*
X207715000Y-76750000D01*
G75*
G02*
X207565000Y-76600000I0J150000D01*
G01*
X207565000Y-74950000D01*
G75*
G02*
X207715000Y-74800000I150000J0D01*
G01*
X208015000Y-74800000D01*
G75*
G02*
X208165000Y-74950000I0J-150000D01*
G01*
X208165000Y-76600000D01*
G75*
G02*
X208015000Y-76750000I-150000J0D01*
G01*
G37*
%TD.AperFunction*%
%TO.P,U4,8*%
%TO.N,+3V3*%
%TA.AperFunction,SMDPad,CuDef*%
G36*
G01*
X206745000Y-76750000D02*
X206445000Y-76750000D01*
G75*
G02*
X206295000Y-76600000I0J150000D01*
G01*
X206295000Y-74950000D01*
G75*
G02*
X206445000Y-74800000I150000J0D01*
G01*
X206745000Y-74800000D01*
G75*
G02*
X206895000Y-74950000I0J-150000D01*
G01*
X206895000Y-76600000D01*
G75*
G02*
X206745000Y-76750000I-150000J0D01*
G01*
G37*
%TD.AperFunction*%
%TD*%
D28*
%TO.P,Y1,1*%
%TO.N,HSE_IN*%
X218800000Y-83200000D03*
%TO.P,Y1,2*%
%TO.N,GND*%
X221000000Y-83200000D03*
%TO.P,Y1,3*%
%TO.N,Net-(C2-Pad1)*%
X221000000Y-81500000D03*
%TO.P,Y1,4*%
%TO.N,GND*%
X218800000Y-81500000D03*
%TD*%
D18*
%TO.P,J3,1*%
%TO.N,MOUSE05*%
X219000000Y-108000000D03*
D19*
%TO.P,J3,2*%
%TO.N,MOUSE00*%
X219000000Y-105460000D03*
%TO.P,J3,3*%
%TO.N,MOUSE06*%
X221540000Y-108000000D03*
%TO.P,J3,4*%
%TO.N,MOUSE01*%
X221540000Y-105460000D03*
%TO.P,J3,5*%
%TO.N,MOUSE07*%
X224080000Y-108000000D03*
%TO.P,J3,6*%
%TO.N,MOUSE02*%
X224080000Y-105460000D03*
%TO.P,J3,7*%
%TO.N,MOUSE08*%
X226620000Y-108000000D03*
%TO.P,J3,8*%
%TO.N,MOUSE03*%
X226620000Y-105460000D03*
%TO.P,J3,9*%
%TO.N,MOUSE09*%
X229160000Y-108000000D03*
%TO.P,J3,10*%
%TO.N,MOUSE04*%
X229160000Y-105460000D03*
%TO.P,J3,11*%
%TO.N,MOUSE10*%
X231700000Y-108000000D03*
%TO.P,J3,12*%
%TO.N,+3V3*%
X231700000Y-105460000D03*
%TD*%
D18*
%TO.P,J6,1*%
%TO.N,MOUSE16*%
X241040000Y-61500000D03*
D19*
%TO.P,J6,2*%
%TO.N,MOUSE17*%
X238500000Y-61500000D03*
%TO.P,J6,3*%
%TO.N,MOUSE18*%
X235960000Y-61500000D03*
%TO.P,J6,4*%
%TO.N,MOUSE19*%
X233420000Y-61500000D03*
%TD*%
D18*
%TO.P,J7,1*%
%TO.N,MOUSE11*%
X241000000Y-79500000D03*
D19*
%TO.P,J7,2*%
%TO.N,MOUSE12*%
X241000000Y-76960000D03*
%TO.P,J7,3*%
%TO.N,MOUSE13*%
X241000000Y-74420000D03*
%TO.P,J7,4*%
%TO.N,MOUSE14*%
X241000000Y-71880000D03*
%TO.P,J7,5*%
%TO.N,MOUSE15*%
X241000000Y-69340000D03*
%TD*%
D29*
%TO.N,GND*%
X195000000Y-94800000D03*
X198000000Y-94800000D03*
X209800000Y-64000000D03*
X214800000Y-60400000D03*
X203600000Y-56500000D03*
X206250000Y-60019669D03*
X203600000Y-54000000D03*
X232000000Y-68000000D03*
X230500000Y-68000000D03*
X229000000Y-68000000D03*
X215500000Y-64000000D03*
X218000000Y-67500000D03*
X210000000Y-104500000D03*
X210250000Y-83000000D03*
X216500000Y-80750000D03*
X223500000Y-84500000D03*
X216750000Y-73500000D03*
X223250000Y-73750000D03*
X228000000Y-74250000D03*
X233500000Y-68000000D03*
X210750000Y-112850000D03*
X229750000Y-53750000D03*
%TO.N,+3V3*%
X229000000Y-64750000D03*
X230500000Y-64750000D03*
X232000000Y-64750000D03*
X206200000Y-112600000D03*
X201200000Y-100000000D03*
X191800000Y-100000000D03*
X201200000Y-61000000D03*
X211000000Y-66200000D03*
X212400000Y-66200000D03*
X214000000Y-66200000D03*
X217000000Y-67500000D03*
X206750000Y-73750000D03*
X212250000Y-77500000D03*
X216750000Y-74750000D03*
X224000000Y-74500000D03*
X233500000Y-64750000D03*
%TO.N,NRST*%
X217250000Y-72000000D03*
%TO.N,MOUSE13*%
X223250000Y-70500000D03*
%TO.N,MOUSE04*%
X220750000Y-72750000D03*
%TO.N,MOUSE14*%
X223250000Y-69250000D03*
%TO.N,MOUSE05*%
X221500000Y-74500000D03*
%TO.N,MOUSE15*%
X223250000Y-68000000D03*
%TO.N,MOUSE07*%
X224021845Y-79228155D03*
%TO.N,MOUSE08*%
X226250000Y-80500000D03*
%TO.N,SWO*%
X202500000Y-70000000D03*
%TD*%
D30*
%TO.N,GND*%
X212962500Y-52225000D02*
X213500000Y-52762500D01*
X211000000Y-52225000D02*
X212962500Y-52225000D01*
X196750000Y-103750000D02*
X197000000Y-104000000D01*
D31*
X216000000Y-52762500D02*
X214100000Y-52762500D01*
X218000000Y-52762500D02*
X220500000Y-52762500D01*
X216000000Y-52762500D02*
X218000000Y-52762500D01*
D30*
X194950000Y-94750000D02*
X195000000Y-94800000D01*
X193867500Y-94750000D02*
X194950000Y-94750000D01*
X198050000Y-94750000D02*
X198000000Y-94800000D01*
X199157500Y-94750000D02*
X198050000Y-94750000D01*
X210750000Y-112850000D02*
X210800000Y-112800000D01*
X210750000Y-114570000D02*
X210750000Y-112850000D01*
X211000000Y-64000000D02*
X209800000Y-64000000D01*
X216735002Y-60400000D02*
X214800000Y-60400000D01*
X217325000Y-60989998D02*
X216735002Y-60400000D01*
X217325000Y-61525000D02*
X217325000Y-60989998D01*
X212577500Y-58000000D02*
X212577500Y-58177500D01*
X205225000Y-56500000D02*
X203600000Y-56500000D01*
X206230331Y-60000000D02*
X206250000Y-60019669D01*
X205100000Y-60000000D02*
X206230331Y-60000000D01*
X205225000Y-54000000D02*
X203600000Y-54000000D01*
X232000000Y-67000000D02*
X232000000Y-68000000D01*
X230500000Y-66980000D02*
X230500000Y-68000000D01*
X229000000Y-67000000D02*
X229000000Y-68000000D01*
X215460000Y-64040000D02*
X215500000Y-64000000D01*
X214000000Y-64040000D02*
X215460000Y-64040000D01*
X212460000Y-64000000D02*
X212500000Y-64040000D01*
X211000000Y-64000000D02*
X212460000Y-64000000D01*
X212500000Y-64040000D02*
X214000000Y-64040000D01*
X218000000Y-67389998D02*
X218000000Y-67500000D01*
X217250000Y-66639998D02*
X218000000Y-67389998D01*
X217250000Y-65325000D02*
X217250000Y-66639998D01*
D32*
X208500000Y-104500000D02*
X210000000Y-104500000D01*
X210405000Y-82845000D02*
X210250000Y-83000000D01*
X210405000Y-80725000D02*
X210405000Y-82845000D01*
X216500000Y-82040000D02*
X216500000Y-80750000D01*
X217250000Y-81500000D02*
X216500000Y-80750000D01*
X218800000Y-81500000D02*
X217250000Y-81500000D01*
X223500000Y-82960000D02*
X223500000Y-84500000D01*
X222200000Y-83200000D02*
X223500000Y-84500000D01*
X221000000Y-83200000D02*
X222200000Y-83200000D01*
D30*
X216000000Y-74250000D02*
X216750000Y-73500000D01*
X214825000Y-74250000D02*
X216000000Y-74250000D01*
X222250000Y-74750000D02*
X223250000Y-73750000D01*
X222250000Y-76675000D02*
X222250000Y-74750000D01*
X226175000Y-74250000D02*
X228000000Y-74250000D01*
X233500000Y-66960000D02*
X233500000Y-68000000D01*
X228750000Y-67750000D02*
X229000000Y-68000000D01*
X226175000Y-67750000D02*
X228750000Y-67750000D01*
X215210000Y-90210000D02*
X217000000Y-92000000D01*
X214250000Y-90210000D02*
X215210000Y-90210000D01*
X230230000Y-68270000D02*
X230500000Y-68000000D01*
X230230000Y-69250000D02*
X230230000Y-68270000D01*
X229841000Y-53841000D02*
X229750000Y-53750000D01*
X229841000Y-55750000D02*
X229841000Y-53841000D01*
X215700000Y-55462500D02*
X214500000Y-55462500D01*
X212577500Y-58000000D02*
X212577500Y-56622500D01*
X213737500Y-55462500D02*
X214500000Y-55462500D01*
X212577500Y-56622500D02*
X213737500Y-55462500D01*
D32*
%TO.N,HSE_IN*%
X218600000Y-83000000D02*
X218800000Y-83200000D01*
X216500000Y-83000000D02*
X218600000Y-83000000D01*
X219750000Y-83200000D02*
X218800000Y-83200000D01*
X219825001Y-83124999D02*
X219750000Y-83200000D01*
X219825001Y-80639999D02*
X219825001Y-83124999D01*
X218750000Y-79564998D02*
X219825001Y-80639999D01*
X218750000Y-76675000D02*
X218750000Y-79564998D01*
%TO.N,HSE_OUT*%
X221000000Y-78980000D02*
X219980000Y-78980000D01*
X219250000Y-78250000D02*
X219250000Y-76675000D01*
X219980000Y-78980000D02*
X219250000Y-78250000D01*
D30*
%TO.N,+5V*%
X217375001Y-60205001D02*
X219294999Y-60205001D01*
X217325000Y-60155000D02*
X217375001Y-60205001D01*
X217325000Y-59325000D02*
X217325000Y-60155000D01*
X219294999Y-60205001D02*
X219500000Y-60000000D01*
X219500000Y-60000000D02*
X219500000Y-58500000D01*
X218300000Y-57300000D02*
X218300000Y-55462500D01*
X219500000Y-58500000D02*
X218300000Y-57300000D01*
X211612499Y-54387499D02*
X211000000Y-53775000D01*
X218080001Y-54387499D02*
X211612499Y-54387499D01*
X218300000Y-54607498D02*
X218080001Y-54387499D01*
X218300000Y-55462500D02*
X218300000Y-54607498D01*
X211612499Y-59962499D02*
X212150000Y-60500000D01*
X211612499Y-54387499D02*
X211612499Y-59962499D01*
%TO.N,Net-(C4-Pad1)*%
X206775000Y-54000000D02*
X206775000Y-56500000D01*
X205100000Y-60950000D02*
X206550000Y-60950000D01*
X206550000Y-60950000D02*
X207000000Y-60500000D01*
X207000000Y-60500000D02*
X207000000Y-59500000D01*
X206550000Y-59050000D02*
X205100000Y-59050000D01*
X207000000Y-59500000D02*
X206550000Y-59050000D01*
X208850000Y-60500000D02*
X207000000Y-60500000D01*
X206775000Y-58825000D02*
X206550000Y-59050000D01*
X206775000Y-56500000D02*
X206775000Y-58825000D01*
%TO.N,+3V3*%
X212460000Y-64960000D02*
X212500000Y-65000000D01*
X229000000Y-66040000D02*
X229000000Y-64750000D01*
X230500000Y-66020000D02*
X230500000Y-64750000D01*
X232000000Y-66040000D02*
X232000000Y-64750000D01*
X206250000Y-112650000D02*
X206200000Y-112600000D01*
X206250000Y-114570000D02*
X206250000Y-112650000D01*
X200172500Y-100000000D02*
X201200000Y-100000000D01*
X192827500Y-100000000D02*
X191800000Y-100000000D01*
X201250000Y-60950000D02*
X201200000Y-61000000D01*
X202900000Y-60950000D02*
X201250000Y-60950000D01*
X211000000Y-64960000D02*
X211000000Y-66200000D01*
X212500000Y-66100000D02*
X212400000Y-66200000D01*
X212500000Y-65000000D02*
X212500000Y-66100000D01*
X214000000Y-65000000D02*
X214000000Y-66200000D01*
X216750000Y-67250000D02*
X217000000Y-67500000D01*
X216750000Y-65325000D02*
X216750000Y-67250000D01*
D32*
X207000000Y-73500000D02*
X206750000Y-73750000D01*
X207980000Y-73500000D02*
X207000000Y-73500000D01*
X206595000Y-73905000D02*
X206750000Y-73750000D01*
X206595000Y-75775000D02*
X206595000Y-73905000D01*
X212250000Y-76020000D02*
X212250000Y-77500000D01*
D30*
X214825000Y-74750000D02*
X216750000Y-74750000D01*
X216750000Y-76675000D02*
X216750000Y-74750000D01*
X222750000Y-75750000D02*
X224000000Y-74500000D01*
X222750000Y-76675000D02*
X222750000Y-75750000D01*
X224750000Y-73750000D02*
X224000000Y-74500000D01*
X226175000Y-73750000D02*
X224750000Y-73750000D01*
X233500000Y-66000000D02*
X233500000Y-64750000D01*
X228957020Y-66040000D02*
X229000000Y-66040000D01*
X227747020Y-67250000D02*
X228957020Y-66040000D01*
X226175000Y-67250000D02*
X227747020Y-67250000D01*
%TO.N,NRST*%
X219750000Y-74500000D02*
X219750000Y-76675000D01*
X217250000Y-72000000D02*
X219750000Y-74500000D01*
X215250000Y-89250000D02*
X217000000Y-87500000D01*
X214250000Y-89250000D02*
X215250000Y-89250000D01*
X223500000Y-87500000D02*
X217000000Y-87500000D01*
%TO.N,TIM4_CH2_DT*%
X200097500Y-94770000D02*
X200117500Y-94750000D01*
X200097500Y-97250000D02*
X200097500Y-94770000D01*
X203500000Y-91367500D02*
X200117500Y-94750000D01*
X203500000Y-74000000D02*
X203500000Y-91367500D01*
X213457120Y-72250000D02*
X212707120Y-71500000D01*
X214825000Y-72250000D02*
X213457120Y-72250000D01*
X206000000Y-71500000D02*
X203500000Y-74000000D01*
X212707120Y-71500000D02*
X206000000Y-71500000D01*
%TO.N,TIM4_CH1_CLK*%
X192827500Y-94830000D02*
X192907500Y-94750000D01*
X192827500Y-97250000D02*
X192827500Y-94830000D01*
X213664240Y-71750000D02*
X212914240Y-71000000D01*
X214825000Y-71750000D02*
X213664240Y-71750000D01*
D32*
X192907500Y-94440000D02*
X192907500Y-94750000D01*
X201000000Y-86347500D02*
X192907500Y-94440000D01*
X201000000Y-74500000D02*
X201000000Y-86347500D01*
X205000000Y-70500000D02*
X201000000Y-74500000D01*
X212500000Y-70500000D02*
X205000000Y-70500000D01*
X212914240Y-70914240D02*
X212500000Y-70500000D01*
X212914240Y-71000000D02*
X212914240Y-70914240D01*
D30*
%TO.N,Net-(D2-Pad1)*%
X232000000Y-58000000D02*
X232000000Y-55750000D01*
X230250000Y-59750000D02*
X232000000Y-58000000D01*
X225250000Y-59750000D02*
X230250000Y-59750000D01*
%TO.N,Net-(D2-Pad3)*%
X227750000Y-55818000D02*
X227682000Y-55750000D01*
X222500000Y-61000000D02*
X225500000Y-58000000D01*
X225500000Y-58000000D02*
X226500000Y-58000000D01*
X227682000Y-56818000D02*
X227682000Y-55750000D01*
X226500000Y-58000000D02*
X227682000Y-56818000D01*
%TO.N,Net-(D2-Pad4)*%
X225500000Y-55773000D02*
X225523000Y-55750000D01*
X221000000Y-61000000D02*
X221000000Y-58500000D01*
X223750000Y-55750000D02*
X225523000Y-55750000D01*
X221000000Y-58500000D02*
X223750000Y-55750000D01*
%TO.N,Net-(J1-Pad4)*%
X214667502Y-58000000D02*
X216350000Y-56317502D01*
X216350000Y-56317502D02*
X216350000Y-55462500D01*
X213597500Y-58000000D02*
X214667502Y-58000000D01*
%TO.N,SPI1_MISO*%
X235000000Y-86870000D02*
X241000000Y-92870000D01*
X235000000Y-75500000D02*
X235000000Y-86870000D01*
X231750000Y-72250000D02*
X235000000Y-75500000D01*
X226175000Y-72250000D02*
X231750000Y-72250000D01*
%TO.N,SPI1_MOSI*%
X240580000Y-90330000D02*
X241000000Y-90330000D01*
X236000000Y-75250000D02*
X236000000Y-85750000D01*
X236000000Y-85750000D02*
X240580000Y-90330000D01*
X232500000Y-71750000D02*
X236000000Y-75250000D01*
X226175000Y-71750000D02*
X232500000Y-71750000D01*
D32*
%TO.N,SPI1_SCLK*%
X227015702Y-72750000D02*
X226175000Y-72750000D01*
D30*
X230250000Y-72750000D02*
X226175000Y-72750000D01*
X231000000Y-72750000D02*
X230250000Y-72750000D01*
X234000000Y-75750000D02*
X231000000Y-72750000D01*
X234000000Y-88410000D02*
X234000000Y-75750000D01*
X241000000Y-95410000D02*
X234000000Y-88410000D01*
%TO.N,SPI1_CSN*%
X229000000Y-73250000D02*
X226175000Y-73250000D01*
X241000000Y-97950000D02*
X232750000Y-89700000D01*
X232750000Y-89700000D02*
X232750000Y-76000000D01*
X230000000Y-73250000D02*
X229000000Y-73250000D01*
X232750000Y-76000000D02*
X230000000Y-73250000D01*
%TO.N,MOTION_TRACK*%
X233250000Y-71250000D02*
X226175000Y-71250000D01*
X241000000Y-87790000D02*
X239790000Y-87790000D01*
X239790000Y-87790000D02*
X236750000Y-84750000D01*
X236750000Y-74750000D02*
X233250000Y-71250000D01*
X236750000Y-84750000D02*
X236750000Y-74750000D01*
%TO.N,MOUSE00*%
X217250000Y-76675000D02*
X217250000Y-77750000D01*
X215000000Y-78750000D02*
X211250000Y-82500000D01*
X211250000Y-82500000D02*
X211250000Y-101750000D01*
X214960000Y-105460000D02*
X219000000Y-105460000D01*
X211250000Y-101750000D02*
X214960000Y-105460000D01*
X217199990Y-77800010D02*
X217250000Y-77750000D01*
X216699990Y-77800010D02*
X217199990Y-77800010D01*
X215750000Y-78750000D02*
X216699990Y-77800010D01*
X215000000Y-78750000D02*
X215750000Y-78750000D01*
%TO.N,MOUSE10*%
X232900001Y-106799999D02*
X232900001Y-90557121D01*
X232900001Y-90557121D02*
X231500000Y-89157120D01*
X231700000Y-108000000D02*
X232900001Y-106799999D01*
X231500000Y-89157120D02*
X231500000Y-78750000D01*
X230175000Y-78750000D02*
X226175000Y-74750000D01*
X231500000Y-78750000D02*
X230175000Y-78750000D01*
%TO.N,MOUSE01*%
X211750010Y-82707110D02*
X211750010Y-95670010D01*
X215207120Y-79250000D02*
X211750010Y-82707110D01*
X215957120Y-79250000D02*
X215207120Y-79250000D01*
X216907100Y-78300020D02*
X215957120Y-79250000D01*
X217407100Y-78300020D02*
X216907100Y-78300020D01*
X217750000Y-77957120D02*
X217407100Y-78300020D01*
X211750010Y-95670010D02*
X221540000Y-105460000D01*
X217750000Y-76675000D02*
X217750000Y-77957120D01*
%TO.N,MOUSE11*%
X241000000Y-79500000D02*
X237750000Y-79500000D01*
X237750000Y-79500000D02*
X237500000Y-79250000D01*
X237500000Y-79250000D02*
X237500000Y-74750000D01*
X233500000Y-70750000D02*
X226175000Y-70750000D01*
X237500000Y-74750000D02*
X233500000Y-70750000D01*
%TO.N,MOUSE02*%
X212500000Y-83000000D02*
X212500000Y-93880000D01*
X212500000Y-93880000D02*
X224080000Y-105460000D01*
X215500000Y-80000000D02*
X212500000Y-83000000D01*
X216414240Y-80000000D02*
X215500000Y-80000000D01*
X218164240Y-78250000D02*
X216414240Y-80000000D01*
X218250000Y-78250000D02*
X218164240Y-78250000D01*
X218250000Y-76675000D02*
X218250000Y-78250000D01*
%TO.N,MOUSE12*%
X241000000Y-76960000D02*
X238460000Y-76960000D01*
X238000010Y-76500010D02*
X238000010Y-74500010D01*
X238460000Y-76960000D02*
X238000010Y-76500010D01*
X237457120Y-74000000D02*
X233707120Y-70250000D01*
X237500000Y-74000000D02*
X237457120Y-74000000D01*
X238000010Y-74500010D02*
X237500000Y-74000000D01*
X233707120Y-70250000D02*
X226175000Y-70250000D01*
%TO.N,MOUSE03*%
X220250000Y-76675000D02*
X220250000Y-78000000D01*
X226620000Y-83594092D02*
X226620000Y-105460000D01*
X221025908Y-78000000D02*
X226620000Y-83594092D01*
X220250000Y-78000000D02*
X221025908Y-78000000D01*
%TO.N,MOUSE13*%
X224000000Y-69750000D02*
X226175000Y-69750000D01*
X223250000Y-70500000D02*
X224000000Y-69750000D01*
%TO.N,MOUSE04*%
X220750000Y-72750000D02*
X220750000Y-76675000D01*
%TO.N,MOUSE14*%
X223250000Y-69250000D02*
X226175000Y-69250000D01*
%TO.N,MOUSE05*%
X221250000Y-74750000D02*
X221500000Y-74500000D01*
X221250000Y-76675000D02*
X221250000Y-74750000D01*
%TO.N,MOUSE15*%
X224000000Y-68750000D02*
X226175000Y-68750000D01*
X223250000Y-68000000D02*
X224000000Y-68750000D01*
%TO.N,MOUSE06*%
X222500000Y-111000000D02*
X221540000Y-110040000D01*
X227750000Y-111000000D02*
X222500000Y-111000000D01*
X227820001Y-110929999D02*
X227750000Y-111000000D01*
X221540000Y-110040000D02*
X221540000Y-108000000D01*
X227820001Y-84086973D02*
X227820001Y-110929999D01*
X221750000Y-78016972D02*
X227820001Y-84086973D01*
X221750000Y-76675000D02*
X221750000Y-78016972D01*
%TO.N,MOUSE16*%
X225660740Y-63914260D02*
X224250000Y-65325000D01*
X238625740Y-63914260D02*
X225660740Y-63914260D01*
X241040000Y-61500000D02*
X238625740Y-63914260D01*
%TO.N,MOUSE07*%
X223250000Y-78456310D02*
X224021845Y-79228155D01*
X223250000Y-76675000D02*
X223250000Y-78456310D01*
%TO.N,MOUSE17*%
X223750000Y-65325000D02*
X223750000Y-64371360D01*
X223750000Y-64371360D02*
X224707110Y-63414250D01*
X236585750Y-63414250D02*
X238500000Y-61500000D01*
X224707110Y-63414250D02*
X236585750Y-63414250D01*
%TO.N,MOUSE08*%
X223750000Y-77846308D02*
X223750000Y-76675000D01*
X226250000Y-80346308D02*
X223750000Y-77846308D01*
X226250000Y-80500000D02*
X226250000Y-80346308D01*
%TO.N,MOUSE18*%
X223250000Y-64164240D02*
X224500000Y-62914240D01*
X223250000Y-65325000D02*
X223250000Y-64164240D01*
X234545760Y-62914240D02*
X235960000Y-61500000D01*
X224500000Y-62914240D02*
X234545760Y-62914240D01*
%TO.N,MOUSE09*%
X230360001Y-106036001D02*
X230360001Y-82785001D01*
X230360001Y-82785001D02*
X224250000Y-76675000D01*
X229160000Y-107236002D02*
X230360001Y-106036001D01*
X229160000Y-108000000D02*
X229160000Y-107236002D01*
%TO.N,MOUSE19*%
X233420000Y-61500000D02*
X224250000Y-61500000D01*
X222750000Y-63957120D02*
X224000000Y-62707120D01*
X222750000Y-65325000D02*
X222750000Y-63957120D01*
X224000000Y-61750000D02*
X224250000Y-61500000D01*
X224000000Y-62707120D02*
X224000000Y-61750000D01*
D32*
%TO.N,MOUSELEFT*%
X214825000Y-69250000D02*
X212250000Y-69250000D01*
X212250000Y-69250000D02*
X211500000Y-68500000D01*
X211500000Y-68500000D02*
X201500000Y-68500000D01*
X201500000Y-68500000D02*
X199500000Y-70500000D01*
X199500000Y-74750000D02*
X194000000Y-80250000D01*
X199500000Y-70500000D02*
X199500000Y-74750000D01*
%TO.N,MOUSERIGHT*%
X194000000Y-77710000D02*
X199000000Y-72710000D01*
X199000000Y-72710000D02*
X199000000Y-70250000D01*
X199000000Y-70250000D02*
X201250000Y-68000000D01*
X214825000Y-68750000D02*
X212750000Y-68750000D01*
X212000000Y-68000000D02*
X212750000Y-68750000D01*
X201250000Y-68000000D02*
X212000000Y-68000000D01*
D30*
%TO.N,SWDIO*%
X217750000Y-65325000D02*
X217750000Y-63750000D01*
X217750000Y-63750000D02*
X217000000Y-63000000D01*
X196540000Y-62500000D02*
X215700000Y-62500000D01*
X216200000Y-63000000D02*
X217000000Y-63000000D01*
X215700000Y-62500000D02*
X216200000Y-63000000D01*
%TO.N,SWCLK*%
X214825000Y-67250000D02*
X207250000Y-67250000D01*
X205040000Y-65040000D02*
X196540000Y-65040000D01*
X207250000Y-67250000D02*
X205040000Y-65040000D01*
%TO.N,SWO*%
X196670000Y-70250000D02*
X196540000Y-70120000D01*
D32*
X214825000Y-70250000D02*
X213250000Y-70250000D01*
X202799990Y-69700010D02*
X202500000Y-70000000D01*
X212700010Y-69700010D02*
X202799990Y-69700010D01*
X213250000Y-70250000D02*
X212700010Y-69700010D01*
D30*
%TO.N,BOOT*%
X205000000Y-102000000D02*
X205000000Y-74792880D01*
X214825000Y-72750000D02*
X213250000Y-72750000D01*
X213250000Y-72750000D02*
X212500000Y-72000000D01*
X212500000Y-72000000D02*
X207000000Y-72000000D01*
X205000000Y-74000000D02*
X205000000Y-74792880D01*
X207000000Y-72000000D02*
X205000000Y-74000000D01*
%TO.N,Net-(R3-Pad1)*%
X199077500Y-99925000D02*
X199152500Y-100000000D01*
X199077500Y-97250000D02*
X199077500Y-99925000D01*
X199152500Y-103652500D02*
X199500000Y-104000000D01*
X199152500Y-100000000D02*
X199152500Y-103652500D01*
%TO.N,TIM3_CH2_LEDG*%
X222500000Y-62500000D02*
X222500000Y-62020000D01*
X221750000Y-63250000D02*
X222500000Y-62500000D01*
X221750000Y-65325000D02*
X221750000Y-63250000D01*
%TO.N,TIM3_CH1_LEDR*%
X223500000Y-61500000D02*
X224230000Y-60770000D01*
X224230000Y-60770000D02*
X225250000Y-60770000D01*
X223500000Y-62500000D02*
X223500000Y-61500000D01*
X222250000Y-63750000D02*
X223500000Y-62500000D01*
X222250000Y-65325000D02*
X222250000Y-63750000D01*
%TO.N,TIM3_CH3_LEDB*%
X221250000Y-62270000D02*
X221000000Y-62020000D01*
X221250000Y-65325000D02*
X221250000Y-62270000D01*
%TO.N,Net-(R8-Pad2)*%
X193847500Y-97250000D02*
X193847500Y-100000000D01*
X193847500Y-103347500D02*
X194500000Y-104000000D01*
X193847500Y-100000000D02*
X193847500Y-103347500D01*
%TO.N,I2C1_SDA*%
X211180000Y-75000000D02*
X210405000Y-75775000D01*
X212250000Y-75000000D02*
X211180000Y-75000000D01*
X213500000Y-73750000D02*
X212250000Y-75000000D01*
X214825000Y-73750000D02*
X213500000Y-73750000D01*
%TO.N,I2C1_SCL*%
X209135000Y-73635000D02*
X209000000Y-73500000D01*
X209135000Y-75775000D02*
X209135000Y-73635000D01*
X209250000Y-73250000D02*
X209000000Y-73500000D01*
X214825000Y-73250000D02*
X209250000Y-73250000D01*
%TO.N,Net-(D3-Pad1)*%
X206962500Y-105115000D02*
X207327500Y-104750000D01*
X206962500Y-108500000D02*
X206962500Y-105115000D01*
%TO.N,Net-(D3-Pad2)*%
X209250000Y-109212500D02*
X208537500Y-108500000D01*
X209250000Y-114570000D02*
X209250000Y-109212500D01*
X207712490Y-109325010D02*
X207674990Y-109325010D01*
X208537500Y-108500000D02*
X207712490Y-109325010D01*
X207000000Y-110000000D02*
X206500000Y-110000000D01*
X207674990Y-109325010D02*
X207000000Y-110000000D01*
X206500000Y-110000000D02*
X205000000Y-108500000D01*
X205000000Y-108500000D02*
X205000000Y-103020000D01*
D33*
%TO.N,/USB_CONN-*%
X217650000Y-56475001D02*
X217650000Y-55462500D01*
X217557156Y-56567845D02*
X217650000Y-56475001D01*
X217557156Y-57812155D02*
X217557156Y-56567845D01*
X218275000Y-59325000D02*
X218275000Y-58529999D01*
X218275000Y-58529999D02*
X217557156Y-57812155D01*
%TO.N,/USB_CONN+*%
X217000000Y-56475001D02*
X217000000Y-55462500D01*
X217092844Y-56567845D02*
X217000000Y-56475001D01*
X217092844Y-57812155D02*
X217092844Y-56567845D01*
X216375000Y-58529999D02*
X217092844Y-57812155D01*
X216375000Y-59325000D02*
X216375000Y-58529999D01*
%TO.N,USB_PIN+*%
X216669443Y-62319446D02*
X216669443Y-61819443D01*
X216735554Y-62385557D02*
X216669443Y-62319446D01*
X217235557Y-62385557D02*
X216735554Y-62385557D01*
X216669443Y-61819443D02*
X216375000Y-61525000D01*
X218267844Y-63417844D02*
X217235557Y-62385557D01*
X218267844Y-65307156D02*
X218267844Y-63417844D01*
X218250000Y-65325000D02*
X218267844Y-65307156D01*
%TO.N,USB_PIN-*%
X218732156Y-63225519D02*
X218275000Y-62768363D01*
X218732156Y-65307156D02*
X218732156Y-63225519D01*
X218750000Y-65325000D02*
X218732156Y-65307156D01*
X218275000Y-62768363D02*
X218275000Y-61525000D01*
D32*
%TO.N,Net-(C2-Pad1)*%
X223000000Y-81500000D02*
X223500000Y-82000000D01*
X221000000Y-81500000D02*
X223000000Y-81500000D01*
X221000000Y-81500000D02*
X221000000Y-80000000D01*
D30*
%TO.N,Net-(C19-Pad1)*%
X229270000Y-69250000D02*
X229000000Y-69250000D01*
X228000000Y-68250000D02*
X227000000Y-68250000D01*
X229000000Y-69250000D02*
X228000000Y-68250000D01*
X227000000Y-68250000D02*
X227250000Y-68250000D01*
X226175000Y-68250000D02*
X227000000Y-68250000D01*
%TD*%
M02*
