M48
; DRILL file {KiCad (5.1.10)-1} date 11/12/21 17:46:40
; FORMAT={-:-/ absolute / inch / decimal}
; #@! TF.CreationDate,2021-11-12T17:46:40-08:00
; #@! TF.GenerationSoftware,Kicad,Pcbnew,(5.1.10)-1
; #@! TF.FileFunction,Plated,1,4,PTH
FMAT,2
INCH
T1C0.0157
T2C0.0236
T3C0.0335
T4C0.0354
T5C0.0394
T6C0.0433
T7C0.0591
%
G90
G05
T1
X7.5512Y-3.937
X7.6772Y-3.7323
X7.7953Y-3.7323
X7.9213Y-2.4016
X7.9213Y-3.937
X7.9724Y-2.7559
X8.0157Y-2.126
X8.0157Y-2.2244
X8.1181Y-4.4331
X8.1201Y-2.363
X8.1398Y-2.9035
X8.2598Y-2.5197
X8.2677Y-4.1142
X8.2776Y-3.2677
X8.2972Y-4.4429
X8.3071Y-2.6063
X8.3563Y-3.0512
X8.3622Y-2.6063
X8.4252Y-2.6063
X8.4567Y-2.378
X8.4843Y-2.5197
X8.5236Y-3.1791
X8.5335Y-2.8937
X8.5335Y-2.9429
X8.5433Y-2.6575
X8.5531Y-2.8346
X8.5827Y-2.6575
X8.6909Y-2.8642
X8.7205Y-2.9331
X8.7894Y-2.6772
X8.7894Y-2.7264
X8.7894Y-2.7756
X8.7894Y-2.9035
X8.7992Y-3.3268
X8.8189Y-2.9331
X8.8198Y-3.1192
X8.9075Y-3.1693
X8.9764Y-2.9232
X9.0157Y-2.5492
X9.0157Y-2.6772
X9.0453Y-2.1161
X9.0748Y-2.5492
X9.0748Y-2.6772
X9.1339Y-2.5492
X9.1339Y-2.6772
X9.1929Y-2.5492
X9.1929Y-2.6772
T3
X8.4449Y-2.1836
X8.6417Y-2.1836
T4
X8.8789Y-2.1949
X8.9639Y-2.1949
X9.0489Y-2.1949
X9.1339Y-2.1949
T5
X7.6378Y-2.4606
X7.6378Y-2.5606
X7.6378Y-2.6606
X7.6378Y-2.7606
X7.6378Y-2.9594
X7.6378Y-3.0594
X7.6378Y-3.1594
X7.6575Y-4.0945
X7.6575Y-4.6654
X7.7378Y-2.4606
X7.7378Y-2.5606
X7.7378Y-2.6606
X7.7378Y-2.7606
X7.7559Y-4.0945
X7.8543Y-4.0945
X7.8543Y-4.6654
X8.622Y-4.152
X8.622Y-4.252
X8.722Y-4.152
X8.722Y-4.252
X8.822Y-4.152
X8.822Y-4.252
X8.922Y-4.152
X8.922Y-4.252
X9.022Y-4.152
X9.022Y-4.252
X9.122Y-4.152
X9.122Y-4.252
X9.1898Y-2.4213
X9.2898Y-2.4213
X9.3898Y-2.4213
X9.4882Y-2.7299
X9.4882Y-2.8299
X9.4882Y-2.9299
X9.4882Y-3.0299
X9.4882Y-3.1299
X9.4882Y-3.3563
X9.4882Y-3.4563
X9.4882Y-3.5563
X9.4882Y-3.6563
X9.4882Y-3.7563
X9.4882Y-3.8563
X9.4882Y-3.9563
X9.4898Y-2.4213
T6
X8.5433Y-3.4449
X8.5433Y-3.622
X8.7992Y-3.4449
X8.7992Y-3.622
T7
X7.6378Y-2.126
X9.4488Y-2.126
T2
G00X8.4055Y-2.091
M15
G01X8.4055Y-2.0635
M16
G05
G00X8.6811Y-2.0635
M15
G01X8.6811Y-2.091
M16
G05
T7
G00X7.5354Y-4.3642
M15
G01X7.5354Y-4.4154
M16
G05
G00X7.9764Y-4.3642
M15
G01X7.9764Y-4.4154
M16
G05
T0
M30
