%TF.GenerationSoftware,KiCad,Pcbnew,(5.1.10)-1*%
%TF.CreationDate,2021-11-12T17:46:38-08:00*%
%TF.ProjectId,mouse_proj,6d6f7573-655f-4707-926f-6a2e6b696361,rev?*%
%TF.SameCoordinates,Original*%
%TF.FileFunction,Soldermask,Bot*%
%TF.FilePolarity,Negative*%
%FSLAX46Y46*%
G04 Gerber Fmt 4.6, Leading zero omitted, Abs format (unit mm)*
G04 Created by KiCad (PCBNEW (5.1.10)-1) date 2021-11-12 17:46:38*
%MOMM*%
%LPD*%
G01*
G04 APERTURE LIST*
%ADD10C,2.000000*%
%ADD11R,1.800000X1.800000*%
%ADD12C,1.800000*%
%ADD13C,1.450000*%
%ADD14O,1.200000X1.900000*%
%ADD15R,1.700000X1.700000*%
%ADD16O,1.700000X1.700000*%
%ADD17C,0.900000*%
%ADD18R,2.000000X3.200000*%
%ADD19R,2.000000X2.000000*%
%ADD20C,3.000000*%
G04 APERTURE END LIST*
D10*
%TO.C,SW2*%
X223500000Y-87500000D03*
X223500000Y-92000000D03*
X217000000Y-87500000D03*
X217000000Y-92000000D03*
%TD*%
D11*
%TO.C,D2*%
X232000000Y-55750000D03*
D12*
X229841000Y-55750000D03*
X227682000Y-55750000D03*
X225523000Y-55750000D03*
%TD*%
D13*
%TO.C,J1*%
X219500000Y-55462500D03*
X214500000Y-55462500D03*
D14*
X220500000Y-52762500D03*
X213500000Y-52762500D03*
%TD*%
D15*
%TO.C,J2*%
X241000000Y-85250000D03*
D16*
X241000000Y-87790000D03*
X241000000Y-90330000D03*
X241000000Y-92870000D03*
X241000000Y-95410000D03*
X241000000Y-97950000D03*
X241000000Y-100490000D03*
%TD*%
D15*
%TO.C,J4*%
X194000000Y-80250000D03*
D16*
X194000000Y-77710000D03*
X194000000Y-75170000D03*
%TD*%
D15*
%TO.C,J5*%
X194000000Y-62500000D03*
D16*
X196540000Y-62500000D03*
X194000000Y-65040000D03*
X196540000Y-65040000D03*
X194000000Y-67580000D03*
X196540000Y-67580000D03*
X194000000Y-70120000D03*
X196540000Y-70120000D03*
%TD*%
D17*
%TO.C,SW1*%
X207000000Y-116330000D03*
X210000000Y-116330000D03*
%TD*%
D10*
%TO.C,SW3*%
X194500000Y-118500000D03*
X199500000Y-118500000D03*
D18*
X191400000Y-111500000D03*
X202600000Y-111500000D03*
D10*
X194500000Y-104000000D03*
X197000000Y-104000000D03*
D19*
X199500000Y-104000000D03*
%TD*%
D20*
%TO.C,TP1*%
X194000000Y-54000000D03*
%TD*%
%TO.C,TP2*%
X240000000Y-54000000D03*
%TD*%
D15*
%TO.C,J3*%
X219000000Y-108000000D03*
D16*
X219000000Y-105460000D03*
X221540000Y-108000000D03*
X221540000Y-105460000D03*
X224080000Y-108000000D03*
X224080000Y-105460000D03*
X226620000Y-108000000D03*
X226620000Y-105460000D03*
X229160000Y-108000000D03*
X229160000Y-105460000D03*
X231700000Y-108000000D03*
X231700000Y-105460000D03*
%TD*%
D15*
%TO.C,J6*%
X241040000Y-61500000D03*
D16*
X238500000Y-61500000D03*
X235960000Y-61500000D03*
X233420000Y-61500000D03*
%TD*%
D15*
%TO.C,J7*%
X241000000Y-79500000D03*
D16*
X241000000Y-76960000D03*
X241000000Y-74420000D03*
X241000000Y-71880000D03*
X241000000Y-69340000D03*
%TD*%
M02*
