M48
; DRILL file {KiCad (5.1.10)-1} date 11/08/21 13:26:22
; FORMAT={-:-/ absolute / inch / decimal}
; #@! TF.CreationDate,2021-11-08T13:26:22-08:00
; #@! TF.GenerationSoftware,Kicad,Pcbnew,(5.1.10)-1
; #@! TF.FileFunction,NonPlated,1,2,NPTH
FMAT,2
INCH
T1C0.0480
%
G90
G05
T1
X4.8287Y-3.1602
X4.8287Y-3.672
X4.8287Y-4.1839
X5.1287Y-2.9602
X5.1287Y-3.472
X5.1287Y-3.9839
X5.3799Y-3.1602
X5.3799Y-3.672
X5.3799Y-4.1839
X5.6799Y-2.9602
X5.6799Y-3.472
X5.6799Y-3.9839
X5.9311Y-3.1602
X5.9311Y-3.672
X5.9311Y-4.1839
X6.2311Y-2.9602
X6.2311Y-3.472
X6.2311Y-3.9839
X6.4823Y-3.1602
X6.4823Y-3.672
X6.4823Y-4.1839
X6.7823Y-2.9602
X6.7823Y-3.472
X6.7823Y-3.9839
T0
M30
