%TF.GenerationSoftware,KiCad,Pcbnew,(5.1.10)-1*%
%TF.CreationDate,2021-11-08T13:26:20-08:00*%
%TF.ProjectId,button_grid,62757474-6f6e-45f6-9772-69642e6b6963,rev?*%
%TF.SameCoordinates,Original*%
%TF.FileFunction,Profile,NP*%
%FSLAX46Y46*%
G04 Gerber Fmt 4.6, Leading zero omitted, Abs format (unit mm)*
G04 Created by KiCad (PCBNEW (5.1.10)-1) date 2021-11-08 13:26:20*
%MOMM*%
%LPD*%
G01*
G04 APERTURE LIST*
%TA.AperFunction,Profile*%
%ADD10C,0.050000*%
%TD*%
G04 APERTURE END LIST*
D10*
X147500000Y-80000000D02*
G75*
G02*
X148500000Y-81000000I0J-1000000D01*
G01*
X146500000Y-81000000D02*
X146500000Y-106000000D01*
X148500000Y-81000000D02*
X148500000Y-106000000D01*
X147500000Y-107000000D02*
G75*
G02*
X146500000Y-106000000I0J1000000D01*
G01*
X148500000Y-106000000D02*
G75*
G02*
X147500000Y-107000000I-1000000J0D01*
G01*
X146500000Y-81000000D02*
G75*
G02*
X147500000Y-80000000I1000000J0D01*
G01*
X133500000Y-80000000D02*
G75*
G02*
X134500000Y-81000000I0J-1000000D01*
G01*
X132500000Y-81000000D02*
X132500000Y-106000000D01*
X134500000Y-81000000D02*
X134500000Y-106000000D01*
X133500000Y-107000000D02*
G75*
G02*
X132500000Y-106000000I0J1000000D01*
G01*
X134500000Y-106000000D02*
G75*
G02*
X133500000Y-107000000I-1000000J0D01*
G01*
X132500000Y-81000000D02*
G75*
G02*
X133500000Y-80000000I1000000J0D01*
G01*
X162500000Y-106000000D02*
G75*
G02*
X161500000Y-107000000I-1000000J0D01*
G01*
X161500000Y-107000000D02*
G75*
G02*
X160500000Y-106000000I0J1000000D01*
G01*
X162500000Y-81000000D02*
X162500000Y-106000000D01*
X161500000Y-80000000D02*
G75*
G02*
X162500000Y-81000000I0J-1000000D01*
G01*
X160500000Y-81000000D02*
G75*
G02*
X161500000Y-80000000I1000000J0D01*
G01*
X160500000Y-81000000D02*
X160500000Y-106000000D01*
X120000000Y-109000000D02*
X120000000Y-70000000D01*
X175000000Y-109000000D02*
X120000000Y-109000000D01*
X175000000Y-70000000D02*
X175000000Y-109000000D01*
X120000000Y-70000000D02*
X175000000Y-70000000D01*
M02*
