M48
; DRILL file {KiCad (5.1.10)-1} date 11/08/21 13:26:22
; FORMAT={-:-/ absolute / inch / decimal}
; #@! TF.CreationDate,2021-11-08T13:26:22-08:00
; #@! TF.GenerationSoftware,Kicad,Pcbnew,(5.1.10)-1
; #@! TF.FileFunction,Plated,1,2,PTH
FMAT,2
INCH
T1C0.0394
T2C0.0480
%
G90
G05
T1
X4.9921Y-2.9134
X5.0Y-3.3661
X5.0Y-3.878
X5.5512Y-3.3661
X5.5512Y-3.878
X5.563Y-2.9134
X6.0945Y-2.9134
X6.1024Y-3.3661
X6.1024Y-3.878
X6.6457Y-2.9134
X6.6535Y-3.3661
X6.6535Y-3.878
X6.811Y-4.2126
T2
X4.8287Y-2.8634
X4.8287Y-3.3752
X4.8287Y-3.887
X5.0319Y-3.0634
X5.0319Y-3.5752
X5.0319Y-4.087
X5.3799Y-2.8634
X5.3799Y-3.3752
X5.3799Y-3.887
X5.5831Y-3.0634
X5.5831Y-3.5752
X5.5831Y-4.087
X5.9311Y-2.8634
X5.9311Y-3.3752
X5.9311Y-3.887
X6.1343Y-3.0634
X6.1343Y-3.5752
X6.1343Y-4.087
X6.4823Y-2.8634
X6.4823Y-3.3752
X6.4823Y-3.887
X6.6854Y-3.0634
X6.6854Y-3.5752
X6.6854Y-4.087
T0
M30
