%TF.GenerationSoftware,KiCad,Pcbnew,(5.1.10)-1*%
%TF.CreationDate,2021-11-08T13:26:20-08:00*%
%TF.ProjectId,button_grid,62757474-6f6e-45f6-9772-69642e6b6963,rev?*%
%TF.SameCoordinates,Original*%
%TF.FileFunction,Legend,Bot*%
%TF.FilePolarity,Positive*%
%FSLAX46Y46*%
G04 Gerber Fmt 4.6, Leading zero omitted, Abs format (unit mm)*
G04 Created by KiCad (PCBNEW (5.1.10)-1) date 2021-11-08 13:26:20*
%MOMM*%
%LPD*%
G01*
G04 APERTURE LIST*
%ADD10C,0.120000*%
%ADD11C,0.150000*%
G04 APERTURE END LIST*
D10*
%TO.C,J1*%
X171670000Y-105670000D02*
X174330000Y-105670000D01*
X171670000Y-105730000D02*
X171670000Y-105670000D01*
X174330000Y-105730000D02*
X174330000Y-105670000D01*
X171670000Y-105730000D02*
X174330000Y-105730000D01*
X171670000Y-107000000D02*
X171670000Y-108330000D01*
X171670000Y-108330000D02*
X173000000Y-108330000D01*
%TO.C,M0*%
X125470000Y-75330000D02*
X126800000Y-75330000D01*
X125470000Y-74000000D02*
X125470000Y-75330000D01*
X125470000Y-72730000D02*
X128130000Y-72730000D01*
X128130000Y-72730000D02*
X128130000Y-72670000D01*
X125470000Y-72730000D02*
X125470000Y-72670000D01*
X125470000Y-72670000D02*
X128130000Y-72670000D01*
%TO.C,M1*%
X139970000Y-72670000D02*
X142630000Y-72670000D01*
X139970000Y-72730000D02*
X139970000Y-72670000D01*
X142630000Y-72730000D02*
X142630000Y-72670000D01*
X139970000Y-72730000D02*
X142630000Y-72730000D01*
X139970000Y-74000000D02*
X139970000Y-75330000D01*
X139970000Y-75330000D02*
X141300000Y-75330000D01*
%TO.C,M2*%
X153470000Y-75330000D02*
X154800000Y-75330000D01*
X153470000Y-74000000D02*
X153470000Y-75330000D01*
X153470000Y-72730000D02*
X156130000Y-72730000D01*
X156130000Y-72730000D02*
X156130000Y-72670000D01*
X153470000Y-72730000D02*
X153470000Y-72670000D01*
X153470000Y-72670000D02*
X156130000Y-72670000D01*
%TO.C,M3*%
X167470000Y-72670000D02*
X170130000Y-72670000D01*
X167470000Y-72730000D02*
X167470000Y-72670000D01*
X170130000Y-72730000D02*
X170130000Y-72670000D01*
X167470000Y-72730000D02*
X170130000Y-72730000D01*
X167470000Y-74000000D02*
X167470000Y-75330000D01*
X167470000Y-75330000D02*
X168800000Y-75330000D01*
%TO.C,M4*%
X125670000Y-86830000D02*
X127000000Y-86830000D01*
X125670000Y-85500000D02*
X125670000Y-86830000D01*
X125670000Y-84230000D02*
X128330000Y-84230000D01*
X128330000Y-84230000D02*
X128330000Y-84170000D01*
X125670000Y-84230000D02*
X125670000Y-84170000D01*
X125670000Y-84170000D02*
X128330000Y-84170000D01*
%TO.C,M5*%
X139670000Y-84170000D02*
X142330000Y-84170000D01*
X139670000Y-84230000D02*
X139670000Y-84170000D01*
X142330000Y-84230000D02*
X142330000Y-84170000D01*
X139670000Y-84230000D02*
X142330000Y-84230000D01*
X139670000Y-85500000D02*
X139670000Y-86830000D01*
X139670000Y-86830000D02*
X141000000Y-86830000D01*
%TO.C,M6*%
X153670000Y-86830000D02*
X155000000Y-86830000D01*
X153670000Y-85500000D02*
X153670000Y-86830000D01*
X153670000Y-84230000D02*
X156330000Y-84230000D01*
X156330000Y-84230000D02*
X156330000Y-84170000D01*
X153670000Y-84230000D02*
X153670000Y-84170000D01*
X153670000Y-84170000D02*
X156330000Y-84170000D01*
%TO.C,M7*%
X167670000Y-86830000D02*
X169000000Y-86830000D01*
X167670000Y-85500000D02*
X167670000Y-86830000D01*
X167670000Y-84230000D02*
X170330000Y-84230000D01*
X170330000Y-84230000D02*
X170330000Y-84170000D01*
X167670000Y-84230000D02*
X167670000Y-84170000D01*
X167670000Y-84170000D02*
X170330000Y-84170000D01*
%TO.C,M8*%
X125670000Y-97170000D02*
X128330000Y-97170000D01*
X125670000Y-97230000D02*
X125670000Y-97170000D01*
X128330000Y-97230000D02*
X128330000Y-97170000D01*
X125670000Y-97230000D02*
X128330000Y-97230000D01*
X125670000Y-98500000D02*
X125670000Y-99830000D01*
X125670000Y-99830000D02*
X127000000Y-99830000D01*
%TO.C,M9*%
X139670000Y-99830000D02*
X141000000Y-99830000D01*
X139670000Y-98500000D02*
X139670000Y-99830000D01*
X139670000Y-97230000D02*
X142330000Y-97230000D01*
X142330000Y-97230000D02*
X142330000Y-97170000D01*
X139670000Y-97230000D02*
X139670000Y-97170000D01*
X139670000Y-97170000D02*
X142330000Y-97170000D01*
%TO.C,M10*%
X153670000Y-97170000D02*
X156330000Y-97170000D01*
X153670000Y-97230000D02*
X153670000Y-97170000D01*
X156330000Y-97230000D02*
X156330000Y-97170000D01*
X153670000Y-97230000D02*
X156330000Y-97230000D01*
X153670000Y-98500000D02*
X153670000Y-99830000D01*
X153670000Y-99830000D02*
X155000000Y-99830000D01*
%TO.C,M11*%
X167670000Y-99830000D02*
X169000000Y-99830000D01*
X167670000Y-98500000D02*
X167670000Y-99830000D01*
X167670000Y-97230000D02*
X170330000Y-97230000D01*
X170330000Y-97230000D02*
X170330000Y-97170000D01*
X167670000Y-97230000D02*
X167670000Y-97170000D01*
X167670000Y-97170000D02*
X170330000Y-97170000D01*
%TO.C,J1*%
D11*
X170333333Y-106952380D02*
X170333333Y-107666666D01*
X170380952Y-107809523D01*
X170476190Y-107904761D01*
X170619047Y-107952380D01*
X170714285Y-107952380D01*
X169333333Y-107952380D02*
X169904761Y-107952380D01*
X169619047Y-107952380D02*
X169619047Y-106952380D01*
X169714285Y-107095238D01*
X169809523Y-107190476D01*
X169904761Y-107238095D01*
%TO.C,M0*%
X131109523Y-73852380D02*
X131109523Y-72852380D01*
X130776190Y-73566666D01*
X130442857Y-72852380D01*
X130442857Y-73852380D01*
X129776190Y-72852380D02*
X129680952Y-72852380D01*
X129585714Y-72900000D01*
X129538095Y-72947619D01*
X129490476Y-73042857D01*
X129442857Y-73233333D01*
X129442857Y-73471428D01*
X129490476Y-73661904D01*
X129538095Y-73757142D01*
X129585714Y-73804761D01*
X129680952Y-73852380D01*
X129776190Y-73852380D01*
X129871428Y-73804761D01*
X129919047Y-73757142D01*
X129966666Y-73661904D01*
X130014285Y-73471428D01*
X130014285Y-73233333D01*
X129966666Y-73042857D01*
X129919047Y-72947619D01*
X129871428Y-72900000D01*
X129776190Y-72852380D01*
%TO.C,M1*%
X145609523Y-73852380D02*
X145609523Y-72852380D01*
X145276190Y-73566666D01*
X144942857Y-72852380D01*
X144942857Y-73852380D01*
X143942857Y-73852380D02*
X144514285Y-73852380D01*
X144228571Y-73852380D02*
X144228571Y-72852380D01*
X144323809Y-72995238D01*
X144419047Y-73090476D01*
X144514285Y-73138095D01*
%TO.C,M2*%
X159109523Y-73852380D02*
X159109523Y-72852380D01*
X158776190Y-73566666D01*
X158442857Y-72852380D01*
X158442857Y-73852380D01*
X158014285Y-72947619D02*
X157966666Y-72900000D01*
X157871428Y-72852380D01*
X157633333Y-72852380D01*
X157538095Y-72900000D01*
X157490476Y-72947619D01*
X157442857Y-73042857D01*
X157442857Y-73138095D01*
X157490476Y-73280952D01*
X158061904Y-73852380D01*
X157442857Y-73852380D01*
%TO.C,M3*%
X173109523Y-73852380D02*
X173109523Y-72852380D01*
X172776190Y-73566666D01*
X172442857Y-72852380D01*
X172442857Y-73852380D01*
X172061904Y-72852380D02*
X171442857Y-72852380D01*
X171776190Y-73233333D01*
X171633333Y-73233333D01*
X171538095Y-73280952D01*
X171490476Y-73328571D01*
X171442857Y-73423809D01*
X171442857Y-73661904D01*
X171490476Y-73757142D01*
X171538095Y-73804761D01*
X171633333Y-73852380D01*
X171919047Y-73852380D01*
X172014285Y-73804761D01*
X172061904Y-73757142D01*
%TO.C,M4*%
X130809523Y-85952380D02*
X130809523Y-84952380D01*
X130476190Y-85666666D01*
X130142857Y-84952380D01*
X130142857Y-85952380D01*
X129238095Y-85285714D02*
X129238095Y-85952380D01*
X129476190Y-84904761D02*
X129714285Y-85619047D01*
X129095238Y-85619047D01*
%TO.C,M5*%
X145309523Y-85952380D02*
X145309523Y-84952380D01*
X144976190Y-85666666D01*
X144642857Y-84952380D01*
X144642857Y-85952380D01*
X143690476Y-84952380D02*
X144166666Y-84952380D01*
X144214285Y-85428571D01*
X144166666Y-85380952D01*
X144071428Y-85333333D01*
X143833333Y-85333333D01*
X143738095Y-85380952D01*
X143690476Y-85428571D01*
X143642857Y-85523809D01*
X143642857Y-85761904D01*
X143690476Y-85857142D01*
X143738095Y-85904761D01*
X143833333Y-85952380D01*
X144071428Y-85952380D01*
X144166666Y-85904761D01*
X144214285Y-85857142D01*
%TO.C,M6*%
X159209523Y-85952380D02*
X159209523Y-84952380D01*
X158876190Y-85666666D01*
X158542857Y-84952380D01*
X158542857Y-85952380D01*
X157638095Y-84952380D02*
X157828571Y-84952380D01*
X157923809Y-85000000D01*
X157971428Y-85047619D01*
X158066666Y-85190476D01*
X158114285Y-85380952D01*
X158114285Y-85761904D01*
X158066666Y-85857142D01*
X158019047Y-85904761D01*
X157923809Y-85952380D01*
X157733333Y-85952380D01*
X157638095Y-85904761D01*
X157590476Y-85857142D01*
X157542857Y-85761904D01*
X157542857Y-85523809D01*
X157590476Y-85428571D01*
X157638095Y-85380952D01*
X157733333Y-85333333D01*
X157923809Y-85333333D01*
X158019047Y-85380952D01*
X158066666Y-85428571D01*
X158114285Y-85523809D01*
%TO.C,M7*%
X174309523Y-85952380D02*
X174309523Y-84952380D01*
X173976190Y-85666666D01*
X173642857Y-84952380D01*
X173642857Y-85952380D01*
X173261904Y-84952380D02*
X172595238Y-84952380D01*
X173023809Y-85952380D01*
%TO.C,M8*%
X131209523Y-98952380D02*
X131209523Y-97952380D01*
X130876190Y-98666666D01*
X130542857Y-97952380D01*
X130542857Y-98952380D01*
X129923809Y-98380952D02*
X130019047Y-98333333D01*
X130066666Y-98285714D01*
X130114285Y-98190476D01*
X130114285Y-98142857D01*
X130066666Y-98047619D01*
X130019047Y-98000000D01*
X129923809Y-97952380D01*
X129733333Y-97952380D01*
X129638095Y-98000000D01*
X129590476Y-98047619D01*
X129542857Y-98142857D01*
X129542857Y-98190476D01*
X129590476Y-98285714D01*
X129638095Y-98333333D01*
X129733333Y-98380952D01*
X129923809Y-98380952D01*
X130019047Y-98428571D01*
X130066666Y-98476190D01*
X130114285Y-98571428D01*
X130114285Y-98761904D01*
X130066666Y-98857142D01*
X130019047Y-98904761D01*
X129923809Y-98952380D01*
X129733333Y-98952380D01*
X129638095Y-98904761D01*
X129590476Y-98857142D01*
X129542857Y-98761904D01*
X129542857Y-98571428D01*
X129590476Y-98476190D01*
X129638095Y-98428571D01*
X129733333Y-98380952D01*
%TO.C,M9*%
X145209523Y-98952380D02*
X145209523Y-97952380D01*
X144876190Y-98666666D01*
X144542857Y-97952380D01*
X144542857Y-98952380D01*
X144019047Y-98952380D02*
X143828571Y-98952380D01*
X143733333Y-98904761D01*
X143685714Y-98857142D01*
X143590476Y-98714285D01*
X143542857Y-98523809D01*
X143542857Y-98142857D01*
X143590476Y-98047619D01*
X143638095Y-98000000D01*
X143733333Y-97952380D01*
X143923809Y-97952380D01*
X144019047Y-98000000D01*
X144066666Y-98047619D01*
X144114285Y-98142857D01*
X144114285Y-98380952D01*
X144066666Y-98476190D01*
X144019047Y-98523809D01*
X143923809Y-98571428D01*
X143733333Y-98571428D01*
X143638095Y-98523809D01*
X143590476Y-98476190D01*
X143542857Y-98380952D01*
%TO.C,M10*%
X159685714Y-98952380D02*
X159685714Y-97952380D01*
X159352380Y-98666666D01*
X159019047Y-97952380D01*
X159019047Y-98952380D01*
X158019047Y-98952380D02*
X158590476Y-98952380D01*
X158304761Y-98952380D02*
X158304761Y-97952380D01*
X158400000Y-98095238D01*
X158495238Y-98190476D01*
X158590476Y-98238095D01*
X157400000Y-97952380D02*
X157304761Y-97952380D01*
X157209523Y-98000000D01*
X157161904Y-98047619D01*
X157114285Y-98142857D01*
X157066666Y-98333333D01*
X157066666Y-98571428D01*
X157114285Y-98761904D01*
X157161904Y-98857142D01*
X157209523Y-98904761D01*
X157304761Y-98952380D01*
X157400000Y-98952380D01*
X157495238Y-98904761D01*
X157542857Y-98857142D01*
X157590476Y-98761904D01*
X157638095Y-98571428D01*
X157638095Y-98333333D01*
X157590476Y-98142857D01*
X157542857Y-98047619D01*
X157495238Y-98000000D01*
X157400000Y-97952380D01*
%TO.C,M11*%
X173685714Y-98952380D02*
X173685714Y-97952380D01*
X173352380Y-98666666D01*
X173019047Y-97952380D01*
X173019047Y-98952380D01*
X172019047Y-98952380D02*
X172590476Y-98952380D01*
X172304761Y-98952380D02*
X172304761Y-97952380D01*
X172400000Y-98095238D01*
X172495238Y-98190476D01*
X172590476Y-98238095D01*
X171066666Y-98952380D02*
X171638095Y-98952380D01*
X171352380Y-98952380D02*
X171352380Y-97952380D01*
X171447619Y-98095238D01*
X171542857Y-98190476D01*
X171638095Y-98238095D01*
%TD*%
M02*
